<mxfile type="github" version="12.7.4" pages="5" etag="qH2Yp637oZU37ral6zfo" agent="Mozilla/5.0 (Windows NT 10.0; Win64; x64) AppleWebKit/537.36 (KHTML, like Gecko) Chrome/58.0.3029.110 Safari/537.36 Edge/16.16299" modified="2020-02-25T07:28:41.813Z" host="www.draw.io">
  <diagram id="tHrA3F5uvPnwTFq_IKxd" name="Index">
    <mxGraphModel grid="1" shadow="0" math="0" pageHeight="1169" pageWidth="827" pageScale="1" page="1" fold="1" arrows="1" connect="1" tooltips="1" guides="1" gridSize="10" dy="572" dx="1038">
      <root>
        <mxCell id="kobSBxUnWEuh3TtMHef2-0" />
        <mxCell id="kobSBxUnWEuh3TtMHef2-1" parent="kobSBxUnWEuh3TtMHef2-0" />
        <mxCell id="NYJBxfPMK2odFOGyabf9-0" value="&lt;font style=&quot;font-size: 36px&quot;&gt;Middle Layer Platform Technical Architecture&lt;/font&gt;&lt;font&gt;&lt;font style=&quot;font-size: 28px&quot;&gt;&amp;nbsp;&lt;span style=&quot;color: rgb(0 , 102 , 51) ; font-size: 18px&quot;&gt;V&lt;/span&gt;&lt;/font&gt;&lt;font style=&quot;font-size: 18px&quot; color=&quot;#006633&quot;&gt;1.191211&lt;/font&gt;&lt;br&gt;&lt;/font&gt;" parent="kobSBxUnWEuh3TtMHef2-1" vertex="1" style="text;html=1;strokeColor=none;fillColor=none;align=center;verticalAlign=middle;whiteSpace=wrap;rounded=0;fontStyle=1">
          <mxGeometry as="geometry" height="20" width="955" y="320" x="90" />
        </mxCell>
        <mxCell id="NYJBxfPMK2odFOGyabf9-1" value="&lt;h1&gt;Introduction&lt;/h1&gt;&lt;p&gt;Lorem ipsum dolor sit amet, consectetur adipisicing elit, sed do eiusmod tempor incididunt ut labore et dolore magna aliqua.&lt;/p&gt;" parent="kobSBxUnWEuh3TtMHef2-1" vertex="1" style="text;html=1;strokeColor=none;fillColor=none;spacing=5;spacingTop=-20;whiteSpace=wrap;overflow=hidden;rounded=0;align=left;">
          <mxGeometry as="geometry" height="120" width="310" y="380" x="130" />
        </mxCell>
        <mxCell id="NYJBxfPMK2odFOGyabf9-2" value="&lt;h1&gt;Business Center&lt;/h1&gt;&lt;p&gt;Lorem ipsum dolor sit amet, consectetur adipisicing elit, sed do eiusmod tempor incididunt ut labore et dolore magna aliqua.&lt;/p&gt;" parent="kobSBxUnWEuh3TtMHef2-1" vertex="1" style="text;html=1;strokeColor=none;fillColor=none;spacing=5;spacingTop=-20;whiteSpace=wrap;overflow=hidden;rounded=0;align=left;">
          <mxGeometry as="geometry" height="120" width="480" y="510" x="130" />
        </mxCell>
        <mxCell id="NYJBxfPMK2odFOGyabf9-3" value="&lt;h1&gt;Common Ability&lt;/h1&gt;&lt;p&gt;Lorem ipsum dolor sit amet, consectetur adipisicing elit, sed do eiusmod tempor incididunt ut labore et dolore magna aliqua.&lt;/p&gt;" parent="kobSBxUnWEuh3TtMHef2-1" vertex="1" style="text;html=1;strokeColor=none;fillColor=none;spacing=5;spacingTop=-20;whiteSpace=wrap;overflow=hidden;rounded=0;align=left;">
          <mxGeometry as="geometry" height="120" width="480" y="660" x="130" />
        </mxCell>
        <mxCell id="NYJBxfPMK2odFOGyabf9-4" value="" parent="kobSBxUnWEuh3TtMHef2-1" vertex="1" style="rounded=0;whiteSpace=wrap;html=1;fillColor=#d5e8d4;strokeColor=#82b366;">
          <mxGeometry as="geometry" height="20" width="20" y="960" x="130" />
        </mxCell>
        <mxCell id="NYJBxfPMK2odFOGyabf9-5" value="&lt;b&gt;Background&amp;nbsp;&lt;/b&gt;with color indicates middle layer platform scope" parent="kobSBxUnWEuh3TtMHef2-1" vertex="1" style="text;html=1;strokeColor=none;fillColor=none;align=left;verticalAlign=middle;whiteSpace=wrap;rounded=0;">
          <mxGeometry as="geometry" height="20" width="344" y="960.5" x="160" />
        </mxCell>
        <mxCell id="NYJBxfPMK2odFOGyabf9-6" value="&lt;h1&gt;Color&amp;nbsp;Indication&lt;/h1&gt;&lt;p&gt;Lorem ipsum dolor sit amet, consectetur adipisicing elit, sed do eiusmod tempor incididunt ut labore et dolore magna aliqua.&lt;/p&gt;" parent="kobSBxUnWEuh3TtMHef2-1" vertex="1" style="text;html=1;strokeColor=none;fillColor=none;spacing=5;spacingTop=-20;whiteSpace=wrap;overflow=hidden;rounded=0;align=left;">
          <mxGeometry as="geometry" height="100" width="480" y="810" x="130" />
        </mxCell>
      </root>
    </mxGraphModel>
  </diagram>
  <diagram id="ndU5bFHhsBsMHuEpMbfa" name="B - Order Center">
    
    <mxGraphModel grid="1" shadow="0" math="0" pageHeight="827" pageWidth="1169" pageScale="1" page="1" fold="1" arrows="1" connect="1" tooltips="1" guides="0" gridSize="10" dy="557" dx="1031">
      
      <root>
        
        <mxCell id="0" />
        
        <mxCell id="1" parent="0" />
        
        <mxCell id="d5RiEAz61UmeUt_k1eEo-13" value="" parent="1" style="edgeStyle=orthogonalEdgeStyle;rounded=0;orthogonalLoop=1;jettySize=auto;html=1;labelBackgroundColor=none;strokeColor=#994C00;fontColor=#330000;entryX=0.174;entryY=0.002;entryDx=0;entryDy=0;entryPerimeter=0;" edge="1" target="ybdARDxxST7sQ0iw9kL--10" source="ybdARDxxST7sQ0iw9kL--1">
          
          <mxGeometry as="geometry" relative="1">
            
            <mxPoint as="targetPoint" y="250" x="418" />
            
            <Array as="points">
              
              <mxPoint y="220" x="528" />
              
              <mxPoint y="220" x="443" />
              
            </Array>
            
          </mxGeometry>
          
        </mxCell>
        
        <mxCell id="ybdARDxxST7sQ0iw9kL--1" value="Eleme&lt;br&gt;&amp;nbsp;Delivery" parent="1" vertex="1" style="rounded=1;whiteSpace=wrap;html=1;fillColor=#dae8fc;strokeColor=#6C8EBF;opacity=50;">
          
          <mxGeometry as="geometry" height="60" width="120" y="120" x="468" />
          
        </mxCell>
        
        <mxCell id="d5RiEAz61UmeUt_k1eEo-8" value="&lt;span style=&quot;font-weight: normal&quot;&gt;Store retail&amp;nbsp;&lt;/span&gt;" parent="1" style="edgeStyle=orthogonalEdgeStyle;rounded=0;orthogonalLoop=1;jettySize=auto;html=1;exitX=0.5;exitY=1;exitDx=0;exitDy=0;fontStyle=1;strokeColor=#660000;" edge="1" target="ybdARDxxST7sQ0iw9kL--11" source="ybdARDxxST7sQ0iw9kL--2">
          
          <mxGeometry as="geometry" x="-0.1429" relative="1">
            
            <mxPoint as="offset" y="1" />
            
          </mxGeometry>
          
        </mxCell>
        
        <mxCell id="ybdARDxxST7sQ0iw9kL--2" value="&lt;span style=&quot;font: 12px / 1.2 &amp;#34;helvetica&amp;#34; ; color: rgb(0 , 0 , 0) ; text-transform: none ; text-indent: 0px ; letter-spacing: normal ; text-decoration: none ; word-spacing: 0px ; display: inline ; white-space: normal ; float: none ; overflow-wrap: normal ; background-color: rgb(248 , 249 , 250)&quot;&gt;In &lt;/span&gt;Store&lt;br&gt;Sales&lt;br&gt;&amp;nbsp;" parent="1" vertex="1" style="rounded=1;whiteSpace=wrap;html=1;fillColor=#f5f5f5;align=center;verticalAlign=bottom;strokeColor=#666666;fontColor=#333333;">
          
          <mxGeometry as="geometry" height="60" width="120" y="120" x="208" />
          
        </mxCell>
        
        <mxCell id="d5RiEAz61UmeUt_k1eEo-15" value="Mop" parent="1" style="edgeStyle=orthogonalEdgeStyle;rounded=0;orthogonalLoop=1;jettySize=auto;html=1;entryX=0.608;entryY=0.027;entryDx=0;entryDy=0;entryPerimeter=0;labelBackgroundColor=none;strokeColor=#666600;fontColor=#330000;" edge="1" target="ybdARDxxST7sQ0iw9kL--10" source="ybdARDxxST7sQ0iw9kL--3">
          
          <mxGeometry as="geometry" relative="1" />
          
        </mxCell>
        
        <mxCell id="ybdARDxxST7sQ0iw9kL--3" value="SBUX App&amp;nbsp;&lt;br&gt;MOP" parent="1" vertex="1" style="rounded=1;whiteSpace=wrap;html=1;fillColor=#dae8fc;strokeColor=#6C8EBF;opacity=50;">
          
          <mxGeometry as="geometry" height="60" width="120" y="120" x="596" />
          
        </mxCell>
        
        <mxCell id="d5RiEAz61UmeUt_k1eEo-11" value="" parent="1" style="edgeStyle=orthogonalEdgeStyle;rounded=0;orthogonalLoop=1;jettySize=auto;html=1;labelBackgroundColor=#FFFFFF;strokeColor=#994C00;fontColor=#330000;entryX=0.176;entryY=0.002;entryDx=0;entryDy=0;entryPerimeter=0;" edge="1">
          
          <mxGeometry as="geometry" relative="1">
            
            <mxPoint as="sourcePoint" y="180" x="395" />
            
            <mxPoint as="targetPoint" y="250.06000000000006" x="443.2399999999999" />
            
            <Array as="points">
              
              <mxPoint y="220" x="395" />
              
              <mxPoint y="220" x="443" />
              
            </Array>
            
          </mxGeometry>
          
        </mxCell>
        
        <mxCell id="ybdARDxxST7sQ0iw9kL--4" value="SBUX App&lt;br&gt;Delivery" parent="1" vertex="1" style="rounded=1;whiteSpace=wrap;html=1;fillColor=#dae8fc;strokeColor=#6C8EBF;opacity=50;">
          
          <mxGeometry as="geometry" height="60" width="120" y="120" x="336" />
          
        </mxCell>
        
        <mxCell id="d5RiEAz61UmeUt_k1eEo-21" value="Hema hidden kitchen" parent="1" style="edgeStyle=orthogonalEdgeStyle;rounded=0;orthogonalLoop=1;jettySize=auto;html=1;labelBackgroundColor=none;strokeColor=#A680B8;fontColor=#330000;entryX=0.872;entryY=-0.063;entryDx=0;entryDy=0;entryPerimeter=0;" edge="1" target="ybdARDxxST7sQ0iw9kL--10" source="ybdARDxxST7sQ0iw9kL--5">
          
          <mxGeometry as="geometry" relative="1">
            
            <Array as="points">
              
              <mxPoint y="215" x="785" />
              
            </Array>
            
          </mxGeometry>
          
        </mxCell>
        
        <mxCell id="ybdARDxxST7sQ0iw9kL--5" value="Hema" parent="1" vertex="1" style="rounded=1;whiteSpace=wrap;html=1;fillColor=#dae8fc;strokeColor=#6C8EBF;opacity=50;">
          
          <mxGeometry as="geometry" height="60" width="120" y="120" x="728" />
          
        </mxCell>
        
        <mxCell id="d5RiEAz61UmeUt_k1eEo-23" value="iStore" parent="1" style="edgeStyle=orthogonalEdgeStyle;rounded=0;orthogonalLoop=1;jettySize=auto;html=1;labelBackgroundColor=none;strokeColor=#000066;fontColor=#330000;" edge="1" target="d5RiEAz61UmeUt_k1eEo-2" source="ybdARDxxST7sQ0iw9kL--6">
          
          <mxGeometry as="geometry" relative="1">
            
            <Array as="points">
              
              <mxPoint y="200" x="918" />
              
              <mxPoint y="200" x="918" />
              
            </Array>
            
          </mxGeometry>
          
        </mxCell>
        
        <mxCell id="ybdARDxxST7sQ0iw9kL--6" value="iStore Tmall" parent="1" vertex="1" style="rounded=1;whiteSpace=wrap;html=1;fillColor=#dae8fc;strokeColor=#6c8ebf;opacity=50;">
          
          <mxGeometry as="geometry" height="60" width="120" y="120" x="860" />
          
        </mxCell>
        
        <mxCell id="d5RiEAz61UmeUt_k1eEo-24" value="SRkit" parent="1" style="edgeStyle=orthogonalEdgeStyle;rounded=0;orthogonalLoop=1;jettySize=auto;html=1;labelBackgroundColor=none;strokeColor=#4D9900;fontColor=#330000;" edge="1" target="d5RiEAz61UmeUt_k1eEo-1" source="ybdARDxxST7sQ0iw9kL--7">
          
          <mxGeometry as="geometry" relative="1">
            
            <Array as="points">
              
              <mxPoint y="200" x="1048" />
              
              <mxPoint y="200" x="1048" />
              
            </Array>
            
          </mxGeometry>
          
        </mxCell>
        
        <mxCell id="ybdARDxxST7sQ0iw9kL--7" value="SBUX App&lt;br&gt;SRkit" parent="1" vertex="1" style="rounded=1;whiteSpace=wrap;html=1;fillColor=#dae8fc;strokeColor=#6C8EBF;opacity=50;">
          
          <mxGeometry as="geometry" height="60" width="120" y="120" x="991" />
          
        </mxCell>
        
        <mxCell id="ybdARDxxST7sQ0iw9kL--8" value="&lt;b&gt;Conceptual of Architecture-Order Data Business Flow As-Is &lt;font style=&quot;font-size: 18px&quot;&gt;v20.2.20&lt;/font&gt;&lt;/b&gt;" parent="1" vertex="1" style="text;html=1;align=center;fontSize=25;">
          
          <mxGeometry as="geometry" height="40" width="850" y="50" x="238" />
          
        </mxCell>
        
        <mxCell id="d5RiEAz61UmeUt_k1eEo-12" parent="1" style="edgeStyle=orthogonalEdgeStyle;rounded=0;orthogonalLoop=1;jettySize=auto;html=1;exitX=0;exitY=0.25;exitDx=0;exitDy=0;labelBackgroundColor=#990000;strokeColor=#994C00;fontColor=#990000;" edge="1" target="ybdARDxxST7sQ0iw9kL--11" source="ybdARDxxST7sQ0iw9kL--10">
          
          <mxGeometry as="geometry" relative="1">
            
            <Array as="points">
              
              <mxPoint y="257" x="328" />
              
              <mxPoint y="257" x="328" />
              
            </Array>
            
          </mxGeometry>
          
        </mxCell>
        
        <mxCell id="d5RiEAz61UmeUt_k1eEo-16" value="" parent="1" style="edgeStyle=orthogonalEdgeStyle;rounded=0;orthogonalLoop=1;jettySize=auto;html=1;labelBackgroundColor=#990000;strokeColor=#666600;fontColor=#990000;" edge="1" target="ybdARDxxST7sQ0iw9kL--11" source="ybdARDxxST7sQ0iw9kL--10">
          
          <mxGeometry as="geometry" relative="1" />
          
        </mxCell>
        
        <mxCell id="d5RiEAz61UmeUt_k1eEo-22" value="" parent="1" style="edgeStyle=orthogonalEdgeStyle;rounded=0;orthogonalLoop=1;jettySize=auto;html=1;labelBackgroundColor=#990000;strokeColor=#A680B8;fontColor=#990000;exitX=0.867;exitY=1;exitDx=0;exitDy=0;exitPerimeter=0;" edge="1" target="ybdARDxxST7sQ0iw9kL--13" source="ybdARDxxST7sQ0iw9kL--10">
          
          <mxGeometry as="geometry" relative="1">
            
            <Array as="points">
              
              <mxPoint y="360" x="783" />
              
              <mxPoint y="360" x="783" />
              
            </Array>
            
          </mxGeometry>
          
        </mxCell>
        
        <mxCell id="ybdARDxxST7sQ0iw9kL--10" value="O2O - OMS" parent="1" vertex="1" style="rounded=1;whiteSpace=wrap;html=1;fillColor=#ffe6cc;strokeColor=#d79b00;opacity=50;">
          
          <mxGeometry as="geometry" height="30" width="490" y="250" x="358" />
          
        </mxCell>
        
        <mxCell id="d5RiEAz61UmeUt_k1eEo-9" parent="1" style="edgeStyle=orthogonalEdgeStyle;rounded=0;orthogonalLoop=1;jettySize=auto;html=1;exitX=0.5;exitY=1;exitDx=0;exitDy=0;entryX=0.414;entryY=0.004;entryDx=0;entryDy=0;labelBackgroundColor=#990000;strokeColor=#660000;fontColor=#990000;entryPerimeter=0;" edge="1" target="ybdARDxxST7sQ0iw9kL--12">
          
          <mxGeometry as="geometry" relative="1">
            
            <mxPoint as="sourcePoint" y="279.9999999999999" x="258" />
            
            <mxPoint as="targetPoint" y="339.9999999999999" x="258" />
            
          </mxGeometry>
          
        </mxCell>
        
        <mxCell id="d5RiEAz61UmeUt_k1eEo-14" value="" parent="1" style="edgeStyle=orthogonalEdgeStyle;rounded=0;orthogonalLoop=1;jettySize=auto;html=1;labelBackgroundColor=#990000;strokeColor=#994C00;fontColor=#990000;" edge="1" target="ybdARDxxST7sQ0iw9kL--12" source="ybdARDxxST7sQ0iw9kL--11">
          
          <mxGeometry as="geometry" relative="1" />
          
        </mxCell>
        
        <mxCell id="ybdARDxxST7sQ0iw9kL--11" value="Symphony POS" parent="1" vertex="1" style="rounded=1;whiteSpace=wrap;html=1;fillColor=#f5f5f5;strokeColor=#666666;fontColor=#333333;">
          
          <mxGeometry as="geometry" height="30" width="120" y="250" x="208" />
          
        </mxCell>
        
        <mxCell id="d5RiEAz61UmeUt_k1eEo-10" parent="1" style="edgeStyle=orthogonalEdgeStyle;rounded=0;orthogonalLoop=1;jettySize=auto;html=1;exitX=1;exitY=0.75;exitDx=0;exitDy=0;entryX=0;entryY=0.75;entryDx=0;entryDy=0;labelBackgroundColor=#990000;strokeColor=#660000;fontColor=#990000;" edge="1">
          
          <mxGeometry as="geometry" relative="1">
            
            <mxPoint as="sourcePoint" y="435.5" x="328" />
            
            <mxPoint as="targetPoint" y="435.5" x="358" />
            
          </mxGeometry>
          
        </mxCell>
        
        <mxCell id="AGUkOt8j1sKJ9iHFxSpU-2" parent="1" style="edgeStyle=orthogonalEdgeStyle;rounded=0;orthogonalLoop=1;jettySize=auto;html=1;entryX=0.5;entryY=0;entryDx=0;entryDy=0;labelBackgroundColor=none;strokeColor=#330000;fontSize=11;fontColor=none;exitX=0.5;exitY=1;exitDx=0;exitDy=0;" edge="1" target="d5RiEAz61UmeUt_k1eEo-3" source="ybdARDxxST7sQ0iw9kL--12">
          
          <mxGeometry as="geometry" relative="1" />
          
        </mxCell>
        
        <mxCell id="AGUkOt8j1sKJ9iHFxSpU-3" parent="1" style="edgeStyle=orthogonalEdgeStyle;rounded=0;orthogonalLoop=1;jettySize=auto;html=1;exitX=0.5;exitY=1;exitDx=0;exitDy=0;entryX=0.5;entryY=0;entryDx=0;entryDy=0;labelBackgroundColor=none;strokeColor=#330000;fontSize=11;fontColor=none;" edge="1" target="d5RiEAz61UmeUt_k1eEo-4" source="ybdARDxxST7sQ0iw9kL--12">
          
          <mxGeometry as="geometry" relative="1" />
          
        </mxCell>
        
        <mxCell id="AGUkOt8j1sKJ9iHFxSpU-4" parent="1" style="edgeStyle=orthogonalEdgeStyle;rounded=0;orthogonalLoop=1;jettySize=auto;html=1;exitX=0.5;exitY=1;exitDx=0;exitDy=0;entryX=0.5;entryY=0;entryDx=0;entryDy=0;labelBackgroundColor=none;strokeColor=#330000;fontSize=11;fontColor=none;" edge="1" target="d5RiEAz61UmeUt_k1eEo-5" source="ybdARDxxST7sQ0iw9kL--12">
          
          <mxGeometry as="geometry" relative="1" />
          
        </mxCell>
        
        <mxCell id="AGUkOt8j1sKJ9iHFxSpU-5" parent="1" style="edgeStyle=orthogonalEdgeStyle;rounded=0;orthogonalLoop=1;jettySize=auto;html=1;exitX=0.5;exitY=1;exitDx=0;exitDy=0;entryX=0.544;entryY=-0.058;entryDx=0;entryDy=0;entryPerimeter=0;labelBackgroundColor=none;strokeColor=#330000;fontSize=11;fontColor=none;" edge="1" target="d5RiEAz61UmeUt_k1eEo-6" source="ybdARDxxST7sQ0iw9kL--12">
          
          <mxGeometry as="geometry" relative="1" />
          
        </mxCell>
        
        <mxCell id="AGUkOt8j1sKJ9iHFxSpU-7" parent="1" style="edgeStyle=orthogonalEdgeStyle;rounded=0;orthogonalLoop=1;jettySize=auto;html=1;exitX=0.5;exitY=1;exitDx=0;exitDy=0;entryX=0;entryY=0.5;entryDx=0;entryDy=0;labelBackgroundColor=none;strokeColor=#330000;fontSize=11;fontColor=none;" edge="1" target="d5RiEAz61UmeUt_k1eEo-7" source="ybdARDxxST7sQ0iw9kL--12">
          
          <mxGeometry as="geometry" relative="1" />
          
        </mxCell>
        
        <mxCell id="AGUkOt8j1sKJ9iHFxSpU-9" parent="1" style="edgeStyle=orthogonalEdgeStyle;rounded=0;orthogonalLoop=1;jettySize=auto;html=1;exitX=0.5;exitY=1;exitDx=0;exitDy=0;entryX=0.5;entryY=0;entryDx=0;entryDy=0;labelBackgroundColor=none;strokeColor=#330000;fontSize=11;fontColor=none;" edge="1" target="ybdARDxxST7sQ0iw9kL--15" source="ybdARDxxST7sQ0iw9kL--12">
          
          <mxGeometry as="geometry" relative="1" />
          
        </mxCell>
        
        <mxCell id="ybdARDxxST7sQ0iw9kL--12" value="ESB" parent="1" vertex="1" style="rounded=1;whiteSpace=wrap;html=1;fillColor=#ffe6cc;strokeColor=#d79b00;opacity=50;">
          
          <mxGeometry as="geometry" height="110" width="120" y="400" x="208" />
          
        </mxCell>
        
        <mxCell id="ribgnplRl4Wd1gKBCeJ1-26" value="" parent="1" style="edgeStyle=orthogonalEdgeStyle;rounded=0;orthogonalLoop=1;jettySize=auto;html=1;labelBackgroundColor=none;strokeColor=#A680B8;fontSize=11;fontColor=none;" edge="1">
          
          <mxGeometry as="geometry" relative="1">
            
            <mxPoint as="sourcePoint" y="481" x="358" />
            
            <mxPoint as="targetPoint" y="481" x="328" />
            
          </mxGeometry>
          
        </mxCell>
        
        <mxCell id="ribgnplRl4Wd1gKBCeJ1-27" parent="1" style="edgeStyle=orthogonalEdgeStyle;rounded=0;orthogonalLoop=1;jettySize=auto;html=1;exitX=0;exitY=0.75;exitDx=0;exitDy=0;entryX=1;entryY=0.75;entryDx=0;entryDy=0;labelBackgroundColor=none;strokeColor=#4D9900;fontSize=11;fontColor=none;" edge="1">
          
          <mxGeometry as="geometry" relative="1">
            
            <mxPoint as="sourcePoint" y="489.5" x="358" />
            
            <mxPoint as="targetPoint" y="489.5" x="328" />
            
          </mxGeometry>
          
        </mxCell>
        
        <mxCell id="ybdARDxxST7sQ0iw9kL--13" value="&lt;font style=&quot;font-size: 23px&quot;&gt;Order Center in Middle layer&lt;/font&gt;" parent="1" vertex="1" style="rounded=1;whiteSpace=wrap;html=1;fillColor=#d5e8d4;strokeColor=#82b366;opacity=50;">
          
          <mxGeometry as="geometry" height="110" width="750" y="400" x="358" />
          
        </mxCell>
        
        <mxCell id="ybdARDxxST7sQ0iw9kL--15" value="BOH" parent="1" vertex="1" style="rounded=1;whiteSpace=wrap;html=1;fillColor=#ffe6cc;strokeColor=#d79b00;opacity=50;">
          
          <mxGeometry as="geometry" height="30" width="130" y="560" x="358" />
          
        </mxCell>
        
        <mxCell id="d5RiEAz61UmeUt_k1eEo-26" value="" parent="1" style="edgeStyle=orthogonalEdgeStyle;rounded=0;orthogonalLoop=1;jettySize=auto;html=1;labelBackgroundColor=#990000;strokeColor=#4D9900;fontColor=#990000;" edge="1" target="ybdARDxxST7sQ0iw9kL--13" source="d5RiEAz61UmeUt_k1eEo-1">
          
          <mxGeometry as="geometry" relative="1">
            
            <Array as="points">
              
              <mxPoint y="370" x="1048" />
              
              <mxPoint y="370" x="1048" />
              
            </Array>
            
          </mxGeometry>
          
        </mxCell>
        
        <mxCell id="d5RiEAz61UmeUt_k1eEo-1" value="App Digital OMS" parent="1" vertex="1" style="rounded=1;whiteSpace=wrap;html=1;fillColor=#ffe6cc;strokeColor=#d79b00;opacity=50;">
          
          <mxGeometry as="geometry" height="30" width="120" y="250" x="988" />
          
        </mxCell>
        
        <mxCell id="d5RiEAz61UmeUt_k1eEo-25" value="" parent="1" style="edgeStyle=orthogonalEdgeStyle;rounded=0;orthogonalLoop=1;jettySize=auto;html=1;labelBackgroundColor=#990000;strokeColor=#000066;fontColor=#990000;" edge="1" target="ybdARDxxST7sQ0iw9kL--13" source="d5RiEAz61UmeUt_k1eEo-2">
          
          <mxGeometry as="geometry" relative="1">
            
            <Array as="points">
              
              <mxPoint y="330" x="918" />
              
              <mxPoint y="330" x="918" />
              
            </Array>
            
          </mxGeometry>
          
        </mxCell>
        
        <mxCell id="d5RiEAz61UmeUt_k1eEo-2" value="Taobao open platform" parent="1" vertex="1" style="rounded=1;whiteSpace=wrap;html=1;fillColor=#dae8fc;strokeColor=#6C8EBF;opacity=50;">
          
          <mxGeometry as="geometry" height="30" width="120" y="250" x="858" />
          
        </mxCell>
        
        <mxCell id="d5RiEAz61UmeUt_k1eEo-3" value="HEX" parent="1" vertex="1" style="rounded=1;whiteSpace=wrap;html=1;fillColor=#ffe6cc;strokeColor=#d79b00;opacity=50;">
          
          <mxGeometry as="geometry" height="30" width="130" y="560" x="508" />
          
        </mxCell>
        
        <mxCell id="d5RiEAz61UmeUt_k1eEo-4" value="Siebel" parent="1" vertex="1" style="rounded=1;whiteSpace=wrap;html=1;fillColor=#ffe6cc;strokeColor=#d79b00;opacity=50;">
          
          <mxGeometry as="geometry" height="30" width="130" y="560" x="658" />
          
        </mxCell>
        
        <mxCell id="AGUkOt8j1sKJ9iHFxSpU-6" parent="1" style="edgeStyle=orthogonalEdgeStyle;rounded=0;orthogonalLoop=1;jettySize=auto;html=1;exitX=0.5;exitY=1;exitDx=0;exitDy=0;entryX=0.5;entryY=0;entryDx=0;entryDy=0;labelBackgroundColor=none;strokeColor=#330000;fontSize=11;fontColor=none;" edge="1" target="d5RiEAz61UmeUt_k1eEo-7" source="d5RiEAz61UmeUt_k1eEo-5">
          
          <mxGeometry as="geometry" relative="1" />
          
        </mxCell>
        
        <mxCell id="d5RiEAz61UmeUt_k1eEo-5" value="URP" parent="1" vertex="1" style="rounded=1;whiteSpace=wrap;html=1;fillColor=#ffe6cc;strokeColor=#d79b00;opacity=50;">
          
          <mxGeometry as="geometry" height="30" width="130" y="560" x="811" />
          
        </mxCell>
        
        <mxCell id="d5RiEAz61UmeUt_k1eEo-6" value="BI" parent="1" vertex="1" style="rounded=1;whiteSpace=wrap;html=1;fillColor=#ffe6cc;strokeColor=#d79b00;opacity=50;">
          
          <mxGeometry as="geometry" height="30" width="140" y="560" x="968" />
          
        </mxCell>
        
        <mxCell id="d5RiEAz61UmeUt_k1eEo-7" value="SAT" parent="1" vertex="1" style="rounded=1;whiteSpace=wrap;html=1;fillColor=#ffe6cc;strokeColor=#d79b00;opacity=50;">
          
          <mxGeometry as="geometry" height="30" width="130" y="630" x="811" />
          
        </mxCell>
        
        <mxCell id="d5RiEAz61UmeUt_k1eEo-17" parent="1" style="edgeStyle=orthogonalEdgeStyle;rounded=0;orthogonalLoop=1;jettySize=auto;html=1;labelBackgroundColor=#990000;strokeColor=#666600;fontColor=#990000;entryX=0.583;entryY=0.009;entryDx=0;entryDy=0;entryPerimeter=0;exitX=0.583;exitY=1.065;exitDx=0;exitDy=0;exitPerimeter=0;" edge="1">
          
          <mxGeometry as="geometry" relative="1">
            
            <mxPoint as="sourcePoint" y="280.94999999999993" x="277.96000000000003" />
            
            <mxPoint as="targetPoint" y="399.99" x="277.96000000000003" />
            
            <Array as="points" />
            
          </mxGeometry>
          
        </mxCell>
        
        <mxCell id="d5RiEAz61UmeUt_k1eEo-18" value="" parent="1" style="edgeStyle=orthogonalEdgeStyle;rounded=0;orthogonalLoop=1;jettySize=auto;html=1;labelBackgroundColor=#990000;strokeColor=#994C00;fontColor=#990000;exitX=0.997;exitY=0.684;exitDx=0;exitDy=0;exitPerimeter=0;entryX=-0.001;entryY=0.669;entryDx=0;entryDy=0;entryPerimeter=0;" edge="1">
          
          <mxGeometry as="geometry" relative="1">
            
            <mxPoint as="sourcePoint" y="428.2399999999999" x="327.64" />
            
            <mxPoint as="targetPoint" y="426.5899999999999" x="357.25" />
            
            <Array as="points">
              
              <mxPoint y="427" x="328" />
              
              <mxPoint y="427" x="338" />
              
            </Array>
            
          </mxGeometry>
          
        </mxCell>
        
        <mxCell id="d5RiEAz61UmeUt_k1eEo-20" parent="1" style="edgeStyle=orthogonalEdgeStyle;rounded=0;orthogonalLoop=1;jettySize=auto;html=1;labelBackgroundColor=#990000;strokeColor=#666600;fontColor=#990000;exitX=0.999;exitY=0.582;exitDx=0;exitDy=0;exitPerimeter=0;entryX=-0.001;entryY=0.582;entryDx=0;entryDy=0;entryPerimeter=0;" edge="1">
          
          <mxGeometry as="geometry" relative="1">
            
            <mxPoint as="sourcePoint" y="417.02" x="327.8800000000001" />
            
            <mxPoint as="targetPoint" y="417.02" x="357.25" />
            
            <Array as="points" />
            
          </mxGeometry>
          
        </mxCell>
        
        <mxCell id="d5RiEAz61UmeUt_k1eEo-34" value="&lt;font color=&quot;#006633&quot;&gt;The delivery and mop orders to POS&lt;/font&gt;" parent="1" vertex="1" style="shape=note;size=15;align=left;spacingLeft=10;html=1;whiteSpace=wrap;strokeColor=#666600;fillColor=none;fontSize=11;fontColor=none;opacity=50;">
          
          <mxGeometry as="geometry" height="30" width="120" y="210" x="98" />
          
        </mxCell>
        
        <mxCell id="d5RiEAz61UmeUt_k1eEo-35" value="" parent="1" style="edgeStyle=none;endArrow=none;exitX=1;exitY=1;dashed=1;html=1;labelBackgroundColor=none;strokeColor=#666600;fontSize=25;fontColor=none;exitDx=0;exitDy=0;exitPerimeter=0;entryX=0;entryY=0.5;entryDx=0;entryDy=0;" edge="1" target="ybdARDxxST7sQ0iw9kL--10" source="d5RiEAz61UmeUt_k1eEo-34">
          
          <mxGeometry as="geometry" x="1" relative="1">
            
            <mxPoint as="targetPoint" y="270" x="358" />
            
          </mxGeometry>
          
        </mxCell>
        
        <mxCell id="d5RiEAz61UmeUt_k1eEo-43" value="&lt;font color=&quot;#006633&quot;&gt;Store retail, delivery and mop orders to ESB. ESB will deliver to enterprise back-end systems and import to order center for order capture.&lt;/font&gt;" parent="1" vertex="1" style="shape=note;size=15;align=left;spacingLeft=10;html=1;whiteSpace=wrap;strokeColor=#666600;fillColor=none;fontSize=11;fontColor=none;opacity=50;">
          
          <mxGeometry as="geometry" height="100" width="150" y="290" x="98" />
          
        </mxCell>
        
        <mxCell id="ribgnplRl4Wd1gKBCeJ1-1" value="&lt;span style=&quot;display: inline ; float: none ; background-color: rgb(248 , 249 , 250) ; color: rgb(51 , 0 , 0) ; font-family: &amp;#34;helvetica&amp;#34; ; font-size: 11px ; font-style: normal ; font-variant: normal ; font-weight: normal ; letter-spacing: normal ; line-height: 1.2 ; overflow-wrap: normal ; text-align: center ; text-decoration: none ; text-indent: 0px ; text-transform: none ; white-space: nowrap ; word-spacing: 0px&quot;&gt;Delivery&lt;/span&gt;" parent="1" vertex="1" style="text;html=1;strokeColor=none;fillColor=none;align=center;verticalAlign=middle;whiteSpace=wrap;rounded=0;fontSize=11;fontColor=none;opacity=50;">
          
          <mxGeometry as="geometry" height="20" width="40" y="200" x="418" />
          
        </mxCell>
        
        <mxCell id="ribgnplRl4Wd1gKBCeJ1-4" value="" parent="1" vertex="1" style="rounded=1;whiteSpace=wrap;html=1;fillColor=#ffe6cc;strokeColor=#d79b00;opacity=50;">
          
          <mxGeometry as="geometry" height="20" width="30" y="690" x="208" />
          
        </mxCell>
        
        <mxCell id="ribgnplRl4Wd1gKBCeJ1-6" value="" parent="1" vertex="1" style="rounded=1;whiteSpace=wrap;html=1;fillColor=#dae8fc;strokeColor=#6c8ebf;opacity=50;">
          
          <mxGeometry as="geometry" height="20" width="30" y="720" x="208" />
          
        </mxCell>
        
        <mxCell id="ribgnplRl4Wd1gKBCeJ1-8" value="" parent="1" vertex="1" style="rounded=1;whiteSpace=wrap;html=1;fillColor=#d5e8d4;strokeColor=#82b366;opacity=50;">
          
          <mxGeometry as="geometry" height="20" width="30" y="750" x="208" />
          
        </mxCell>
        
        <mxCell id="ribgnplRl4Wd1gKBCeJ1-10" value="" parent="1" vertex="1" style="rounded=1;whiteSpace=wrap;html=1;fillColor=#f5f5f5;strokeColor=#666666;opacity=50;fontColor=#333333;">
          
          <mxGeometry as="geometry" height="20" width="30" y="780" x="208" />
          
        </mxCell>
        
        <mxCell id="ribgnplRl4Wd1gKBCeJ1-11" value="Existing system deployed in IDC" parent="1" vertex="1" style="text;html=1;strokeColor=none;fillColor=none;align=left;verticalAlign=middle;whiteSpace=wrap;rounded=0;fontSize=11;fontColor=none;opacity=50;">
          
          <mxGeometry as="geometry" height="20" width="180" y="690" x="258" />
          
        </mxCell>
        
        <mxCell id="ribgnplRl4Wd1gKBCeJ1-12" value="External system" parent="1" vertex="1" style="text;html=1;strokeColor=none;fillColor=none;align=left;verticalAlign=middle;whiteSpace=wrap;rounded=0;fontSize=11;fontColor=none;opacity=50;">
          
          <mxGeometry as="geometry" height="20" width="180" y="720" x="258" />
          
        </mxCell>
        
        <mxCell id="ribgnplRl4Wd1gKBCeJ1-13" value="Business center in middle layer deployed in Azure&amp;nbsp;" parent="1" vertex="1" style="text;html=1;strokeColor=none;fillColor=none;align=left;verticalAlign=middle;whiteSpace=wrap;rounded=0;fontSize=11;fontColor=none;opacity=50;">
          
          <mxGeometry as="geometry" height="28.89" width="280" y="750" x="258" />
          
        </mxCell>
        
        <mxCell id="ribgnplRl4Wd1gKBCeJ1-14" value="Store scenario or iStore system" parent="1" vertex="1" style="text;html=1;strokeColor=none;fillColor=none;align=left;verticalAlign=middle;whiteSpace=wrap;rounded=0;fontSize=11;fontColor=none;opacity=50;">
          
          <mxGeometry as="geometry" height="28.89" width="260" y="776" x="258" />
          
        </mxCell>
        
        <mxCell id="ribgnplRl4Wd1gKBCeJ1-16" value="" parent="1" style="edgeStyle=none;endArrow=none;exitX=0;exitY=0;dashed=1;html=1;labelBackgroundColor=none;strokeColor=#666600;fontSize=25;fontColor=none;exitDx=150;exitDy=52.5;exitPerimeter=0;" edge="1" source="d5RiEAz61UmeUt_k1eEo-43">
          
          <mxGeometry as="geometry" x="1" relative="1">
            
            <mxPoint as="targetPoint" y="320" x="258" />
            
            <mxPoint as="sourcePoint" y="299.9999999999999" x="396" />
            
          </mxGeometry>
          
        </mxCell>
        
        <mxCell id="ribgnplRl4Wd1gKBCeJ1-17" value="&lt;font color=&quot;#006633&quot;&gt;Store retail, delivery, mop, hema and SRkit orders are delivered to enterprise back-end systems&lt;/font&gt;" parent="1" vertex="1" style="shape=note;size=15;align=left;spacingLeft=10;html=1;whiteSpace=wrap;strokeColor=#666600;fillColor=none;fontSize=11;fontColor=none;opacity=50;">
          
          <mxGeometry as="geometry" height="80" width="150" y="550" x="74" />
          
        </mxCell>
        
        <mxCell id="ribgnplRl4Wd1gKBCeJ1-18" value="" parent="1" style="edgeStyle=none;endArrow=none;exitX=0;exitY=0;dashed=1;html=1;labelBackgroundColor=none;strokeColor=#666600;fontSize=25;fontColor=none;exitDx=67.5;exitDy=0;exitPerimeter=0;" edge="1" source="ribgnplRl4Wd1gKBCeJ1-17">
          
          <mxGeometry as="geometry" x="1" relative="1">
            
            <mxPoint as="targetPoint" y="530" x="268" />
            
            <mxPoint as="sourcePoint" y="489.9999999999999" x="456" />
            
          </mxGeometry>
          
        </mxCell>
        
        <mxCell id="ribgnplRl4Wd1gKBCeJ1-19" value="&lt;font color=&quot;#006633&quot;&gt;Store retail, delivery and mop orders to order center for capture&lt;/font&gt;" parent="1" vertex="1" style="shape=note;size=15;align=left;spacingLeft=10;html=1;whiteSpace=wrap;strokeColor=#666600;fillColor=none;fontSize=11;fontColor=none;opacity=50;">
          
          <mxGeometry as="geometry" height="50" width="150" y="410" x="47" />
          
        </mxCell>
        
        <mxCell id="ribgnplRl4Wd1gKBCeJ1-20" value="" parent="1" style="edgeStyle=none;endArrow=none;dashed=1;html=1;labelBackgroundColor=none;strokeColor=#666600;fontSize=25;fontColor=none;exitX=0;exitY=0;exitDx=150;exitDy=32.5;exitPerimeter=0;" edge="1">
          
          <mxGeometry as="geometry" x="1" relative="1">
            
            <mxPoint as="targetPoint" y="420" x="328" />
            
            <mxPoint as="sourcePoint" y="442.5" x="198" />
            
          </mxGeometry>
          
        </mxCell>
        
        <mxCell id="ribgnplRl4Wd1gKBCeJ1-21" value="&lt;font color=&quot;#006633&quot;&gt;iStore orders will be&amp;nbsp;delivered&amp;nbsp;to&amp;nbsp;Siebel only&amp;nbsp;&lt;/font&gt;&lt;span style=&quot;color: rgb(0 , 102 , 51)&quot;&gt;by ESB&amp;nbsp;&lt;/span&gt;&lt;font color=&quot;#006633&quot;&gt;for star&amp;nbsp;accumulation&lt;/font&gt;" parent="1" vertex="1" style="shape=note;size=15;align=left;spacingLeft=10;html=1;whiteSpace=wrap;strokeColor=#000066;fillColor=none;fontSize=11;fontColor=none;opacity=50;">
          
          <mxGeometry as="geometry" height="50" width="186" y="410" x="374" />
          
        </mxCell>
        
        <mxCell id="ribgnplRl4Wd1gKBCeJ1-22" value="" parent="1" style="edgeStyle=none;endArrow=none;dashed=1;html=1;labelBackgroundColor=none;strokeColor=#000066;fontSize=25;fontColor=none;exitX=0;exitY=0.5;exitDx=0;exitDy=0;exitPerimeter=0;" edge="1" source="ribgnplRl4Wd1gKBCeJ1-21">
          
          <mxGeometry as="geometry" x="1" relative="1">
            
            <mxPoint as="targetPoint" y="470" x="344" />
            
            <mxPoint as="sourcePoint" y="350" x="958" />
            
          </mxGeometry>
          
        </mxCell>
        
        <mxCell id="ribgnplRl4Wd1gKBCeJ1-23" value="&lt;font color=&quot;#006633&quot;&gt;Hema and SRkit will be delivered to&amp;nbsp; enterprise back-end systems by ESB&lt;/font&gt;" parent="1" vertex="1" style="shape=note;size=15;align=left;spacingLeft=10;html=1;whiteSpace=wrap;strokeColor=#000066;fillColor=none;fontSize=11;fontColor=none;opacity=50;">
          
          <mxGeometry as="geometry" height="30" width="210" y="465" x="374" />
          
        </mxCell>
        
        <mxCell id="ribgnplRl4Wd1gKBCeJ1-24" value="" parent="1" style="edgeStyle=none;endArrow=none;dashed=1;html=1;labelBackgroundColor=none;strokeColor=#000066;fontSize=25;fontColor=none;exitX=0;exitY=0.5;exitDx=0;exitDy=0;exitPerimeter=0;" edge="1" source="ribgnplRl4Wd1gKBCeJ1-23">
          
          <mxGeometry as="geometry" x="1" relative="1">
            
            <mxPoint as="targetPoint" y="490" x="348" />
            
            <mxPoint as="sourcePoint" y="360" x="968" />
            
          </mxGeometry>
          
        </mxCell>
        
        <mxCell id="ribgnplRl4Wd1gKBCeJ1-25" value="&lt;font color=&quot;#990000&quot;&gt;Distributed Order UUID Generator&amp;nbsp;&lt;br&gt;(DownStream System not Accept Order UUID)&lt;/font&gt;" parent="1" vertex="1" style="text;html=1;fontSize=11;fontColor=none;">
          
          <mxGeometry as="geometry" height="30" width="210" y="470" x="868" />
          
        </mxCell>
        
        <mxCell id="m09BGHlNN80bc4u_8TYX-6" value="" parent="1" style="edgeStyle=orthogonalEdgeStyle;rounded=0;orthogonalLoop=1;jettySize=auto;html=1;labelBackgroundColor=none;strokeColor=#994C00;fontColor=#330000;entryX=0.174;entryY=0.002;entryDx=0;entryDy=0;entryPerimeter=0;" edge="1" target="m09BGHlNN80bc4u_8TYX-24" source="m09BGHlNN80bc4u_8TYX-7">
          
          <mxGeometry as="geometry" relative="1">
            
            <mxPoint as="targetPoint" y="250" x="1506" />
            
            <Array as="points">
              
              <mxPoint y="220" x="1616" />
              
              <mxPoint y="220" x="1531" />
              
            </Array>
            
          </mxGeometry>
          
        </mxCell>
        
        <mxCell id="m09BGHlNN80bc4u_8TYX-7" value="Eleme&lt;br&gt;&amp;nbsp;Delivery" parent="1" vertex="1" style="rounded=1;whiteSpace=wrap;html=1;fillColor=#dae8fc;strokeColor=#6C8EBF;opacity=50;">
          
          <mxGeometry as="geometry" height="60" width="120" y="120" x="1556" />
          
        </mxCell>
        
        <mxCell id="m09BGHlNN80bc4u_8TYX-8" value="&lt;span style=&quot;font-weight: normal&quot;&gt;Store retail&amp;nbsp;&lt;br&gt;&lt;/span&gt;" parent="1" style="edgeStyle=orthogonalEdgeStyle;rounded=0;orthogonalLoop=1;jettySize=auto;html=1;exitX=0.5;exitY=1;exitDx=0;exitDy=0;fontStyle=1;strokeColor=#660000;" edge="1" target="m09BGHlNN80bc4u_8TYX-27" source="m09BGHlNN80bc4u_8TYX-9">
          
          <mxGeometry as="geometry" x="-0.1429" relative="1">
            
            <mxPoint as="offset" y="1" />
            
          </mxGeometry>
          
        </mxCell>
        
        <mxCell id="m09BGHlNN80bc4u_8TYX-9" value="&lt;span style=&quot;font: 12px / 1.2 &amp;#34;helvetica&amp;#34; ; color: rgb(0 , 0 , 0) ; text-transform: none ; text-indent: 0px ; letter-spacing: normal ; text-decoration: none ; word-spacing: 0px ; display: inline ; white-space: normal ; float: none ; overflow-wrap: normal ; background-color: rgb(248 , 249 , 250)&quot;&gt;In &lt;/span&gt;Store&lt;br&gt;Sales&lt;br&gt;&amp;nbsp;" parent="1" vertex="1" style="rounded=1;whiteSpace=wrap;html=1;fillColor=#f5f5f5;align=center;verticalAlign=bottom;strokeColor=#666666;fontColor=#333333;">
          
          <mxGeometry as="geometry" height="60" width="120" y="120" x="1296" />
          
        </mxCell>
        
        <mxCell id="m09BGHlNN80bc4u_8TYX-10" value="Mop" parent="1" style="edgeStyle=orthogonalEdgeStyle;rounded=0;orthogonalLoop=1;jettySize=auto;html=1;entryX=0.608;entryY=0.027;entryDx=0;entryDy=0;entryPerimeter=0;labelBackgroundColor=none;strokeColor=#666600;fontColor=#330000;" edge="1" target="m09BGHlNN80bc4u_8TYX-24" source="m09BGHlNN80bc4u_8TYX-11">
          
          <mxGeometry as="geometry" relative="1" />
          
        </mxCell>
        
        <mxCell id="m09BGHlNN80bc4u_8TYX-11" value="SBUX App&amp;nbsp;&lt;br&gt;MOP" parent="1" vertex="1" style="rounded=1;whiteSpace=wrap;html=1;fillColor=#dae8fc;strokeColor=#6C8EBF;opacity=50;">
          
          <mxGeometry as="geometry" height="60" width="120" y="120" x="1684" />
          
        </mxCell>
        
        <mxCell id="m09BGHlNN80bc4u_8TYX-12" value="" parent="1" style="edgeStyle=orthogonalEdgeStyle;rounded=0;orthogonalLoop=1;jettySize=auto;html=1;labelBackgroundColor=#FFFFFF;strokeColor=#994C00;fontColor=#330000;entryX=0.176;entryY=0.002;entryDx=0;entryDy=0;entryPerimeter=0;" edge="1">
          
          <mxGeometry as="geometry" relative="1">
            
            <mxPoint as="sourcePoint" y="180" x="1483" />
            
            <mxPoint as="targetPoint" y="250.05999999999994" x="1531.2399999999997" />
            
            <Array as="points">
              
              <mxPoint y="220" x="1483" />
              
              <mxPoint y="220" x="1531" />
              
            </Array>
            
          </mxGeometry>
          
        </mxCell>
        
        <mxCell id="m09BGHlNN80bc4u_8TYX-13" value="SBUX App&lt;br&gt;Delivery" parent="1" vertex="1" style="rounded=1;whiteSpace=wrap;html=1;fillColor=#dae8fc;strokeColor=#6C8EBF;opacity=50;">
          
          <mxGeometry as="geometry" height="60" width="120" y="120" x="1424" />
          
        </mxCell>
        
        <mxCell id="m09BGHlNN80bc4u_8TYX-14" value="Hema hidden kitchen" parent="1" style="edgeStyle=orthogonalEdgeStyle;rounded=0;orthogonalLoop=1;jettySize=auto;html=1;labelBackgroundColor=none;strokeColor=#A680B8;fontColor=#330000;entryX=0.872;entryY=-0.063;entryDx=0;entryDy=0;entryPerimeter=0;" edge="1" target="m09BGHlNN80bc4u_8TYX-24" source="m09BGHlNN80bc4u_8TYX-15">
          
          <mxGeometry as="geometry" relative="1">
            
            <Array as="points">
              
              <mxPoint y="215" x="1873" />
              
            </Array>
            
          </mxGeometry>
          
        </mxCell>
        
        <mxCell id="m09BGHlNN80bc4u_8TYX-15" value="Hema" parent="1" vertex="1" style="rounded=1;whiteSpace=wrap;html=1;fillColor=#dae8fc;strokeColor=#6C8EBF;opacity=50;">
          
          <mxGeometry as="geometry" height="60" width="120" y="120" x="1816" />
          
        </mxCell>
        
        <mxCell id="m09BGHlNN80bc4u_8TYX-16" value="iStore" parent="1" style="edgeStyle=orthogonalEdgeStyle;rounded=0;orthogonalLoop=1;jettySize=auto;html=1;labelBackgroundColor=none;strokeColor=#000066;fontColor=#330000;" edge="1" target="m09BGHlNN80bc4u_8TYX-43" source="m09BGHlNN80bc4u_8TYX-17">
          
          <mxGeometry as="geometry" relative="1">
            
            <Array as="points">
              
              <mxPoint y="200" x="2006" />
              
              <mxPoint y="200" x="2006" />
              
            </Array>
            
          </mxGeometry>
          
        </mxCell>
        
        <mxCell id="m09BGHlNN80bc4u_8TYX-17" value="iStore Tmall" parent="1" vertex="1" style="rounded=1;whiteSpace=wrap;html=1;fillColor=#dae8fc;strokeColor=#6c8ebf;opacity=50;">
          
          <mxGeometry as="geometry" height="60" width="120" y="120" x="1948" />
          
        </mxCell>
        
        <mxCell id="m09BGHlNN80bc4u_8TYX-18" value="SRkit" parent="1" style="edgeStyle=orthogonalEdgeStyle;rounded=0;orthogonalLoop=1;jettySize=auto;html=1;labelBackgroundColor=none;strokeColor=#4D9900;fontColor=#330000;" edge="1" target="m09BGHlNN80bc4u_8TYX-41" source="m09BGHlNN80bc4u_8TYX-19">
          
          <mxGeometry as="geometry" relative="1">
            
            <Array as="points">
              
              <mxPoint y="200" x="2136" />
              
              <mxPoint y="200" x="2136" />
              
            </Array>
            
          </mxGeometry>
          
        </mxCell>
        
        <mxCell id="m09BGHlNN80bc4u_8TYX-19" value="SBUX App&lt;br&gt;SRkit" parent="1" vertex="1" style="rounded=1;whiteSpace=wrap;html=1;fillColor=#dae8fc;strokeColor=#6C8EBF;opacity=50;">
          
          <mxGeometry as="geometry" height="60" width="120" y="120" x="2079" />
          
        </mxCell>
        
        <mxCell id="m09BGHlNN80bc4u_8TYX-20" value="&lt;b&gt;Conceptual of Architecture-Order Data Business Flow &lt;/b&gt;&lt;br&gt;&lt;b&gt;- &lt;/b&gt;&lt;font style=&quot;font-size: 20px&quot;&gt;Service type decoupling and data integration&lt;/font&gt;" parent="1" vertex="1" style="text;html=1;align=center;fontSize=25;">
          
          <mxGeometry as="geometry" height="40" width="850" y="30" x="1326" />
          
        </mxCell>
        
        <mxCell id="m09BGHlNN80bc4u_8TYX-21" parent="1" style="edgeStyle=orthogonalEdgeStyle;rounded=0;orthogonalLoop=1;jettySize=auto;html=1;exitX=0;exitY=0.25;exitDx=0;exitDy=0;labelBackgroundColor=#990000;strokeColor=#994C00;fontColor=#990000;" edge="1" target="m09BGHlNN80bc4u_8TYX-27" source="m09BGHlNN80bc4u_8TYX-24">
          
          <mxGeometry as="geometry" relative="1">
            
            <Array as="points">
              
              <mxPoint y="257" x="1416" />
              
              <mxPoint y="257" x="1416" />
              
            </Array>
            
          </mxGeometry>
          
        </mxCell>
        
        <mxCell id="m09BGHlNN80bc4u_8TYX-22" value="" parent="1" style="edgeStyle=orthogonalEdgeStyle;rounded=0;orthogonalLoop=1;jettySize=auto;html=1;labelBackgroundColor=#990000;strokeColor=#666600;fontColor=#990000;" edge="1" target="m09BGHlNN80bc4u_8TYX-27" source="m09BGHlNN80bc4u_8TYX-24">
          
          <mxGeometry as="geometry" relative="1" />
          
        </mxCell>
        
        <mxCell id="m09BGHlNN80bc4u_8TYX-24" value="O2O-OMS" parent="1" vertex="1" style="rounded=1;whiteSpace=wrap;html=1;fillColor=#ffe6cc;strokeColor=#d79b00;opacity=50;">
          
          <mxGeometry as="geometry" height="30" width="490" y="250" x="1446" />
          
        </mxCell>
        
        <mxCell id="m09BGHlNN80bc4u_8TYX-25" parent="1" style="edgeStyle=orthogonalEdgeStyle;rounded=0;orthogonalLoop=1;jettySize=auto;html=1;exitX=0.5;exitY=1;exitDx=0;exitDy=0;entryX=0.414;entryY=0.004;entryDx=0;entryDy=0;labelBackgroundColor=#990000;strokeColor=#660000;fontColor=#990000;entryPerimeter=0;" edge="1" target="m09BGHlNN80bc4u_8TYX-35">
          
          <mxGeometry as="geometry" relative="1">
            
            <mxPoint as="sourcePoint" y="280" x="1346" />
            
            <mxPoint as="targetPoint" y="339.9999999999999" x="1346" />
            
          </mxGeometry>
          
        </mxCell>
        
        <mxCell id="m09BGHlNN80bc4u_8TYX-26" value="" parent="1" style="edgeStyle=orthogonalEdgeStyle;rounded=0;orthogonalLoop=1;jettySize=auto;html=1;labelBackgroundColor=#990000;strokeColor=#994C00;fontColor=#990000;" edge="1" target="m09BGHlNN80bc4u_8TYX-35" source="m09BGHlNN80bc4u_8TYX-27">
          
          <mxGeometry as="geometry" relative="1" />
          
        </mxCell>
        
        <mxCell id="m09BGHlNN80bc4u_8TYX-27" value="Symphony POS" parent="1" vertex="1" style="rounded=1;whiteSpace=wrap;html=1;fillColor=#f5f5f5;strokeColor=#666666;fontColor=#333333;">
          
          <mxGeometry as="geometry" height="30" width="120" y="250" x="1296" />
          
        </mxCell>
        
        <mxCell id="m09BGHlNN80bc4u_8TYX-28" parent="1" style="edgeStyle=orthogonalEdgeStyle;rounded=0;orthogonalLoop=1;jettySize=auto;html=1;exitX=1;exitY=0.75;exitDx=0;exitDy=0;entryX=0;entryY=0.75;entryDx=0;entryDy=0;labelBackgroundColor=#990000;strokeColor=#660000;fontColor=#990000;" edge="1">
          
          <mxGeometry as="geometry" relative="1">
            
            <mxPoint as="sourcePoint" y="435.5" x="1416" />
            
            <mxPoint as="targetPoint" y="435.5" x="1446" />
            
          </mxGeometry>
          
        </mxCell>
        
        <mxCell id="m09BGHlNN80bc4u_8TYX-29" parent="1" style="edgeStyle=orthogonalEdgeStyle;rounded=0;orthogonalLoop=1;jettySize=auto;html=1;entryX=0.5;entryY=0;entryDx=0;entryDy=0;labelBackgroundColor=none;strokeColor=#330000;fontSize=11;fontColor=none;exitX=0.5;exitY=1;exitDx=0;exitDy=0;" edge="1" target="m09BGHlNN80bc4u_8TYX-44" source="m09BGHlNN80bc4u_8TYX-35">
          
          <mxGeometry as="geometry" relative="1" />
          
        </mxCell>
        
        <mxCell id="m09BGHlNN80bc4u_8TYX-30" parent="1" style="edgeStyle=orthogonalEdgeStyle;rounded=0;orthogonalLoop=1;jettySize=auto;html=1;exitX=0.5;exitY=1;exitDx=0;exitDy=0;entryX=0.5;entryY=0;entryDx=0;entryDy=0;labelBackgroundColor=none;strokeColor=#330000;fontSize=11;fontColor=none;" edge="1" target="m09BGHlNN80bc4u_8TYX-45" source="m09BGHlNN80bc4u_8TYX-35">
          
          <mxGeometry as="geometry" relative="1" />
          
        </mxCell>
        
        <mxCell id="m09BGHlNN80bc4u_8TYX-31" parent="1" style="edgeStyle=orthogonalEdgeStyle;rounded=0;orthogonalLoop=1;jettySize=auto;html=1;exitX=0.5;exitY=1;exitDx=0;exitDy=0;entryX=0.5;entryY=0;entryDx=0;entryDy=0;labelBackgroundColor=none;strokeColor=#330000;fontSize=11;fontColor=none;" edge="1" target="m09BGHlNN80bc4u_8TYX-47" source="m09BGHlNN80bc4u_8TYX-35">
          
          <mxGeometry as="geometry" relative="1" />
          
        </mxCell>
        
        <mxCell id="m09BGHlNN80bc4u_8TYX-33" parent="1" style="edgeStyle=orthogonalEdgeStyle;rounded=0;orthogonalLoop=1;jettySize=auto;html=1;exitX=0.5;exitY=1;exitDx=0;exitDy=0;entryX=0;entryY=0.5;entryDx=0;entryDy=0;labelBackgroundColor=none;strokeColor=#330000;fontSize=11;fontColor=none;" edge="1" target="m09BGHlNN80bc4u_8TYX-49" source="m09BGHlNN80bc4u_8TYX-35">
          
          <mxGeometry as="geometry" relative="1" />
          
        </mxCell>
        
        <mxCell id="m09BGHlNN80bc4u_8TYX-34" parent="1" style="edgeStyle=orthogonalEdgeStyle;rounded=0;orthogonalLoop=1;jettySize=auto;html=1;exitX=0.5;exitY=1;exitDx=0;exitDy=0;entryX=0.5;entryY=0;entryDx=0;entryDy=0;labelBackgroundColor=none;strokeColor=#330000;fontSize=11;fontColor=none;" edge="1" target="m09BGHlNN80bc4u_8TYX-39" source="m09BGHlNN80bc4u_8TYX-35">
          
          <mxGeometry as="geometry" relative="1" />
          
        </mxCell>
        
        <mxCell id="m09BGHlNN80bc4u_8TYX-35" value="ESB" parent="1" vertex="1" style="rounded=1;whiteSpace=wrap;html=1;fillColor=#ffe6cc;strokeColor=#d79b00;opacity=50;">
          
          <mxGeometry as="geometry" height="110" width="120" y="400" x="1296" />
          
        </mxCell>
        
        <mxCell id="m09BGHlNN80bc4u_8TYX-36" value="" parent="1" style="edgeStyle=orthogonalEdgeStyle;rounded=0;orthogonalLoop=1;jettySize=auto;html=1;labelBackgroundColor=none;strokeColor=#A680B8;fontSize=11;fontColor=none;" edge="1">
          
          <mxGeometry as="geometry" relative="1">
            
            <mxPoint as="sourcePoint" y="481" x="1446" />
            
            <mxPoint as="targetPoint" y="481" x="1416" />
            
          </mxGeometry>
          
        </mxCell>
        
        <mxCell id="m09BGHlNN80bc4u_8TYX-37" parent="1" style="edgeStyle=orthogonalEdgeStyle;rounded=0;orthogonalLoop=1;jettySize=auto;html=1;exitX=0;exitY=0.75;exitDx=0;exitDy=0;entryX=1;entryY=0.75;entryDx=0;entryDy=0;labelBackgroundColor=none;strokeColor=#4D9900;fontSize=11;fontColor=none;" edge="1">
          
          <mxGeometry as="geometry" relative="1">
            
            <mxPoint as="sourcePoint" y="489.5" x="1446" />
            
            <mxPoint as="targetPoint" y="489.5" x="1416" />
            
          </mxGeometry>
          
        </mxCell>
        
        <mxCell id="m09BGHlNN80bc4u_8TYX-38" value="&lt;font style=&quot;font-size: 23px&quot;&gt;Order Center in Middle layer&lt;/font&gt;" parent="1" vertex="1" style="rounded=1;whiteSpace=wrap;html=1;fillColor=#d5e8d4;strokeColor=#82b366;opacity=50;">
          
          <mxGeometry as="geometry" height="110" width="750" y="400" x="1446" />
          
        </mxCell>
        
        <mxCell id="m09BGHlNN80bc4u_8TYX-39" value="BOH" parent="1" vertex="1" style="rounded=1;whiteSpace=wrap;html=1;fillColor=#ffe6cc;strokeColor=#d79b00;opacity=50;">
          
          <mxGeometry as="geometry" height="30" width="130" y="560" x="1446" />
          
        </mxCell>
        
        <mxCell id="m09BGHlNN80bc4u_8TYX-40" value="" parent="1" style="edgeStyle=orthogonalEdgeStyle;rounded=0;orthogonalLoop=1;jettySize=auto;html=1;labelBackgroundColor=#990000;strokeColor=#4D9900;fontColor=#990000;" edge="1" target="m09BGHlNN80bc4u_8TYX-38" source="m09BGHlNN80bc4u_8TYX-41">
          
          <mxGeometry as="geometry" relative="1">
            
            <Array as="points">
              
              <mxPoint y="370" x="2136" />
              
              <mxPoint y="370" x="2136" />
              
            </Array>
            
          </mxGeometry>
          
        </mxCell>
        
        <mxCell id="m09BGHlNN80bc4u_8TYX-41" value="App Digital OMS" parent="1" vertex="1" style="rounded=1;whiteSpace=wrap;html=1;fillColor=#ffe6cc;strokeColor=#d79b00;opacity=50;">
          
          <mxGeometry as="geometry" height="30" width="120" y="250" x="2076" />
          
        </mxCell>
        
        <mxCell id="m09BGHlNN80bc4u_8TYX-42" value="" parent="1" style="edgeStyle=orthogonalEdgeStyle;rounded=0;orthogonalLoop=1;jettySize=auto;html=1;labelBackgroundColor=#990000;strokeColor=#000066;fontColor=#990000;" edge="1" target="m09BGHlNN80bc4u_8TYX-38" source="m09BGHlNN80bc4u_8TYX-43">
          
          <mxGeometry as="geometry" relative="1">
            
            <Array as="points">
              
              <mxPoint y="330" x="2006" />
              
              <mxPoint y="330" x="2006" />
              
            </Array>
            
          </mxGeometry>
          
        </mxCell>
        
        <mxCell id="m09BGHlNN80bc4u_8TYX-43" value="Taobao open platform" parent="1" vertex="1" style="rounded=1;whiteSpace=wrap;html=1;fillColor=#dae8fc;strokeColor=#6C8EBF;opacity=50;">
          
          <mxGeometry as="geometry" height="30" width="120" y="250" x="1946" />
          
        </mxCell>
        
        <mxCell id="m09BGHlNN80bc4u_8TYX-44" value="HEX" parent="1" vertex="1" style="rounded=1;whiteSpace=wrap;html=1;fillColor=#ffe6cc;strokeColor=#d79b00;opacity=50;">
          
          <mxGeometry as="geometry" height="30" width="130" y="560" x="1596" />
          
        </mxCell>
        
        <mxCell id="m09BGHlNN80bc4u_8TYX-45" value="Siebel" parent="1" vertex="1" style="rounded=1;whiteSpace=wrap;html=1;fillColor=#ffe6cc;strokeColor=#d79b00;opacity=50;">
          
          <mxGeometry as="geometry" height="30" width="130" y="560" x="1746" />
          
        </mxCell>
        
        <mxCell id="m09BGHlNN80bc4u_8TYX-46" parent="1" style="edgeStyle=orthogonalEdgeStyle;rounded=0;orthogonalLoop=1;jettySize=auto;html=1;exitX=0.5;exitY=1;exitDx=0;exitDy=0;entryX=0.5;entryY=0;entryDx=0;entryDy=0;labelBackgroundColor=none;strokeColor=#330000;fontSize=11;fontColor=none;" edge="1" target="m09BGHlNN80bc4u_8TYX-49" source="m09BGHlNN80bc4u_8TYX-47">
          
          <mxGeometry as="geometry" relative="1" />
          
        </mxCell>
        
        <mxCell id="m09BGHlNN80bc4u_8TYX-47" value="URP" parent="1" vertex="1" style="rounded=1;whiteSpace=wrap;html=1;fillColor=#ffe6cc;strokeColor=#d79b00;opacity=50;">
          
          <mxGeometry as="geometry" height="30" width="130" y="560" x="1899" />
          
        </mxCell>
        
        <mxCell id="m09BGHlNN80bc4u_8TYX-48" value="BI" parent="1" vertex="1" style="rounded=1;whiteSpace=wrap;html=1;fillColor=#ffe6cc;strokeColor=#d79b00;opacity=50;">
          
          <mxGeometry as="geometry" height="30" width="140" y="630" x="2066" />
          
        </mxCell>
        
        <mxCell id="m09BGHlNN80bc4u_8TYX-49" value="SAT" parent="1" vertex="1" style="rounded=1;whiteSpace=wrap;html=1;fillColor=#ffe6cc;strokeColor=#d79b00;opacity=50;">
          
          <mxGeometry as="geometry" height="30" width="130" y="630" x="1899" />
          
        </mxCell>
        
        <mxCell id="m09BGHlNN80bc4u_8TYX-50" parent="1" style="edgeStyle=orthogonalEdgeStyle;rounded=0;orthogonalLoop=1;jettySize=auto;html=1;labelBackgroundColor=#990000;strokeColor=#666600;fontColor=#990000;entryX=0.583;entryY=0.009;entryDx=0;entryDy=0;entryPerimeter=0;exitX=0.583;exitY=1.065;exitDx=0;exitDy=0;exitPerimeter=0;" edge="1">
          
          <mxGeometry as="geometry" relative="1">
            
            <mxPoint as="sourcePoint" y="280.9499999999998" x="1365.96" />
            
            <mxPoint as="targetPoint" y="399.99" x="1365.96" />
            
            <Array as="points" />
            
          </mxGeometry>
          
        </mxCell>
        
        <mxCell id="m09BGHlNN80bc4u_8TYX-51" value="" parent="1" style="edgeStyle=orthogonalEdgeStyle;rounded=0;orthogonalLoop=1;jettySize=auto;html=1;labelBackgroundColor=#990000;strokeColor=#994C00;fontColor=#990000;exitX=0.997;exitY=0.684;exitDx=0;exitDy=0;exitPerimeter=0;entryX=-0.001;entryY=0.669;entryDx=0;entryDy=0;entryPerimeter=0;" edge="1">
          
          <mxGeometry as="geometry" relative="1">
            
            <mxPoint as="sourcePoint" y="428.2399999999998" x="1415.6399999999998" />
            
            <mxPoint as="targetPoint" y="426.5899999999999" x="1445.25" />
            
            <Array as="points">
              
              <mxPoint y="427" x="1416" />
              
              <mxPoint y="427" x="1426" />
              
            </Array>
            
          </mxGeometry>
          
        </mxCell>
        
        <mxCell id="m09BGHlNN80bc4u_8TYX-52" parent="1" style="edgeStyle=orthogonalEdgeStyle;rounded=0;orthogonalLoop=1;jettySize=auto;html=1;labelBackgroundColor=#990000;strokeColor=#666600;fontColor=#990000;exitX=0.999;exitY=0.582;exitDx=0;exitDy=0;exitPerimeter=0;entryX=-0.001;entryY=0.582;entryDx=0;entryDy=0;entryPerimeter=0;" edge="1">
          
          <mxGeometry as="geometry" relative="1">
            
            <mxPoint as="sourcePoint" y="417.02" x="1415.88" />
            
            <mxPoint as="targetPoint" y="417.02" x="1445.25" />
            
            <Array as="points" />
            
          </mxGeometry>
          
        </mxCell>
        
        <mxCell id="m09BGHlNN80bc4u_8TYX-53" value="&lt;span style=&quot;color: rgb(0 , 102 , 51)&quot;&gt;The delivery and mop orders to POS&lt;/span&gt;" parent="1" vertex="1" style="shape=note;size=15;align=left;spacingLeft=10;html=1;whiteSpace=wrap;strokeColor=#666600;fillColor=none;fontSize=11;fontColor=none;opacity=50;">
          
          <mxGeometry as="geometry" height="50" width="100" y="200" x="1186" />
          
        </mxCell>
        
        <mxCell id="m09BGHlNN80bc4u_8TYX-54" value="" parent="1" style="edgeStyle=none;endArrow=none;exitX=1;exitY=1;dashed=1;html=1;labelBackgroundColor=none;strokeColor=#666600;fontSize=25;fontColor=none;exitDx=0;exitDy=0;exitPerimeter=0;entryX=0;entryY=0.5;entryDx=0;entryDy=0;" edge="1" target="m09BGHlNN80bc4u_8TYX-24" source="m09BGHlNN80bc4u_8TYX-53">
          
          <mxGeometry as="geometry" x="1" relative="1">
            
            <mxPoint as="targetPoint" y="270" x="1436" />
            
          </mxGeometry>
          
        </mxCell>
        
        <mxCell id="m09BGHlNN80bc4u_8TYX-55" value="&lt;span style=&quot;color: rgb(0 , 102 , 51)&quot;&gt;Store retail, delivery and mop orders to ESB. ESB will deliver to enterprise back-end systems and import to order center for order capture.&lt;/span&gt;" parent="1" vertex="1" style="shape=note;size=15;align=left;spacingLeft=10;html=1;whiteSpace=wrap;strokeColor=#666600;fillColor=none;fontSize=11;fontColor=none;opacity=50;">
          
          <mxGeometry as="geometry" height="160" width="100" y="290" x="1186" />
          
        </mxCell>
        
        <mxCell id="m09BGHlNN80bc4u_8TYX-56" value="&lt;span style=&quot;display: inline ; float: none ; background-color: rgb(248 , 249 , 250) ; color: rgb(51 , 0 , 0) ; font-family: &amp;#34;helvetica&amp;#34; ; font-size: 11px ; font-style: normal ; font-variant: normal ; font-weight: normal ; letter-spacing: normal ; line-height: 1.2 ; overflow-wrap: normal ; text-align: center ; text-decoration: none ; text-indent: 0px ; text-transform: none ; white-space: nowrap ; word-spacing: 0px&quot;&gt;Delivery&lt;/span&gt;" parent="1" vertex="1" style="text;html=1;strokeColor=none;fillColor=none;align=center;verticalAlign=middle;whiteSpace=wrap;rounded=0;fontSize=11;fontColor=none;opacity=50;">
          
          <mxGeometry as="geometry" height="20" width="40" y="200" x="1506" />
          
        </mxCell>
        
        <mxCell id="m09BGHlNN80bc4u_8TYX-57" value="" parent="1" vertex="1" style="rounded=1;whiteSpace=wrap;html=1;fillColor=#fff2cc;strokeColor=#d6b656;opacity=50;">
          
          <mxGeometry as="geometry" height="20" width="30" y="690" x="1296" />
          
        </mxCell>
        
        <mxCell id="m09BGHlNN80bc4u_8TYX-58" value="" parent="1" vertex="1" style="rounded=1;whiteSpace=wrap;html=1;fillColor=#dae8fc;strokeColor=#6c8ebf;opacity=50;">
          
          <mxGeometry as="geometry" height="20" width="30" y="720" x="1296" />
          
        </mxCell>
        
        <mxCell id="m09BGHlNN80bc4u_8TYX-59" value="" parent="1" vertex="1" style="rounded=1;whiteSpace=wrap;html=1;fillColor=#d5e8d4;strokeColor=#82b366;opacity=50;">
          
          <mxGeometry as="geometry" height="20" width="30" y="750" x="1296" />
          
        </mxCell>
        
        <mxCell id="m09BGHlNN80bc4u_8TYX-60" value="" parent="1" vertex="1" style="rounded=1;whiteSpace=wrap;html=1;fillColor=#f5f5f5;strokeColor=#666666;opacity=50;fontColor=#333333;">
          
          <mxGeometry as="geometry" height="20" width="30" y="780" x="1296" />
          
        </mxCell>
        
        <mxCell id="m09BGHlNN80bc4u_8TYX-61" value="Existing system deployed in IDC" parent="1" vertex="1" style="text;html=1;strokeColor=none;fillColor=none;align=left;verticalAlign=middle;whiteSpace=wrap;rounded=0;fontSize=11;fontColor=none;opacity=50;">
          
          <mxGeometry as="geometry" height="20" width="180" y="690" x="1346" />
          
        </mxCell>
        
        <mxCell id="m09BGHlNN80bc4u_8TYX-62" value="External system" parent="1" vertex="1" style="text;html=1;strokeColor=none;fillColor=none;align=left;verticalAlign=middle;whiteSpace=wrap;rounded=0;fontSize=11;fontColor=none;opacity=50;">
          
          <mxGeometry as="geometry" height="20" width="180" y="720" x="1346" />
          
        </mxCell>
        
        <mxCell id="m09BGHlNN80bc4u_8TYX-63" value="Business center in middle layer deployed in Azure&amp;nbsp;" parent="1" vertex="1" style="text;html=1;strokeColor=none;fillColor=none;align=left;verticalAlign=middle;whiteSpace=wrap;rounded=0;fontSize=11;fontColor=none;opacity=50;">
          
          <mxGeometry as="geometry" height="28.89" width="280" y="750" x="1346" />
          
        </mxCell>
        
        <mxCell id="m09BGHlNN80bc4u_8TYX-64" value="Store scenario or iStore system" parent="1" vertex="1" style="text;html=1;strokeColor=none;fillColor=none;align=left;verticalAlign=middle;whiteSpace=wrap;rounded=0;fontSize=11;fontColor=none;opacity=50;">
          
          <mxGeometry as="geometry" height="28.89" width="260" y="776" x="1346" />
          
        </mxCell>
        
        <mxCell id="m09BGHlNN80bc4u_8TYX-65" value="" parent="1" style="edgeStyle=none;endArrow=none;exitX=1.007;exitY=0.232;dashed=1;html=1;labelBackgroundColor=none;strokeColor=#666600;fontSize=25;fontColor=none;exitDx=0;exitDy=0;exitPerimeter=0;" edge="1" source="m09BGHlNN80bc4u_8TYX-55">
          
          <mxGeometry as="geometry" x="1" relative="1">
            
            <mxPoint as="targetPoint" y="320" x="1346" />
            
            <mxPoint as="sourcePoint" y="299.9999999999999" x="1484" />
            
          </mxGeometry>
          
        </mxCell>
        
        <mxCell id="m09BGHlNN80bc4u_8TYX-66" value="&lt;span style=&quot;color: rgb(0 , 102 , 51)&quot;&gt;Store retail, delivery, mop, hema and SRkit orders are delivered to enterprise back-end systems&lt;/span&gt;" parent="1" vertex="1" style="shape=note;size=15;align=left;spacingLeft=10;html=1;whiteSpace=wrap;strokeColor=#666600;fillColor=none;fontSize=11;fontColor=none;opacity=50;">
          
          <mxGeometry as="geometry" height="110" width="100" y="650" x="1190" />
          
        </mxCell>
        
        <mxCell id="m09BGHlNN80bc4u_8TYX-67" value="" parent="1" style="edgeStyle=none;endArrow=none;exitX=0;exitY=0;dashed=1;html=1;labelBackgroundColor=none;strokeColor=#666600;fontSize=25;fontColor=none;exitDx=67.5;exitDy=0;exitPerimeter=0;" edge="1" source="m09BGHlNN80bc4u_8TYX-66">
          
          <mxGeometry as="geometry" x="1" relative="1">
            
            <mxPoint as="targetPoint" y="530" x="1356" />
            
            <mxPoint as="sourcePoint" y="489.9999999999999" x="1544" />
            
          </mxGeometry>
          
        </mxCell>
        
        <mxCell id="m09BGHlNN80bc4u_8TYX-68" value="&lt;b&gt;&lt;font color=&quot;#cc6600&quot;&gt;Store retail order to order center for capture, delivery and mop order need to be consolidated.&lt;/font&gt;&lt;/b&gt;" parent="1" vertex="1" style="shape=note;size=15;align=left;spacingLeft=10;html=1;whiteSpace=wrap;strokeColor=#666600;fillColor=none;fontSize=11;fontColor=none;opacity=50;">
          
          <mxGeometry as="geometry" height="130" width="100" y="460" x="1187" />
          
        </mxCell>
        
        <mxCell id="m09BGHlNN80bc4u_8TYX-69" value="" parent="1" style="edgeStyle=none;endArrow=none;dashed=1;html=1;labelBackgroundColor=none;strokeColor=#666600;fontSize=25;fontColor=none;exitX=0;exitY=0;exitDx=100;exitDy=15;exitPerimeter=0;" edge="1" source="m09BGHlNN80bc4u_8TYX-68">
          
          <mxGeometry as="geometry" x="1" relative="1">
            
            <mxPoint as="targetPoint" y="420" x="1416" />
            
            <mxPoint as="sourcePoint" y="390" x="1456" />
            
          </mxGeometry>
          
        </mxCell>
        
        <mxCell id="m09BGHlNN80bc4u_8TYX-72" value="&lt;b&gt;&lt;font color=&quot;#cc6600&quot;&gt;Consolidated d&lt;/font&gt;&lt;/b&gt;&lt;b&gt;&lt;font color=&quot;#cc6600&quot;&gt;elivery/mop, hema and SRkit orders will be delivered to enterprise back-end systems.&amp;nbsp;&lt;/font&gt;&lt;/b&gt;" parent="1" vertex="1" style="shape=note;size=15;align=left;spacingLeft=10;html=1;whiteSpace=wrap;strokeColor=#000066;fillColor=none;fontSize=11;fontColor=none;opacity=50;">
          
          <mxGeometry as="geometry" height="50" width="210" y="470" x="1466" />
          
        </mxCell>
        
        <mxCell id="m09BGHlNN80bc4u_8TYX-73" value="" parent="1" style="edgeStyle=none;endArrow=none;dashed=1;html=1;labelBackgroundColor=none;strokeColor=#000066;fontSize=25;fontColor=none;exitX=0;exitY=0.5;exitDx=0;exitDy=0;exitPerimeter=0;" edge="1" source="m09BGHlNN80bc4u_8TYX-72">
          
          <mxGeometry as="geometry" x="1" relative="1">
            
            <mxPoint as="targetPoint" y="490" x="1436" />
            
            <mxPoint as="sourcePoint" y="360" x="2056" />
            
          </mxGeometry>
          
        </mxCell>
        
        <mxCell id="m09BGHlNN80bc4u_8TYX-74" value="&lt;font color=&quot;#990000&quot;&gt;Distributed Order UUID Generator&amp;nbsp;&lt;br&gt;(DownStream System not Accept Order UUID)&lt;/font&gt;" parent="1" vertex="1" style="text;html=1;fontSize=11;fontColor=none;">
          
          <mxGeometry as="geometry" height="30" width="210" y="470" x="1956" />
          
        </mxCell>
        
        <mxCell id="m09BGHlNN80bc4u_8TYX-76" value="Data Pipeline/StreamSets" parent="1" vertex="1" style="rounded=1;whiteSpace=wrap;html=1;fillColor=#e1d5e7;strokeColor=#9673a6;opacity=50;">
          
          <mxGeometry as="geometry" height="30" width="130" y="560" x="2066" />
          
        </mxCell>
        
        <mxCell id="m09BGHlNN80bc4u_8TYX-81" value="" parent="1" vertex="1" style="rounded=1;whiteSpace=wrap;html=1;fillColor=#e1d5e7;strokeColor=#9673a6;opacity=50;">
          
          <mxGeometry as="geometry" height="20" width="30" y="780" x="1646" />
          
        </mxCell>
        
        <mxCell id="m09BGHlNN80bc4u_8TYX-82" value="New data integration product deployed in IDC&amp;nbsp;" parent="1" vertex="1" style="text;html=1;strokeColor=none;fillColor=none;align=left;verticalAlign=middle;whiteSpace=wrap;rounded=0;fontSize=11;fontColor=none;opacity=50;">
          
          <mxGeometry as="geometry" height="20" width="260" y="778" x="1696" />
          
        </mxCell>
        
        <mxCell id="m09BGHlNN80bc4u_8TYX-84" value="" parent="1" style="edgeStyle=orthogonalEdgeStyle;rounded=0;orthogonalLoop=1;jettySize=auto;html=1;labelBackgroundColor=#990000;strokeColor=#99004D;fontColor=#990000;exitX=0.5;exitY=1;exitDx=0;exitDy=0;" edge="1" source="m09BGHlNN80bc4u_8TYX-76">
          
          <mxGeometry as="geometry" relative="1">
            
            <Array as="points">
              
              <mxPoint y="630" x="2131" />
              
            </Array>
            
            <mxPoint as="sourcePoint" y="587.98" x="2145.5000000000004" />
            
            <mxPoint as="targetPoint" y="630" x="2131" />
            
          </mxGeometry>
          
        </mxCell>
        
        <mxCell id="m09BGHlNN80bc4u_8TYX-85" value="" parent="1" style="edgeStyle=orthogonalEdgeStyle;rounded=0;orthogonalLoop=1;jettySize=auto;html=1;labelBackgroundColor=#990000;strokeColor=#99004D;fontColor=#990000;exitX=0.913;exitY=0.999;exitDx=0;exitDy=0;exitPerimeter=0;entryX=0.5;entryY=0;entryDx=0;entryDy=0;" edge="1" target="m09BGHlNN80bc4u_8TYX-76" source="m09BGHlNN80bc4u_8TYX-38">
          
          <mxGeometry as="geometry" relative="1">
            
            <Array as="points">
              
              <mxPoint y="554" x="2131" />
              
              <mxPoint y="554" x="2131" />
              
            </Array>
            
            <mxPoint as="sourcePoint" y="514" x="2131" />
            
            <mxPoint as="targetPoint" y="554" x="2131" />
            
          </mxGeometry>
          
        </mxCell>
        
        <mxCell id="m09BGHlNN80bc4u_8TYX-86" value="&lt;font size=&quot;1&quot; color=&quot;#0066cc&quot;&gt;&lt;b&gt;Store retail, delivery, mop, hema, iStore and SRkit orders with fixed structure from order center&lt;/b&gt;&lt;/font&gt;" parent="1" vertex="1" style="shape=note;size=15;align=left;spacingLeft=10;html=1;whiteSpace=wrap;strokeColor=#000066;fillColor=none;fontSize=11;fontColor=none;opacity=50;">
          
          <mxGeometry as="geometry" height="120" width="104" y="410" x="2216" />
          
        </mxCell>
        
        <mxCell id="m09BGHlNN80bc4u_8TYX-87" value="" parent="1" style="edgeStyle=none;endArrow=none;dashed=1;html=1;labelBackgroundColor=none;strokeColor=#000066;fontSize=25;fontColor=none;exitX=0;exitY=0.5;exitDx=0;exitDy=0;exitPerimeter=0;" edge="1" source="m09BGHlNN80bc4u_8TYX-86">
          
          <mxGeometry as="geometry" x="1" relative="1">
            
            <mxPoint as="targetPoint" y="540" x="2136" />
            
            <mxPoint as="sourcePoint" y="510" x="2236" />
            
          </mxGeometry>
          
        </mxCell>
        
        <mxCell id="m09BGHlNN80bc4u_8TYX-90" value="&lt;b&gt;&lt;font color=&quot;#0066cc&quot;&gt;Export to HDFS or other data storage&lt;/font&gt;&lt;/b&gt;" parent="1" vertex="1" style="shape=note;size=15;align=left;spacingLeft=10;html=1;whiteSpace=wrap;strokeColor=#000066;fillColor=none;fontSize=11;fontColor=none;opacity=50;">
          
          <mxGeometry as="geometry" height="60" width="104" y="570" x="2216" />
          
        </mxCell>
        
        <mxCell id="m09BGHlNN80bc4u_8TYX-91" value="" parent="1" style="edgeStyle=none;endArrow=none;dashed=1;html=1;labelBackgroundColor=none;strokeColor=#000066;fontSize=25;fontColor=none;exitX=0;exitY=0.5;exitDx=0;exitDy=0;exitPerimeter=0;" edge="1" source="m09BGHlNN80bc4u_8TYX-90">
          
          <mxGeometry as="geometry" x="1" relative="1">
            
            <mxPoint as="targetPoint" y="620" x="2136" />
            
            <mxPoint as="sourcePoint" y="590" x="2236" />
            
          </mxGeometry>
          
        </mxCell>
        
        <mxCell id="m09BGHlNN80bc4u_8TYX-92" value="" parent="1" style="edgeStyle=orthogonalEdgeStyle;rounded=0;orthogonalLoop=1;jettySize=auto;html=1;labelBackgroundColor=#990000;strokeColor=#CC6600;fontColor=#990000;exitX=0.867;exitY=1;exitDx=0;exitDy=0;exitPerimeter=0;" edge="1">
          
          <mxGeometry as="geometry" relative="1">
            
            <Array as="points">
              
              <mxPoint y="360" x="1873.2" />
              
              <mxPoint y="360" x="1873.2" />
              
            </Array>
            
            <mxPoint as="sourcePoint" y="280" x="1873.03" />
            
            <mxPoint as="targetPoint" y="400" x="1873.0000000000002" />
            
          </mxGeometry>
          
        </mxCell>
        
        <mxCell id="m09BGHlNN80bc4u_8TYX-95" value="&lt;font color=&quot;#cc6600&quot;&gt;&lt;b&gt;Delivery, mop and hema rders captured by order center to enable the&amp;nbsp;&lt;/b&gt;&lt;span style=&quot;font-size: 11px&quot;&gt;&lt;b&gt;capabilities:&amp;nbsp;&lt;/b&gt;&lt;/span&gt;&lt;b&gt;consistency and &lt;/b&gt;&lt;span style=&quot;font-size: 11px&quot;&gt;&lt;b&gt;consolidation&lt;/b&gt;&lt;/span&gt;&lt;br&gt;&lt;b&gt;&amp;nbsp;&lt;/b&gt;&lt;/font&gt;" parent="1" vertex="1" style="shape=note;size=15;align=left;spacingLeft=10;html=1;whiteSpace=wrap;strokeColor=#000066;fillColor=none;fontSize=11;fontColor=none;opacity=50;verticalAlign=top;">
          
          <mxGeometry as="geometry" height="80" width="180" y="290" x="2140" />
          
        </mxCell>
        
        <mxCell id="m09BGHlNN80bc4u_8TYX-96" value="" parent="1" style="edgeStyle=none;endArrow=none;dashed=1;html=1;labelBackgroundColor=none;strokeColor=#000066;fontSize=25;fontColor=none;exitX=0;exitY=0.5;exitDx=0;exitDy=0;exitPerimeter=0;" edge="1" source="m09BGHlNN80bc4u_8TYX-95">
          
          <mxGeometry as="geometry" x="1" relative="1">
            
            <mxPoint as="targetPoint" y="400" x="1876" />
            
            <mxPoint as="sourcePoint" y="350" x="1846" />
            
          </mxGeometry>
          
        </mxCell>
        
        <mxCell id="m09BGHlNN80bc4u_8TYX-97" value="" parent="1" style="edgeStyle=orthogonalEdgeStyle;rounded=0;orthogonalLoop=1;jettySize=auto;html=1;labelBackgroundColor=#990000;strokeColor=#666600;fontColor=#990000;entryX=1.003;entryY=0.582;entryDx=0;entryDy=0;entryPerimeter=0;" edge="1">
          
          <mxGeometry as="geometry" relative="1">
            
            <mxPoint as="sourcePoint" y="463" x="1446" />
            
            <mxPoint as="targetPoint" y="463.02" x="1416.36" />
            
            <Array as="points">
              
              <mxPoint y="463" x="1446" />
              
            </Array>
            
          </mxGeometry>
          
        </mxCell>
        
        <mxCell id="m09BGHlNN80bc4u_8TYX-98" value="" parent="1" style="edgeStyle=orthogonalEdgeStyle;rounded=0;orthogonalLoop=1;jettySize=auto;html=1;labelBackgroundColor=#990000;strokeColor=#994C00;fontColor=#990000;entryX=1.003;entryY=0.582;entryDx=0;entryDy=0;entryPerimeter=0;" edge="1">
          
          <mxGeometry as="geometry" relative="1">
            
            <mxPoint as="sourcePoint" y="472" x="1446" />
            
            <mxPoint as="targetPoint" y="472.02" x="1416.36" />
            
            <Array as="points">
              
              <mxPoint y="472" x="1446" />
              
            </Array>
            
          </mxGeometry>
          
        </mxCell>
        
        <mxCell id="SXBMWEN36kBR7Q0c9kt5-1" value="" parent="1" style="edgeStyle=orthogonalEdgeStyle;rounded=0;orthogonalLoop=1;jettySize=auto;html=1;labelBackgroundColor=none;strokeColor=#000066;fontSize=11;fontColor=none;" edge="1">
          
          <mxGeometry as="geometry" relative="1">
            
            <mxPoint as="sourcePoint" y="471" x="357" />
            
            <mxPoint as="targetPoint" y="471" x="327" />
            
          </mxGeometry>
          
        </mxCell>
        
        <mxCell id="SXBMWEN36kBR7Q0c9kt5-2" value="" parent="1" style="edgeStyle=orthogonalEdgeStyle;rounded=0;orthogonalLoop=1;jettySize=auto;html=1;labelBackgroundColor=#990000;strokeColor=#000066;fontColor=#990000;entryX=1.003;entryY=0.582;entryDx=0;entryDy=0;entryPerimeter=0;" edge="1">
          
          <mxGeometry as="geometry" relative="1">
            
            <mxPoint as="sourcePoint" y="455" x="1446" />
            
            <mxPoint as="targetPoint" y="455.02" x="1416.3599999999996" />
            
            <Array as="points">
              
              <mxPoint y="455" x="1446" />
              
            </Array>
            
          </mxGeometry>
          
        </mxCell>
        
        <mxCell id="SXBMWEN36kBR7Q0c9kt5-3" value="&lt;font color=&quot;#006633&quot;&gt;iStore orders will be&amp;nbsp;delivered&amp;nbsp;to&amp;nbsp;Siebel only&amp;nbsp;&lt;/font&gt;&lt;span style=&quot;color: rgb(0 , 102 , 51)&quot;&gt;by ESB&amp;nbsp;&lt;/span&gt;&lt;font color=&quot;#006633&quot;&gt;for star&amp;nbsp;accumulation&lt;/font&gt;" parent="1" vertex="1" style="shape=note;size=15;align=left;spacingLeft=10;html=1;whiteSpace=wrap;strokeColor=#000066;fillColor=none;fontSize=11;fontColor=none;opacity=50;">
          
          <mxGeometry as="geometry" height="60" width="160" y="400" x="1490" />
          
        </mxCell>
        
        <mxCell id="SXBMWEN36kBR7Q0c9kt5-4" value="" parent="1" style="edgeStyle=none;endArrow=none;dashed=1;html=1;labelBackgroundColor=none;strokeColor=#000066;fontSize=25;fontColor=none;exitX=0;exitY=0.5;exitDx=0;exitDy=0;exitPerimeter=0;entryX=0;entryY=0.5;entryDx=0;entryDy=0;" edge="1" target="m09BGHlNN80bc4u_8TYX-38" source="SXBMWEN36kBR7Q0c9kt5-3">
          
          <mxGeometry as="geometry" x="1" relative="1">
            
            <mxPoint as="targetPoint" y="470" x="1459.9999999999997" />
            
            <mxPoint as="sourcePoint" y="350" x="2074" />
            
          </mxGeometry>
          
        </mxCell>
        
        <mxCell id="SXBMWEN36kBR7Q0c9kt5-5" value="" parent="1" vertex="1" style="rounded=1;whiteSpace=wrap;html=1;fillColor=#CC6600;strokeColor=#9673a6;opacity=50;">
          
          <mxGeometry as="geometry" height="20" width="30" y="750" x="1646" />
          
        </mxCell>
        
        <mxCell id="SXBMWEN36kBR7Q0c9kt5-6" value="" parent="1" vertex="1" style="rounded=1;whiteSpace=wrap;html=1;fillColor=#000066;strokeColor=#9673a6;opacity=50;">
          
          <mxGeometry as="geometry" height="20" width="30" y="720" x="1646" />
          
        </mxCell>
        
        <mxCell id="SXBMWEN36kBR7Q0c9kt5-8" value="Font with the color indicates service type decoupling" parent="1" vertex="1" style="text;html=1;strokeColor=none;fillColor=none;align=left;verticalAlign=middle;whiteSpace=wrap;rounded=0;fontSize=11;fontColor=none;opacity=50;">
          
          <mxGeometry as="geometry" height="20" width="294" y="750" x="1696" />
          
        </mxCell>
        
        <mxCell id="SXBMWEN36kBR7Q0c9kt5-9" value="Font with the color indicates data integration" parent="1" vertex="1" style="text;html=1;strokeColor=none;fillColor=none;align=left;verticalAlign=middle;whiteSpace=wrap;rounded=0;fontSize=11;fontColor=none;opacity=50;">
          
          <mxGeometry as="geometry" height="20" width="260" y="720" x="1697" />
          
        </mxCell>
        
      </root>
      
    </mxGraphModel>
    
  </diagram>
  <diagram id="dVhLQlLxH9juj035oDKz" name="B - PE">
    
    <mxGraphModel grid="1" shadow="0" math="0" pageHeight="1169" pageWidth="827" pageScale="1" page="1" fold="1" arrows="1" connect="1" tooltips="1" guides="1" gridSize="10" dy="860" dx="1423">
      
      <root>
        
        <mxCell id="eTZUl91Vg5pEZXeEU_nN-0" />
        
        <mxCell id="eTZUl91Vg5pEZXeEU_nN-1" parent="eTZUl91Vg5pEZXeEU_nN-0" />
        
        <mxCell id="eTZUl91Vg5pEZXeEU_nN-2" value="SBUX/Delivery OMS/MOP MOS" parent="eTZUl91Vg5pEZXeEU_nN-1" vertex="1" style="rounded=1;whiteSpace=wrap;html=1;fillColor=#dae8fc;strokeColor=#6c8ebf;">
          
          <mxGeometry as="geometry" height="77" width="200" y="390" x="60" />
          
        </mxCell>
        
        <mxCell id="eTZUl91Vg5pEZXeEU_nN-3" value="" parent="eTZUl91Vg5pEZXeEU_nN-1" vertex="1" style="rounded=1;whiteSpace=wrap;html=1;dashed=1;fillColor=#fff2cc;strokeColor=#d6b656;">
          
          <mxGeometry as="geometry" height="580" width="750" y="260" x="390" />
          
        </mxCell>
        
        <mxCell id="eTZUl91Vg5pEZXeEU_nN-4" value="&lt;h1&gt;Mid Layer Platform&lt;/h1&gt;&lt;p&gt;Lorem ipsum dolor sit amet, consectetur adipisicing elit, sed do eiusmod tempor incididunt ut labore et dolore magna aliqua.&lt;/p&gt;" parent="eTZUl91Vg5pEZXeEU_nN-1" vertex="1" style="text;html=1;strokeColor=none;fillColor=none;spacing=5;spacingTop=-20;whiteSpace=wrap;overflow=hidden;rounded=0;dashed=1;">
          
          <mxGeometry as="geometry" height="120" width="250" y="291" x="415" />
          
        </mxCell>
        
        <mxCell id="eTZUl91Vg5pEZXeEU_nN-5" value="Common Service Center - API Gate way" parent="eTZUl91Vg5pEZXeEU_nN-1" vertex="1" style="rounded=1;whiteSpace=wrap;html=1;">
          
          <mxGeometry as="geometry" height="395" width="245" y="385" x="415" />
          
        </mxCell>
        
        <mxCell id="eTZUl91Vg5pEZXeEU_nN-6" value="Promotion Engine&amp;nbsp; Center " parent="eTZUl91Vg5pEZXeEU_nN-1" vertex="1" style="rounded=1;whiteSpace=wrap;html=1;">
          
          <mxGeometry as="geometry" height="65" width="205" y="385" x="830" />
          
        </mxCell>
        
        <mxCell id="eTZUl91Vg5pEZXeEU_nN-7" value="Order Center " parent="eTZUl91Vg5pEZXeEU_nN-1" vertex="1" style="rounded=1;whiteSpace=wrap;html=1;">
          
          <mxGeometry as="geometry" height="65" width="205" y="520" x="830" />
          
        </mxCell>
        
        <mxCell id="eTZUl91Vg5pEZXeEU_nN-8" value="" parent="eTZUl91Vg5pEZXeEU_nN-1" vertex="1" style="rounded=1;whiteSpace=wrap;html=1;dashed=1;fillColor=#e1d5e7;strokeColor=#9673a6;">
          
          <mxGeometry as="geometry" height="580" width="330" y="260" x="1240" />
          
        </mxCell>
        
        <mxCell id="eTZUl91Vg5pEZXeEU_nN-9" value="&lt;h1&gt;Backend Systems&lt;/h1&gt;&lt;p&gt;Lorem ipsum dolor sit amet, consectetur adipisicing elit, sed do eiusmod tempor inci&lt;/p&gt;" parent="eTZUl91Vg5pEZXeEU_nN-1" vertex="1" style="text;html=1;strokeColor=none;fillColor=none;spacing=5;spacingTop=-20;whiteSpace=wrap;overflow=hidden;rounded=0;dashed=1;">
          
          <mxGeometry as="geometry" height="120" width="250" y="291" x="1260" />
          
        </mxCell>
        
        <mxCell id="eTZUl91Vg5pEZXeEU_nN-10" value="&lt;font style=&quot;font-size: 15px&quot;&gt;Libra&lt;/font&gt;" parent="eTZUl91Vg5pEZXeEU_nN-1" vertex="1" style="rounded=1;whiteSpace=wrap;html=1;">
          
          <mxGeometry as="geometry" height="394" width="245" y="386" x="1284" />
          
        </mxCell>
        
        <mxCell id="eTZUl91Vg5pEZXeEU_nN-11" value="Mid Layer Platform Promotion Engine Business Flow Arch." parent="eTZUl91Vg5pEZXeEU_nN-1" vertex="1" style="text;html=1;strokeColor=none;fillColor=none;align=center;verticalAlign=middle;whiteSpace=wrap;rounded=0;fontSize=45;">
          
          <mxGeometry as="geometry" height="50" width="1180" y="90" x="270" />
          
        </mxCell>
        
        <mxCell id="eTZUl91Vg5pEZXeEU_nN-12" value="" parent="eTZUl91Vg5pEZXeEU_nN-1" style="shape=flexArrow;endArrow=classic;html=1;fontSize=45;exitX=0.997;exitY=0.629;exitDx=0;exitDy=0;exitPerimeter=0;entryX=0.012;entryY=0.136;entryDx=0;entryDy=0;entryPerimeter=0;" edge="1">
          
          <mxGeometry as="geometry" height="50" width="50" relative="1">
            
            <mxPoint as="sourcePoint" y="417.433" x="259.39999999999986" />
            
            <mxPoint as="targetPoint" y="417.72" x="417.94000000000005" />
            
          </mxGeometry>
          
        </mxCell>
        
        <mxCell id="eTZUl91Vg5pEZXeEU_nN-13" value="" parent="eTZUl91Vg5pEZXeEU_nN-1" style="shape=flexArrow;endArrow=classic;html=1;fontSize=45;exitX=0.997;exitY=0.629;exitDx=0;exitDy=0;exitPerimeter=0;" edge="1" target="eTZUl91Vg5pEZXeEU_nN-6">
          
          <mxGeometry as="geometry" height="50" width="50" relative="1">
            
            <mxPoint as="sourcePoint" y="416.433" x="659.9000000000001" />
            
            <mxPoint as="targetPoint" y="417" x="790" />
            
          </mxGeometry>
          
        </mxCell>
        
        <mxCell id="eTZUl91Vg5pEZXeEU_nN-14" value="" parent="eTZUl91Vg5pEZXeEU_nN-1" style="shape=flexArrow;endArrow=classic;startArrow=classic;html=1;fontSize=45;" edge="1">
          
          <mxGeometry as="geometry" height="50" width="50" relative="1">
            
            <mxPoint as="sourcePoint" y="417.5" x="1030" />
            
            <mxPoint as="targetPoint" y="418" x="1290" />
            
          </mxGeometry>
          
        </mxCell>
        
        <mxCell id="eTZUl91Vg5pEZXeEU_nN-15" value="Business relationship" parent="eTZUl91Vg5pEZXeEU_nN-1" vertex="1" style="text;strokeColor=none;fillColor=none;html=1;fontSize=12;fontStyle=0;verticalAlign=middle;align=center;">
          
          <mxGeometry as="geometry" height="30" width="130" y="385" x="1080" />
          
        </mxCell>
        
        <mxCell id="eTZUl91Vg5pEZXeEU_nN-16" value="Business relationship" parent="eTZUl91Vg5pEZXeEU_nN-1" vertex="1" style="text;strokeColor=none;fillColor=none;html=1;fontSize=12;fontStyle=0;verticalAlign=middle;align=center;">
          
          <mxGeometry as="geometry" height="30" width="130" y="381" x="261" />
          
        </mxCell>
        
        <mxCell id="eTZUl91Vg5pEZXeEU_nN-17" value="Business relationship" parent="eTZUl91Vg5pEZXeEU_nN-1" vertex="1" style="text;strokeColor=none;fillColor=none;html=1;fontSize=12;fontStyle=0;verticalAlign=middle;align=center;">
          
          <mxGeometry as="geometry" height="30" width="130" y="385" x="675" />
          
        </mxCell>
        
        <mxCell id="eTZUl91Vg5pEZXeEU_nN-18" value="Business relationship" parent="eTZUl91Vg5pEZXeEU_nN-1" vertex="1" style="text;strokeColor=none;fillColor=none;html=1;fontSize=12;fontStyle=0;verticalAlign=middle;align=center;">
          
          <mxGeometry as="geometry" height="30" width="130" y="510" x="1080" />
          
        </mxCell>
        
        <mxCell id="eTZUl91Vg5pEZXeEU_nN-19" value="" parent="eTZUl91Vg5pEZXeEU_nN-1" style="shape=flexArrow;endArrow=classic;html=1;fontSize=45;exitX=0.997;exitY=0.629;exitDx=0;exitDy=0;exitPerimeter=0;" edge="1">
          
          <mxGeometry as="geometry" height="50" width="50" relative="1">
            
            <mxPoint as="sourcePoint" y="551.933" x="1034.9" />
            
            <mxPoint as="targetPoint" y="551" x="1284" />
            
          </mxGeometry>
          
        </mxCell>
        
        <mxCell id="eTZUl91Vg5pEZXeEU_nN-20" value="" parent="eTZUl91Vg5pEZXeEU_nN-1" style="shape=flexArrow;endArrow=classic;html=1;fontSize=45;exitX=0.997;exitY=0.629;exitDx=0;exitDy=0;exitPerimeter=0;entryX=0.995;entryY=0.817;entryDx=0;entryDy=0;entryPerimeter=0;" edge="1" target="eTZUl91Vg5pEZXeEU_nN-5">
          
          <mxGeometry as="geometry" height="50" width="50" relative="1">
            
            <mxPoint as="sourcePoint" y="709.933" x="1283.9" />
            
            <mxPoint as="targetPoint" y="719" x="894" />
            
          </mxGeometry>
          
        </mxCell>
        
        <mxCell id="eTZUl91Vg5pEZXeEU_nN-21" value="Business relationship" parent="eTZUl91Vg5pEZXeEU_nN-1" vertex="1" style="text;strokeColor=none;fillColor=none;html=1;fontSize=12;fontStyle=0;verticalAlign=middle;align=center;">
          
          <mxGeometry as="geometry" height="30" width="130" y="660" x="1080" />
          
        </mxCell>
        
      </root>
      
    </mxGraphModel>
    
  </diagram>
  <diagram id="J9_nsseORInc_kOMTHvB" name="B - Fapiao">
    
    <mxGraphModel grid="1" shadow="0" math="0" pageHeight="1169" pageWidth="827" pageScale="1" page="1" fold="1" arrows="1" connect="1" tooltips="1" guides="1" gridSize="10" dy="533" dx="2408">
      
      <root>
        
        <mxCell id="igLbW2o347uGfIWUB-C--0" />
        
        <mxCell id="igLbW2o347uGfIWUB-C--1" parent="igLbW2o347uGfIWUB-C--0" />
        
        <mxCell id="igLbW2o347uGfIWUB-C--2" value="&lt;b&gt;Invoice H5 Page/E-Invoice Mode&lt;br&gt;&lt;/b&gt;&lt;span style=&quot;color: rgb(204 , 102 , 0)&quot;&gt;The short introduction of E-Fapiao&lt;br&gt;&lt;/span&gt;&lt;b&gt;H5开票由E-fapiao接收、管理开票请求，中台提供订单开票状态查询与开票申请单管理能力&lt;br&gt;&lt;br&gt;Native APP 开票由发票中台&lt;/b&gt;&lt;b&gt;接收、管理开票请求、管理开票申请单，由E-fapiao实际与航信系统进行开票&lt;/b&gt;&lt;b&gt;&lt;br&gt;&lt;/b&gt;" parent="igLbW2o347uGfIWUB-C--1" vertex="1" style="rounded=1;whiteSpace=wrap;html=1;fillColor=none;strokeColor=#000000;">
          
          <mxGeometry as="geometry" height="150" width="240" y="360" x="-570" />
          
        </mxCell>
        
        <mxCell id="igLbW2o347uGfIWUB-C--4" value="&lt;h1&gt;Middle Layer Platform&lt;/h1&gt;&lt;p&gt;Lorem ipsum dolor sit amet, consectetur adipisicing elit, sed do eiusmod tempor incididunt ut labore et dolore magna aliqua.&lt;/p&gt;" parent="igLbW2o347uGfIWUB-C--1" vertex="1" style="text;html=1;strokeColor=none;fillColor=none;spacing=5;spacingTop=-20;whiteSpace=wrap;overflow=hidden;rounded=0;dashed=1;">
          
          <mxGeometry as="geometry" height="120" width="295" y="150" x="-200" />
          
        </mxCell>
        
        <mxCell id="igLbW2o347uGfIWUB-C--7" value="&lt;b&gt;Order Center &lt;/b&gt;" parent="igLbW2o347uGfIWUB-C--1" vertex="1" style="rounded=1;whiteSpace=wrap;html=1;fillColor=#f8cecc;strokeColor=#999999;dashed=1;">
          
          <mxGeometry as="geometry" height="65" width="350" y="530" x="-150" />
          
        </mxCell>
        
        <mxCell id="igLbW2o347uGfIWUB-C--9" value="&lt;h1&gt;Backend Systems&lt;/h1&gt;&lt;p&gt;Lorem ipsum dolor sit amet, consectetur adipisicing elit, sed do eiusmod tempor incididunt ut labore et dolore magna aliqua.&lt;/p&gt;" parent="igLbW2o347uGfIWUB-C--1" vertex="1" style="text;html=1;strokeColor=none;fillColor=none;spacing=5;spacingTop=-20;whiteSpace=wrap;overflow=hidden;rounded=0;dashed=1;">
          
          <mxGeometry as="geometry" height="120" width="250" y="150" x="370" />
          
        </mxCell>
        
        <mxCell id="igLbW2o347uGfIWUB-C--10" value="&lt;b&gt;E - Fapiao&lt;/b&gt;&lt;br&gt;&lt;span style=&quot;color: rgb(204 , 102 , 0)&quot;&gt;The short introduction of E-Fapiao&lt;/span&gt;" parent="igLbW2o347uGfIWUB-C--1" vertex="1" style="rounded=1;whiteSpace=wrap;html=1;">
          
          <mxGeometry as="geometry" height="65" width="245" y="384" x="454" />
          
        </mxCell>
        
        <mxCell id="igLbW2o347uGfIWUB-C--11" value="&lt;font style=&quot;font-weight: 700 ; font-size: 36px&quot;&gt;&lt;br&gt;&lt;/font&gt;&lt;font style=&quot;font-size: 12px ; font-weight: 700&quot;&gt;&lt;font style=&quot;font-size: 28px&quot;&gt;Fapiao Business Center&lt;br&gt;&lt;br&gt;&lt;/font&gt;&lt;/font&gt;" parent="igLbW2o347uGfIWUB-C--1" vertex="1" style="text;html=1;strokeColor=none;fillColor=none;align=center;verticalAlign=middle;whiteSpace=wrap;rounded=0;fontSize=45;">
          
          <mxGeometry as="geometry" height="50" width="1070" y="70" x="-300" />
          
        </mxCell>
        
        <mxCell id="igLbW2o347uGfIWUB-C--12" value="" parent="igLbW2o347uGfIWUB-C--1" style="shape=flexArrow;endArrow=classic;html=1;fontSize=45;entryX=0.003;entryY=0.442;entryDx=0;entryDy=0;entryPerimeter=0;exitX=0.996;exitY=0.333;exitDx=0;exitDy=0;exitPerimeter=0;" edge="1" target="igLbW2o347uGfIWUB-C--6" source="igLbW2o347uGfIWUB-C--2">
          
          <mxGeometry as="geometry" height="50" width="50" relative="1">
            
            <mxPoint as="sourcePoint" y="404" x="-330" />
            
            <mxPoint as="targetPoint" y="407.17717391304336" x="-175" />
            
          </mxGeometry>
          
        </mxCell>
        
        <mxCell id="igLbW2o347uGfIWUB-C--15" value="" parent="igLbW2o347uGfIWUB-C--1" style="shape=flexArrow;endArrow=classic;startArrow=classic;html=1;fontSize=45;entryX=0;entryY=0.5;entryDx=0;entryDy=0;exitX=1.004;exitY=0.522;exitDx=0;exitDy=0;exitPerimeter=0;" edge="1" target="igLbW2o347uGfIWUB-C--10" source="igLbW2o347uGfIWUB-C--6">
          
          <mxGeometry as="geometry" height="50" width="50" relative="1">
            
            <mxPoint as="sourcePoint" y="407.5" x="440" />
            
            <mxPoint as="targetPoint" y="607.5" x="838.5" />
            
          </mxGeometry>
          
        </mxCell>
        
        <mxCell id="igLbW2o347uGfIWUB-C--16" value="&lt;font color=&quot;#000099&quot;&gt;Business relationship&lt;/font&gt;" parent="igLbW2o347uGfIWUB-C--1" vertex="1" style="text;strokeColor=none;fillColor=none;html=1;fontSize=12;fontStyle=0;verticalAlign=middle;align=center;">
          
          <mxGeometry as="geometry" height="30" width="130" y="375" x="250" />
          
        </mxCell>
        
        <mxCell id="igLbW2o347uGfIWUB-C--17" value="&lt;font color=&quot;#000099&quot;&gt;Business relationship&lt;/font&gt;" parent="igLbW2o347uGfIWUB-C--1" vertex="1" style="text;strokeColor=none;fillColor=none;html=1;fontSize=12;fontStyle=0;verticalAlign=middle;align=center;">
          
          <mxGeometry as="geometry" height="30" width="130" y="371" x="-329" />
          
        </mxCell>
        
        <mxCell id="igLbW2o347uGfIWUB-C--19" value="&lt;font color=&quot;#000099&quot;&gt;Business relationship&lt;/font&gt;" parent="igLbW2o347uGfIWUB-C--1" vertex="1" style="text;strokeColor=none;fillColor=none;html=1;fontSize=12;fontStyle=0;verticalAlign=middle;align=center;">
          
          <mxGeometry as="geometry" height="30" width="130" y="476.5" x="30" />
          
        </mxCell>
        
        <mxCell id="NdqWdVjN_joH7nmX93Dz-0" value="Owner:&lt;br&gt;Contact mail:" parent="igLbW2o347uGfIWUB-C--1" vertex="1" style="text;html=1;strokeColor=none;fillColor=none;align=left;verticalAlign=middle;whiteSpace=wrap;rounded=0;">
          
          <mxGeometry as="geometry" height="40" width="225" y="75" x="-900" />
          
        </mxCell>
        
        <mxCell id="l3VHSKj6qmZbS3NSPVWN-0" value="Fapiao capacities introduction:&lt;br&gt;1. 开票申请单号生成&lt;br&gt;2. 接收开票请求&lt;br&gt;3. 重新开票（限定税号填写错误场景）&lt;br&gt;4. 发票邮箱发送&lt;br&gt;5. 订单开票状态查询&lt;br&gt;6. 开票订单信息查询&lt;br&gt;7. 发票状态查询&lt;br&gt;8. 发票信息查询&lt;br&gt;9. 发票红冲取消开票申请单状态" parent="igLbW2o347uGfIWUB-C--1" vertex="1" style="text;html=1;strokeColor=none;fillColor=none;align=left;verticalAlign=middle;whiteSpace=wrap;rounded=0;">
          
          <mxGeometry as="geometry" height="150" width="240" y="120" x="-900" />
          
        </mxCell>
        
        <mxCell id="igLbW2o347uGfIWUB-C--14" value="" parent="igLbW2o347uGfIWUB-C--1" style="shape=flexArrow;endArrow=classic;startArrow=classic;html=1;fontSize=45;" edge="1" target="igLbW2o347uGfIWUB-C--6" source="igLbW2o347uGfIWUB-C--7">
          
          <mxGeometry as="geometry" height="50" width="50" relative="1">
            
            <mxPoint as="sourcePoint" y="501" x="-4.5" />
            
            <mxPoint as="targetPoint" y="450" x="-5" />
            
          </mxGeometry>
          
        </mxCell>
        
        <mxCell id="igLbW2o347uGfIWUB-C--6" value="&lt;b&gt;Invoice&amp;nbsp; Center&lt;br&gt;&lt;/b&gt;&lt;span style=&quot;color: rgb(204 , 102 , 0)&quot;&gt;The short introduction of E-Fapiao&lt;/span&gt;&lt;b style=&quot;font-size: 10px&quot;&gt;&amp;nbsp;&lt;br&gt;管理开票申请单，提供合并开票管理能力&lt;br style=&quot;font-size: 10px&quot;&gt;提供发票相关的订单、发票信息查询能力&lt;br style=&quot;font-size: 10px&quot;&gt;提供直接接收开票请求，进行开票能力&amp;nbsp;&lt;br style=&quot;font-size: 10px&quot;&gt;提供重新开票、邮箱发送等辅助能力&lt;br&gt;&lt;/b&gt;" parent="igLbW2o347uGfIWUB-C--1" vertex="1" style="rounded=1;whiteSpace=wrap;html=1;fillColor=#fff2cc;strokeColor=#d6b656;">
          
          <mxGeometry as="geometry" height="80" width="350" y="373" x="-150" />
          
        </mxCell>
        
        <mxCell id="tOsCHjYs-OenUiMLWLUY-2" value="&lt;h1&gt;Channels&lt;/h1&gt;&lt;p&gt;Lorem ipsum dolor sit amet, consectetur adipi&lt;/p&gt;" parent="igLbW2o347uGfIWUB-C--1" vertex="1" style="text;html=1;strokeColor=none;fillColor=none;spacing=5;spacingTop=-20;whiteSpace=wrap;overflow=hidden;rounded=0;dashed=1;">
          
          <mxGeometry as="geometry" height="85" width="250" y="150" x="-590" />
          
        </mxCell>
        
        <mxCell id="tOsCHjYs-OenUiMLWLUY-11" value="" parent="igLbW2o347uGfIWUB-C--1" vertex="1" style="rounded=0;whiteSpace=wrap;html=1;fillColor=#CC6600;">
          
          <mxGeometry as="geometry" height="20" width="20" y="870" x="-652" />
          
        </mxCell>
        
        <mxCell id="tOsCHjYs-OenUiMLWLUY-12" value="" parent="igLbW2o347uGfIWUB-C--1" vertex="1" style="rounded=0;whiteSpace=wrap;html=1;fillColor=#000099;">
          
          <mxGeometry as="geometry" height="20" width="20" y="897.5" x="-652" />
          
        </mxCell>
        
        <mxCell id="tOsCHjYs-OenUiMLWLUY-13" value="&lt;b&gt;Font &lt;/b&gt;with color indicates used business capacities&amp;nbsp;" parent="igLbW2o347uGfIWUB-C--1" vertex="1" style="text;html=1;strokeColor=none;fillColor=none;align=left;verticalAlign=middle;whiteSpace=wrap;rounded=0;">
          
          <mxGeometry as="geometry" height="20" width="280" y="870" x="-622" />
          
        </mxCell>
        
        <mxCell id="tOsCHjYs-OenUiMLWLUY-14" value="&lt;b&gt;Font&lt;/b&gt; with color indicates business relationship" parent="igLbW2o347uGfIWUB-C--1" vertex="1" style="text;html=1;strokeColor=none;fillColor=none;align=left;verticalAlign=middle;whiteSpace=wrap;rounded=0;">
          
          <mxGeometry as="geometry" height="20" width="305" y="898" x="-622" />
          
        </mxCell>
        
        <mxCell id="tOsCHjYs-OenUiMLWLUY-19" value="" parent="igLbW2o347uGfIWUB-C--1" vertex="1" style="rounded=0;whiteSpace=wrap;html=1;fillColor=#d5e8d4;strokeColor=#82b366;">
          
          <mxGeometry as="geometry" height="20" width="20" y="780" x="-652" />
          
        </mxCell>
        
        <mxCell id="tOsCHjYs-OenUiMLWLUY-20" value="&lt;b&gt;Background&amp;nbsp;&lt;/b&gt;with color indicates middle layer platform scope" parent="igLbW2o347uGfIWUB-C--1" vertex="1" style="text;html=1;strokeColor=none;fillColor=none;align=left;verticalAlign=middle;whiteSpace=wrap;rounded=0;">
          
          <mxGeometry as="geometry" height="20" width="344" y="780.5" x="-622" />
          
        </mxCell>
        
        <mxCell id="tOsCHjYs-OenUiMLWLUY-21" value="" parent="igLbW2o347uGfIWUB-C--1" vertex="1" style="rounded=0;whiteSpace=wrap;html=1;fillColor=#fff2cc;strokeColor=#d6b656;">
          
          <mxGeometry as="geometry" height="20" width="20" y="808.5" x="-652" />
          
        </mxCell>
        
        <mxCell id="tOsCHjYs-OenUiMLWLUY-22" value="&lt;b&gt;Background&amp;nbsp;&lt;/b&gt;with color indicates the main business center" parent="igLbW2o347uGfIWUB-C--1" vertex="1" style="text;html=1;strokeColor=none;fillColor=none;align=left;verticalAlign=middle;whiteSpace=wrap;rounded=0;">
          
          <mxGeometry as="geometry" height="20" width="344" y="809" x="-622" />
          
        </mxCell>
        
        <mxCell id="tOsCHjYs-OenUiMLWLUY-26" value="" parent="igLbW2o347uGfIWUB-C--1" vertex="1" style="rounded=0;whiteSpace=wrap;html=1;fillColor=#f8cecc;strokeColor=#b85450;">
          
          <mxGeometry as="geometry" height="20" width="20" y="840" x="-652" />
          
        </mxCell>
        
        <mxCell id="tOsCHjYs-OenUiMLWLUY-27" value="&lt;b&gt;Background&amp;nbsp;&lt;/b&gt;with color indicates related business center" parent="igLbW2o347uGfIWUB-C--1" vertex="1" style="text;html=1;strokeColor=none;fillColor=none;align=left;verticalAlign=middle;whiteSpace=wrap;rounded=0;">
          
          <mxGeometry as="geometry" height="20" width="344" y="840.5" x="-622" />
          
        </mxCell>
        
        <mxCell id="MZFpeevNBEghiw8TrdTp-0" value="&lt;b&gt;H5开票包括渠道：店用（POS订单）、MOP、MOD、饿了么、预约配送费&lt;br&gt;&lt;br&gt;中台开票包括渠道：APP SRkit、APP SVC&lt;br&gt;&lt;/b&gt;" parent="igLbW2o347uGfIWUB-C--1" vertex="1" style="rounded=1;whiteSpace=wrap;html=1;">
          
          <mxGeometry as="geometry" height="65" width="240" y="520" x="-570" />
          
        </mxCell>
        
        <mxCell id="UIfXOs1jaKCr0zSEf8Uo-0" value="" parent="igLbW2o347uGfIWUB-C--1" style="endArrow=none;dashed=1;html=1;" edge="1">
          
          <mxGeometry as="geometry" height="50" width="50" relative="1">
            
            <mxPoint as="sourcePoint" y="700" x="-240" />
            
            <mxPoint as="targetPoint" y="150" x="-240" />
            
          </mxGeometry>
          
        </mxCell>
        
        <mxCell id="UIfXOs1jaKCr0zSEf8Uo-1" value="" parent="igLbW2o347uGfIWUB-C--1" style="endArrow=none;dashed=1;html=1;exitX=0.926;exitY=-0.419;exitDx=0;exitDy=0;exitPerimeter=0;" edge="1">
          
          <mxGeometry as="geometry" height="50" width="50" relative="1">
            
            <mxPoint as="sourcePoint" y="679.06" x="314.2739999999999" />
            
            <mxPoint as="targetPoint" y="146.94" x="315.73" />
            
          </mxGeometry>
          
        </mxCell>
        
      </root>
      
    </mxGraphModel>
    
  </diagram>
  <diagram id="qOBu7CtIDoo8BYil4gCy" name="Blair-Order Center">
    <mxGraphModel grid="1" shadow="0" math="0" pageHeight="1100" pageWidth="850" pageScale="1" page="1" fold="1" arrows="1" connect="1" tooltips="1" guides="1" gridSize="10" dy="817" dx="2333">
      <root>
        <mxCell id="VnCNZadoxZpTZtr3mc3R-0" />
        <mxCell id="VnCNZadoxZpTZtr3mc3R-1" parent="VnCNZadoxZpTZtr3mc3R-0" />
        <mxCell id="t_dz_ACjwcq5RYALcEdA-0" value="" parent="VnCNZadoxZpTZtr3mc3R-1" style="edgeStyle=orthogonalEdgeStyle;rounded=0;orthogonalLoop=1;jettySize=auto;html=1;labelBackgroundColor=none;strokeColor=#994C00;fontColor=#330000;entryX=0.174;entryY=0.002;entryDx=0;entryDy=0;entryPerimeter=0;" edge="1" target="t_dz_ACjwcq5RYALcEdA-18" source="t_dz_ACjwcq5RYALcEdA-1">
          <mxGeometry as="geometry" relative="1">
            <mxPoint as="targetPoint" y="250" x="261" />
            <Array as="points">
              <mxPoint y="220" x="371" />
              <mxPoint y="220" x="286" />
            </Array>
          </mxGeometry>
        </mxCell>
        <mxCell id="t_dz_ACjwcq5RYALcEdA-1" value="Eleme&lt;br&gt;&amp;nbsp;Delivery" parent="VnCNZadoxZpTZtr3mc3R-1" vertex="1" style="rounded=1;whiteSpace=wrap;html=1;fillColor=#dae8fc;strokeColor=#6C8EBF;opacity=50;">
          <mxGeometry as="geometry" height="60" width="120" y="120" x="311" />
        </mxCell>
        <mxCell id="t_dz_ACjwcq5RYALcEdA-2" value="&lt;span style=&quot;font-weight: normal&quot;&gt;Store retail&amp;nbsp;&lt;/span&gt;" parent="VnCNZadoxZpTZtr3mc3R-1" style="edgeStyle=orthogonalEdgeStyle;rounded=0;orthogonalLoop=1;jettySize=auto;html=1;exitX=0.5;exitY=1;exitDx=0;exitDy=0;fontStyle=1;strokeColor=#660000;" edge="1" target="t_dz_ACjwcq5RYALcEdA-21" source="t_dz_ACjwcq5RYALcEdA-3">
          <mxGeometry as="geometry" x="-0.1429" relative="1">
            <mxPoint as="offset" y="1" />
          </mxGeometry>
        </mxCell>
        <mxCell id="t_dz_ACjwcq5RYALcEdA-3" value="&lt;span style=&quot;font: 12px / 1.2 &amp;#34;helvetica&amp;#34; ; color: rgb(0 , 0 , 0) ; text-transform: none ; text-indent: 0px ; letter-spacing: normal ; text-decoration: none ; word-spacing: 0px ; display: inline ; white-space: normal ; float: none ; overflow-wrap: normal ; background-color: rgb(248 , 249 , 250)&quot;&gt;In &lt;/span&gt;Store&lt;br&gt;Sales&lt;br&gt;&amp;nbsp;" parent="VnCNZadoxZpTZtr3mc3R-1" vertex="1" style="rounded=1;whiteSpace=wrap;html=1;fillColor=#f5f5f5;align=center;verticalAlign=bottom;strokeColor=#666666;fontColor=#333333;">
          <mxGeometry as="geometry" height="60" width="168" y="120" x="3" />
        </mxCell>
        <mxCell id="t_dz_ACjwcq5RYALcEdA-4" value="Mop" parent="VnCNZadoxZpTZtr3mc3R-1" style="edgeStyle=orthogonalEdgeStyle;rounded=0;orthogonalLoop=1;jettySize=auto;html=1;entryX=0.608;entryY=0.027;entryDx=0;entryDy=0;entryPerimeter=0;labelBackgroundColor=none;strokeColor=#666600;fontColor=#330000;" edge="1" target="t_dz_ACjwcq5RYALcEdA-18" source="t_dz_ACjwcq5RYALcEdA-5">
          <mxGeometry as="geometry" relative="1" />
        </mxCell>
        <mxCell id="t_dz_ACjwcq5RYALcEdA-5" value="SBUX App&amp;nbsp;&lt;br&gt;MOP" parent="VnCNZadoxZpTZtr3mc3R-1" vertex="1" style="rounded=1;whiteSpace=wrap;html=1;fillColor=#dae8fc;strokeColor=#6C8EBF;opacity=50;">
          <mxGeometry as="geometry" height="60" width="120" y="120" x="439" />
        </mxCell>
        <mxCell id="t_dz_ACjwcq5RYALcEdA-6" value="" parent="VnCNZadoxZpTZtr3mc3R-1" style="edgeStyle=orthogonalEdgeStyle;rounded=0;orthogonalLoop=1;jettySize=auto;html=1;labelBackgroundColor=#FFFFFF;strokeColor=#994C00;fontColor=#330000;entryX=0.176;entryY=0.002;entryDx=0;entryDy=0;entryPerimeter=0;" edge="1">
          <mxGeometry as="geometry" relative="1">
            <mxPoint as="sourcePoint" y="180" x="238" />
            <mxPoint as="targetPoint" y="250.06000000000006" x="286.2399999999998" />
            <Array as="points">
              <mxPoint y="220" x="238" />
              <mxPoint y="220" x="286" />
            </Array>
          </mxGeometry>
        </mxCell>
        <mxCell id="t_dz_ACjwcq5RYALcEdA-7" value="SBUX App&lt;br&gt;Delivery" parent="VnCNZadoxZpTZtr3mc3R-1" vertex="1" style="rounded=1;whiteSpace=wrap;html=1;fillColor=#dae8fc;strokeColor=#6C8EBF;opacity=50;">
          <mxGeometry as="geometry" height="60" width="120" y="120" x="179" />
        </mxCell>
        <mxCell id="t_dz_ACjwcq5RYALcEdA-8" value="Hema hidden kitchen" parent="VnCNZadoxZpTZtr3mc3R-1" style="edgeStyle=orthogonalEdgeStyle;rounded=0;orthogonalLoop=1;jettySize=auto;html=1;labelBackgroundColor=none;strokeColor=#A680B8;fontColor=#330000;exitX=0.5;exitY=1;exitDx=0;exitDy=0;" edge="1" target="ZyoXYBK32tXdx7PjOStH-2" source="t_dz_ACjwcq5RYALcEdA-9">
          <mxGeometry as="geometry" relative="1">
            <Array as="points">
              <mxPoint y="180" x="632" />
            </Array>
            <mxPoint as="targetPoint" y="220" x="543" />
          </mxGeometry>
        </mxCell>
        <mxCell id="t_dz_ACjwcq5RYALcEdA-9" value="Hema" parent="VnCNZadoxZpTZtr3mc3R-1" vertex="1" style="rounded=1;whiteSpace=wrap;html=1;fillColor=#dae8fc;strokeColor=#6C8EBF;opacity=50;">
          <mxGeometry as="geometry" height="60" width="120" y="120" x="573" />
        </mxCell>
        <mxCell id="t_dz_ACjwcq5RYALcEdA-10" value="iStore" parent="VnCNZadoxZpTZtr3mc3R-1" style="edgeStyle=orthogonalEdgeStyle;rounded=0;orthogonalLoop=1;jettySize=auto;html=1;labelBackgroundColor=none;strokeColor=#000066;fontColor=#330000;" edge="1" target="t_dz_ACjwcq5RYALcEdA-37" source="t_dz_ACjwcq5RYALcEdA-11">
          <mxGeometry as="geometry" relative="1">
            <Array as="points">
              <mxPoint y="200" x="761" />
              <mxPoint y="200" x="761" />
            </Array>
          </mxGeometry>
        </mxCell>
        <mxCell id="t_dz_ACjwcq5RYALcEdA-11" value="iStore Tmall" parent="VnCNZadoxZpTZtr3mc3R-1" vertex="1" style="rounded=1;whiteSpace=wrap;html=1;fillColor=#dae8fc;strokeColor=#6c8ebf;opacity=50;">
          <mxGeometry as="geometry" height="60" width="120" y="120" x="703" />
        </mxCell>
        <mxCell id="t_dz_ACjwcq5RYALcEdA-12" value="SRkit" parent="VnCNZadoxZpTZtr3mc3R-1" style="edgeStyle=orthogonalEdgeStyle;rounded=0;orthogonalLoop=1;jettySize=auto;html=1;labelBackgroundColor=none;strokeColor=#4D9900;fontColor=#330000;" edge="1" target="t_dz_ACjwcq5RYALcEdA-35" source="t_dz_ACjwcq5RYALcEdA-13">
          <mxGeometry as="geometry" relative="1">
            <Array as="points">
              <mxPoint y="200" x="891" />
              <mxPoint y="200" x="891" />
            </Array>
          </mxGeometry>
        </mxCell>
        <mxCell id="t_dz_ACjwcq5RYALcEdA-13" value="SBUX App&lt;br&gt;SRkit" parent="VnCNZadoxZpTZtr3mc3R-1" vertex="1" style="rounded=1;whiteSpace=wrap;html=1;fillColor=#dae8fc;strokeColor=#6C8EBF;opacity=50;">
          <mxGeometry as="geometry" height="60" width="120" y="120" x="834" />
        </mxCell>
        <mxCell id="t_dz_ACjwcq5RYALcEdA-14" value="&lt;b&gt;Conceptual of Architecture-Order Data Business Flow As-Is &lt;font style=&quot;font-size: 18px&quot;&gt;v20.2.25&lt;/font&gt;&lt;/b&gt;" parent="VnCNZadoxZpTZtr3mc3R-1" vertex="1" style="text;html=1;align=center;fontSize=25;">
          <mxGeometry as="geometry" height="40" width="850" y="50" x="81" />
        </mxCell>
        <mxCell id="t_dz_ACjwcq5RYALcEdA-15" parent="VnCNZadoxZpTZtr3mc3R-1" style="edgeStyle=orthogonalEdgeStyle;rounded=0;orthogonalLoop=1;jettySize=auto;html=1;exitX=0;exitY=0.25;exitDx=0;exitDy=0;labelBackgroundColor=#990000;strokeColor=#994C00;fontColor=#990000;" edge="1" target="t_dz_ACjwcq5RYALcEdA-21" source="t_dz_ACjwcq5RYALcEdA-18">
          <mxGeometry as="geometry" relative="1">
            <Array as="points">
              <mxPoint y="257" x="171" />
              <mxPoint y="257" x="171" />
            </Array>
          </mxGeometry>
        </mxCell>
        <mxCell id="t_dz_ACjwcq5RYALcEdA-16" value="" parent="VnCNZadoxZpTZtr3mc3R-1" style="edgeStyle=orthogonalEdgeStyle;rounded=0;orthogonalLoop=1;jettySize=auto;html=1;labelBackgroundColor=#990000;strokeColor=#666600;fontColor=#990000;" edge="1" target="t_dz_ACjwcq5RYALcEdA-21" source="t_dz_ACjwcq5RYALcEdA-18">
          <mxGeometry as="geometry" relative="1" />
        </mxCell>
        <mxCell id="t_dz_ACjwcq5RYALcEdA-17" value="" parent="VnCNZadoxZpTZtr3mc3R-1" style="edgeStyle=orthogonalEdgeStyle;rounded=0;orthogonalLoop=1;jettySize=auto;html=1;labelBackgroundColor=#990000;strokeColor=#A680B8;fontColor=#990000;exitX=0.5;exitY=1;exitDx=0;exitDy=0;" edge="1" target="t_dz_ACjwcq5RYALcEdA-32" source="ZyoXYBK32tXdx7PjOStH-2">
          <mxGeometry as="geometry" relative="1">
            <Array as="points">
              <mxPoint y="280" x="626" />
            </Array>
          </mxGeometry>
        </mxCell>
        <mxCell id="t_dz_ACjwcq5RYALcEdA-18" value="O2O - OMS" parent="VnCNZadoxZpTZtr3mc3R-1" vertex="1" style="rounded=1;whiteSpace=wrap;html=1;fillColor=#ffe6cc;strokeColor=#d79b00;opacity=50;">
          <mxGeometry as="geometry" height="30" width="362" y="250" x="201" />
        </mxCell>
        <mxCell id="t_dz_ACjwcq5RYALcEdA-19" parent="VnCNZadoxZpTZtr3mc3R-1" style="edgeStyle=orthogonalEdgeStyle;rounded=0;orthogonalLoop=1;jettySize=auto;html=1;exitX=0.5;exitY=1;exitDx=0;exitDy=0;entryX=0.584;entryY=0.003;entryDx=0;entryDy=0;labelBackgroundColor=#990000;strokeColor=#660000;fontColor=#990000;entryPerimeter=0;" edge="1" target="t_dz_ACjwcq5RYALcEdA-29">
          <mxGeometry as="geometry" relative="1">
            <mxPoint as="sourcePoint" y="279.9999999999999" x="101" />
            <mxPoint as="targetPoint" y="339.9999999999999" x="101" />
          </mxGeometry>
        </mxCell>
        <mxCell id="t_dz_ACjwcq5RYALcEdA-20" value="" parent="VnCNZadoxZpTZtr3mc3R-1" style="edgeStyle=orthogonalEdgeStyle;rounded=0;orthogonalLoop=1;jettySize=auto;html=1;labelBackgroundColor=#990000;strokeColor=#994C00;fontColor=#990000;" edge="1" target="t_dz_ACjwcq5RYALcEdA-29" source="t_dz_ACjwcq5RYALcEdA-21">
          <mxGeometry as="geometry" relative="1" />
        </mxCell>
        <mxCell id="t_dz_ACjwcq5RYALcEdA-21" value="Symphony POS" parent="VnCNZadoxZpTZtr3mc3R-1" vertex="1" style="rounded=1;whiteSpace=wrap;html=1;fillColor=#f5f5f5;strokeColor=#666666;fontColor=#333333;">
          <mxGeometry as="geometry" height="30" width="168" y="250" x="3" />
        </mxCell>
        <mxCell id="t_dz_ACjwcq5RYALcEdA-22" parent="VnCNZadoxZpTZtr3mc3R-1" style="edgeStyle=orthogonalEdgeStyle;rounded=0;orthogonalLoop=1;jettySize=auto;html=1;exitX=1;exitY=0.75;exitDx=0;exitDy=0;entryX=0;entryY=0.75;entryDx=0;entryDy=0;labelBackgroundColor=#990000;strokeColor=#660000;fontColor=#990000;" edge="1">
          <mxGeometry as="geometry" relative="1">
            <mxPoint as="sourcePoint" y="435.5" x="171" />
            <mxPoint as="targetPoint" y="435.5" x="201" />
          </mxGeometry>
        </mxCell>
        <mxCell id="t_dz_ACjwcq5RYALcEdA-26" parent="VnCNZadoxZpTZtr3mc3R-1" style="edgeStyle=orthogonalEdgeStyle;rounded=0;orthogonalLoop=1;jettySize=auto;html=1;exitX=0.5;exitY=1;exitDx=0;exitDy=0;labelBackgroundColor=none;strokeColor=#330000;fontSize=11;fontColor=none;entryX=0;entryY=0.5;entryDx=0;entryDy=0;" edge="1" target="ZyoXYBK32tXdx7PjOStH-34" source="ZyoXYBK32tXdx7PjOStH-13">
          <mxGeometry as="geometry" relative="1">
            <mxPoint as="targetPoint" y="640" x="423" />
          </mxGeometry>
        </mxCell>
        <mxCell id="t_dz_ACjwcq5RYALcEdA-28" parent="VnCNZadoxZpTZtr3mc3R-1" style="edgeStyle=orthogonalEdgeStyle;rounded=0;orthogonalLoop=1;jettySize=auto;html=1;exitX=0.5;exitY=1;exitDx=0;exitDy=0;entryX=0;entryY=0.5;entryDx=0;entryDy=0;labelBackgroundColor=none;strokeColor=#330000;fontSize=11;fontColor=none;" edge="1" target="t_dz_ACjwcq5RYALcEdA-33" source="ZyoXYBK32tXdx7PjOStH-11">
          <mxGeometry as="geometry" relative="1" />
        </mxCell>
        <mxCell id="t_dz_ACjwcq5RYALcEdA-29" value="ESB" parent="VnCNZadoxZpTZtr3mc3R-1" vertex="1" style="rounded=1;whiteSpace=wrap;html=1;fillColor=#ffe6cc;strokeColor=#d79b00;opacity=50;">
          <mxGeometry as="geometry" height="110" width="168" y="400" x="3" />
        </mxCell>
        <mxCell id="t_dz_ACjwcq5RYALcEdA-30" value="" parent="VnCNZadoxZpTZtr3mc3R-1" style="edgeStyle=orthogonalEdgeStyle;rounded=0;orthogonalLoop=1;jettySize=auto;html=1;labelBackgroundColor=none;strokeColor=#A680B8;fontSize=11;fontColor=none;" edge="1">
          <mxGeometry as="geometry" relative="1">
            <mxPoint as="sourcePoint" y="481" x="201" />
            <mxPoint as="targetPoint" y="481" x="171" />
          </mxGeometry>
        </mxCell>
        <mxCell id="t_dz_ACjwcq5RYALcEdA-31" parent="VnCNZadoxZpTZtr3mc3R-1" style="edgeStyle=orthogonalEdgeStyle;rounded=0;orthogonalLoop=1;jettySize=auto;html=1;exitX=0;exitY=0.75;exitDx=0;exitDy=0;entryX=1;entryY=0.75;entryDx=0;entryDy=0;labelBackgroundColor=none;strokeColor=#4D9900;fontSize=11;fontColor=none;" edge="1">
          <mxGeometry as="geometry" relative="1">
            <mxPoint as="sourcePoint" y="489.5" x="201" />
            <mxPoint as="targetPoint" y="489.5" x="171" />
          </mxGeometry>
        </mxCell>
        <mxCell id="t_dz_ACjwcq5RYALcEdA-32" value="&lt;font style=&quot;font-size: 23px&quot;&gt;Order Center in Middle layer&lt;/font&gt;" parent="VnCNZadoxZpTZtr3mc3R-1" vertex="1" style="rounded=1;whiteSpace=wrap;html=1;fillColor=#d5e8d4;strokeColor=#82b366;opacity=50;">
          <mxGeometry as="geometry" height="110" width="750" y="400" x="201" />
        </mxCell>
        <mxCell id="t_dz_ACjwcq5RYALcEdA-33" value="BOH" parent="VnCNZadoxZpTZtr3mc3R-1" vertex="1" style="rounded=1;whiteSpace=wrap;html=1;fillColor=#ffe6cc;strokeColor=#d79b00;opacity=50;">
          <mxGeometry as="geometry" height="30" width="51" y="550" x="9" />
        </mxCell>
        <mxCell id="t_dz_ACjwcq5RYALcEdA-34" value="" parent="VnCNZadoxZpTZtr3mc3R-1" style="edgeStyle=orthogonalEdgeStyle;rounded=0;orthogonalLoop=1;jettySize=auto;html=1;labelBackgroundColor=#990000;strokeColor=#4D9900;fontColor=#990000;" edge="1" target="t_dz_ACjwcq5RYALcEdA-32" source="t_dz_ACjwcq5RYALcEdA-35">
          <mxGeometry as="geometry" relative="1">
            <Array as="points">
              <mxPoint y="370" x="891" />
              <mxPoint y="370" x="891" />
            </Array>
          </mxGeometry>
        </mxCell>
        <mxCell id="xYllv8rpuoElAiDCNA6X-5" parent="VnCNZadoxZpTZtr3mc3R-1" style="edgeStyle=none;rounded=0;orthogonalLoop=1;jettySize=auto;html=1;exitX=0.75;exitY=1;exitDx=0;exitDy=0;entryX=0.958;entryY=-0.027;entryDx=0;entryDy=0;entryPerimeter=0;fillColor=#dae8fc;strokeColor=#6c8ebf;" edge="1" target="t_dz_ACjwcq5RYALcEdA-32" source="t_dz_ACjwcq5RYALcEdA-35">
          <mxGeometry as="geometry" relative="1" />
        </mxCell>
        <mxCell id="t_dz_ACjwcq5RYALcEdA-35" value="App Digital OMS" parent="VnCNZadoxZpTZtr3mc3R-1" vertex="1" style="rounded=1;whiteSpace=wrap;html=1;fillColor=#ffe6cc;strokeColor=#d79b00;opacity=50;">
          <mxGeometry as="geometry" height="30" width="120" y="250" x="831" />
        </mxCell>
        <mxCell id="t_dz_ACjwcq5RYALcEdA-36" value="" parent="VnCNZadoxZpTZtr3mc3R-1" style="edgeStyle=orthogonalEdgeStyle;rounded=0;orthogonalLoop=1;jettySize=auto;html=1;labelBackgroundColor=#990000;strokeColor=#000066;fontColor=#990000;" edge="1" target="t_dz_ACjwcq5RYALcEdA-32" source="t_dz_ACjwcq5RYALcEdA-37">
          <mxGeometry as="geometry" relative="1">
            <Array as="points">
              <mxPoint y="330" x="761" />
              <mxPoint y="330" x="761" />
            </Array>
          </mxGeometry>
        </mxCell>
        <mxCell id="t_dz_ACjwcq5RYALcEdA-37" value="Taobao open platform" parent="VnCNZadoxZpTZtr3mc3R-1" vertex="1" style="rounded=1;whiteSpace=wrap;html=1;fillColor=#dae8fc;strokeColor=#6C8EBF;opacity=50;">
          <mxGeometry as="geometry" height="30" width="120" y="250" x="701" />
        </mxCell>
        <mxCell id="t_dz_ACjwcq5RYALcEdA-44" parent="VnCNZadoxZpTZtr3mc3R-1" style="edgeStyle=orthogonalEdgeStyle;rounded=0;orthogonalLoop=1;jettySize=auto;html=1;labelBackgroundColor=#990000;strokeColor=#666600;fontColor=#990000;entryX=0.583;entryY=0.009;entryDx=0;entryDy=0;entryPerimeter=0;exitX=0.583;exitY=1.065;exitDx=0;exitDy=0;exitPerimeter=0;" edge="1">
          <mxGeometry as="geometry" relative="1">
            <mxPoint as="sourcePoint" y="280.94999999999993" x="120.96000000000003" />
            <mxPoint as="targetPoint" y="399.99" x="120.96000000000003" />
            <Array as="points" />
          </mxGeometry>
        </mxCell>
        <mxCell id="t_dz_ACjwcq5RYALcEdA-45" value="" parent="VnCNZadoxZpTZtr3mc3R-1" style="edgeStyle=orthogonalEdgeStyle;rounded=0;orthogonalLoop=1;jettySize=auto;html=1;labelBackgroundColor=#990000;strokeColor=#994C00;fontColor=#990000;exitX=0.997;exitY=0.684;exitDx=0;exitDy=0;exitPerimeter=0;entryX=-0.001;entryY=0.669;entryDx=0;entryDy=0;entryPerimeter=0;" edge="1">
          <mxGeometry as="geometry" relative="1">
            <mxPoint as="sourcePoint" y="428.2399999999999" x="170.63999999999987" />
            <mxPoint as="targetPoint" y="426.5899999999999" x="200.25" />
            <Array as="points">
              <mxPoint y="427" x="171" />
              <mxPoint y="427" x="181" />
            </Array>
          </mxGeometry>
        </mxCell>
        <mxCell id="t_dz_ACjwcq5RYALcEdA-46" parent="VnCNZadoxZpTZtr3mc3R-1" style="edgeStyle=orthogonalEdgeStyle;rounded=0;orthogonalLoop=1;jettySize=auto;html=1;labelBackgroundColor=#990000;strokeColor=#666600;fontColor=#990000;exitX=0.999;exitY=0.582;exitDx=0;exitDy=0;exitPerimeter=0;entryX=-0.001;entryY=0.582;entryDx=0;entryDy=0;entryPerimeter=0;" edge="1">
          <mxGeometry as="geometry" relative="1">
            <mxPoint as="sourcePoint" y="417.02" x="170.8800000000001" />
            <mxPoint as="targetPoint" y="417.02" x="200.25" />
            <Array as="points" />
          </mxGeometry>
        </mxCell>
        <mxCell id="t_dz_ACjwcq5RYALcEdA-47" value="&lt;font color=&quot;#006633&quot;&gt;The delivery and mop orders to POS&lt;/font&gt;" parent="VnCNZadoxZpTZtr3mc3R-1" vertex="1" style="shape=note;size=15;align=left;spacingLeft=10;html=1;whiteSpace=wrap;strokeColor=#666600;fillColor=none;fontSize=11;fontColor=none;opacity=50;">
          <mxGeometry as="geometry" height="30" width="120" y="210" x="-59" />
        </mxCell>
        <mxCell id="t_dz_ACjwcq5RYALcEdA-48" value="" parent="VnCNZadoxZpTZtr3mc3R-1" style="edgeStyle=none;endArrow=none;exitX=1;exitY=1;dashed=1;html=1;labelBackgroundColor=none;strokeColor=#666600;fontSize=25;fontColor=none;exitDx=0;exitDy=0;exitPerimeter=0;entryX=0;entryY=0.5;entryDx=0;entryDy=0;" edge="1" target="t_dz_ACjwcq5RYALcEdA-18" source="t_dz_ACjwcq5RYALcEdA-47">
          <mxGeometry as="geometry" x="1" relative="1">
            <mxPoint as="targetPoint" y="270" x="201" />
          </mxGeometry>
        </mxCell>
        <mxCell id="t_dz_ACjwcq5RYALcEdA-49" value="&lt;font color=&quot;#006633&quot;&gt;Store retail, delivery and mop orders to ESB. ESB will deliver to enterprise back-end systems and import to order center for order capture.&lt;/font&gt;" parent="VnCNZadoxZpTZtr3mc3R-1" vertex="1" style="shape=note;size=15;align=left;spacingLeft=10;html=1;whiteSpace=wrap;strokeColor=#666600;fillColor=none;fontSize=11;fontColor=none;opacity=50;">
          <mxGeometry as="geometry" height="100" width="150" y="290" x="-77" />
        </mxCell>
        <mxCell id="t_dz_ACjwcq5RYALcEdA-50" value="&lt;span style=&quot;display: inline ; float: none ; background-color: rgb(248 , 249 , 250) ; color: rgb(51 , 0 , 0) ; font-family: &amp;#34;helvetica&amp;#34; ; font-size: 11px ; font-style: normal ; font-variant: normal ; font-weight: normal ; letter-spacing: normal ; line-height: 1.2 ; overflow-wrap: normal ; text-align: center ; text-decoration: none ; text-indent: 0px ; text-transform: none ; white-space: nowrap ; word-spacing: 0px&quot;&gt;Delivery&lt;/span&gt;" parent="VnCNZadoxZpTZtr3mc3R-1" vertex="1" style="text;html=1;strokeColor=none;fillColor=none;align=center;verticalAlign=middle;whiteSpace=wrap;rounded=0;fontSize=11;fontColor=none;opacity=50;">
          <mxGeometry as="geometry" height="20" width="40" y="200" x="261" />
        </mxCell>
        <mxCell id="t_dz_ACjwcq5RYALcEdA-51" value="" parent="VnCNZadoxZpTZtr3mc3R-1" vertex="1" style="rounded=1;whiteSpace=wrap;html=1;fillColor=#ffe6cc;strokeColor=#d79b00;opacity=50;">
          <mxGeometry as="geometry" height="20" width="30" y="897" x="51" />
        </mxCell>
        <mxCell id="t_dz_ACjwcq5RYALcEdA-52" value="" parent="VnCNZadoxZpTZtr3mc3R-1" vertex="1" style="rounded=1;whiteSpace=wrap;html=1;fillColor=#dae8fc;strokeColor=#6c8ebf;opacity=50;">
          <mxGeometry as="geometry" height="20" width="30" y="927" x="51" />
        </mxCell>
        <mxCell id="t_dz_ACjwcq5RYALcEdA-53" value="" parent="VnCNZadoxZpTZtr3mc3R-1" vertex="1" style="rounded=1;whiteSpace=wrap;html=1;fillColor=#d5e8d4;strokeColor=#82b366;opacity=50;">
          <mxGeometry as="geometry" height="20" width="30" y="957" x="51" />
        </mxCell>
        <mxCell id="t_dz_ACjwcq5RYALcEdA-54" value="" parent="VnCNZadoxZpTZtr3mc3R-1" vertex="1" style="rounded=1;whiteSpace=wrap;html=1;fillColor=#f5f5f5;strokeColor=#666666;opacity=50;fontColor=#333333;">
          <mxGeometry as="geometry" height="20" width="30" y="987" x="51" />
        </mxCell>
        <mxCell id="t_dz_ACjwcq5RYALcEdA-55" value="Existing system deployed in IDC" parent="VnCNZadoxZpTZtr3mc3R-1" vertex="1" style="text;html=1;strokeColor=none;fillColor=none;align=left;verticalAlign=middle;whiteSpace=wrap;rounded=0;fontSize=11;fontColor=none;opacity=50;">
          <mxGeometry as="geometry" height="20" width="180" y="897" x="101" />
        </mxCell>
        <mxCell id="t_dz_ACjwcq5RYALcEdA-56" value="External system" parent="VnCNZadoxZpTZtr3mc3R-1" vertex="1" style="text;html=1;strokeColor=none;fillColor=none;align=left;verticalAlign=middle;whiteSpace=wrap;rounded=0;fontSize=11;fontColor=none;opacity=50;">
          <mxGeometry as="geometry" height="20" width="180" y="927" x="101" />
        </mxCell>
        <mxCell id="t_dz_ACjwcq5RYALcEdA-57" value="Business center in middle layer deployed in Azure&amp;nbsp;" parent="VnCNZadoxZpTZtr3mc3R-1" vertex="1" style="text;html=1;strokeColor=none;fillColor=none;align=left;verticalAlign=middle;whiteSpace=wrap;rounded=0;fontSize=11;fontColor=none;opacity=50;">
          <mxGeometry as="geometry" height="28.89" width="280" y="957" x="101" />
        </mxCell>
        <mxCell id="t_dz_ACjwcq5RYALcEdA-58" value="Store scenario or iStore system" parent="VnCNZadoxZpTZtr3mc3R-1" vertex="1" style="text;html=1;strokeColor=none;fillColor=none;align=left;verticalAlign=middle;whiteSpace=wrap;rounded=0;fontSize=11;fontColor=none;opacity=50;">
          <mxGeometry as="geometry" height="28.89" width="260" y="983" x="101" />
        </mxCell>
        <mxCell id="t_dz_ACjwcq5RYALcEdA-59" value="" parent="VnCNZadoxZpTZtr3mc3R-1" style="edgeStyle=none;endArrow=none;exitX=0;exitY=0;dashed=1;html=1;labelBackgroundColor=none;strokeColor=#666600;fontSize=25;fontColor=none;exitDx=150;exitDy=52.5;exitPerimeter=0;" edge="1" source="t_dz_ACjwcq5RYALcEdA-49">
          <mxGeometry as="geometry" x="1" relative="1">
            <mxPoint as="targetPoint" y="320" x="101" />
            <mxPoint as="sourcePoint" y="299.9999999999999" x="239" />
          </mxGeometry>
        </mxCell>
        <mxCell id="t_dz_ACjwcq5RYALcEdA-60" value="&lt;font color=&quot;#006633&quot;&gt;Store retail, delivery, mop, hema and SRkit orders are delivered to enterprise back-end systems&lt;/font&gt;" parent="VnCNZadoxZpTZtr3mc3R-1" vertex="1" style="shape=note;size=15;align=left;spacingLeft=10;html=1;whiteSpace=wrap;strokeColor=#666600;fillColor=none;fontSize=11;fontColor=none;opacity=50;">
          <mxGeometry as="geometry" height="80" width="150" y="550" x="-227" />
        </mxCell>
        <mxCell id="t_dz_ACjwcq5RYALcEdA-61" value="" parent="VnCNZadoxZpTZtr3mc3R-1" style="edgeStyle=none;endArrow=none;exitX=0;exitY=0;dashed=1;html=1;labelBackgroundColor=none;strokeColor=#666600;fontSize=25;fontColor=none;exitDx=67.5;exitDy=0;exitPerimeter=0;" edge="1" source="t_dz_ACjwcq5RYALcEdA-60">
          <mxGeometry as="geometry" x="1" relative="1">
            <mxPoint as="targetPoint" y="530" x="111" />
            <mxPoint as="sourcePoint" y="489.9999999999999" x="299" />
          </mxGeometry>
        </mxCell>
        <mxCell id="t_dz_ACjwcq5RYALcEdA-62" value="&lt;font color=&quot;#006633&quot;&gt;Store retail, delivery and mop orders to order center for capture&lt;/font&gt;" parent="VnCNZadoxZpTZtr3mc3R-1" vertex="1" style="shape=note;size=15;align=left;spacingLeft=10;html=1;whiteSpace=wrap;strokeColor=#666600;fillColor=none;fontSize=11;fontColor=none;opacity=50;">
          <mxGeometry as="geometry" height="50" width="150" y="315" x="166" />
        </mxCell>
        <mxCell id="t_dz_ACjwcq5RYALcEdA-63" value="" parent="VnCNZadoxZpTZtr3mc3R-1" style="edgeStyle=none;endArrow=none;dashed=1;html=1;labelBackgroundColor=none;strokeColor=#666600;fontSize=25;fontColor=none;exitX=0.343;exitY=0.988;exitDx=0;exitDy=0;exitPerimeter=0;" edge="1" source="t_dz_ACjwcq5RYALcEdA-62">
          <mxGeometry as="geometry" x="1" relative="1">
            <mxPoint as="targetPoint" y="420" x="171" />
            <mxPoint as="sourcePoint" y="442.5" x="41" />
          </mxGeometry>
        </mxCell>
        <mxCell id="t_dz_ACjwcq5RYALcEdA-64" value="&lt;font color=&quot;#006633&quot;&gt;iStore orders (only the member&#39;s orders) will be&amp;nbsp;delivered&amp;nbsp;to&amp;nbsp;Siebel only&amp;nbsp;&lt;/font&gt;&lt;span style=&quot;color: rgb(0 , 102 , 51)&quot;&gt;by ESB&amp;nbsp;&lt;/span&gt;&lt;font color=&quot;#006633&quot;&gt;for star&amp;nbsp;accumulation&lt;/font&gt;" parent="VnCNZadoxZpTZtr3mc3R-1" vertex="1" style="shape=note;size=15;align=left;spacingLeft=10;html=1;whiteSpace=wrap;strokeColor=#000066;fillColor=none;fontSize=11;fontColor=none;opacity=50;">
          <mxGeometry as="geometry" height="50" width="186" y="410" x="217" />
        </mxCell>
        <mxCell id="t_dz_ACjwcq5RYALcEdA-65" value="" parent="VnCNZadoxZpTZtr3mc3R-1" style="edgeStyle=none;endArrow=none;dashed=1;html=1;labelBackgroundColor=none;strokeColor=#000066;fontSize=25;fontColor=none;exitX=0;exitY=0.5;exitDx=0;exitDy=0;exitPerimeter=0;" edge="1" source="t_dz_ACjwcq5RYALcEdA-64">
          <mxGeometry as="geometry" x="1" relative="1">
            <mxPoint as="targetPoint" y="470" x="187" />
            <mxPoint as="sourcePoint" y="350" x="801" />
          </mxGeometry>
        </mxCell>
        <mxCell id="t_dz_ACjwcq5RYALcEdA-66" value="&lt;font color=&quot;#006633&quot;&gt;Hema and SRkit will be delivered to&amp;nbsp; enterprise back-end systems by ESB&lt;/font&gt;" parent="VnCNZadoxZpTZtr3mc3R-1" vertex="1" style="shape=note;size=15;align=left;spacingLeft=10;html=1;whiteSpace=wrap;strokeColor=#000066;fillColor=none;fontSize=11;fontColor=none;opacity=50;">
          <mxGeometry as="geometry" height="30" width="210" y="465" x="217" />
        </mxCell>
        <mxCell id="t_dz_ACjwcq5RYALcEdA-67" value="" parent="VnCNZadoxZpTZtr3mc3R-1" style="edgeStyle=none;endArrow=none;dashed=1;html=1;labelBackgroundColor=none;strokeColor=#000066;fontSize=25;fontColor=none;exitX=0;exitY=0.5;exitDx=0;exitDy=0;exitPerimeter=0;" edge="1" source="t_dz_ACjwcq5RYALcEdA-66">
          <mxGeometry as="geometry" x="1" relative="1">
            <mxPoint as="targetPoint" y="490" x="191" />
            <mxPoint as="sourcePoint" y="360" x="811" />
          </mxGeometry>
        </mxCell>
        <mxCell id="t_dz_ACjwcq5RYALcEdA-68" value="&lt;font color=&quot;#990000&quot;&gt;Distributed Order UUID Generator&amp;nbsp;&lt;br&gt;(DownStream System not Accept Order UUID)&lt;/font&gt;" parent="VnCNZadoxZpTZtr3mc3R-1" vertex="1" style="text;html=1;fontSize=11;fontColor=none;">
          <mxGeometry as="geometry" height="30" width="210" y="470" x="711" />
        </mxCell>
        <mxCell id="t_dz_ACjwcq5RYALcEdA-69" value="" parent="VnCNZadoxZpTZtr3mc3R-1" style="edgeStyle=orthogonalEdgeStyle;rounded=0;orthogonalLoop=1;jettySize=auto;html=1;labelBackgroundColor=none;strokeColor=#994C00;fontColor=#330000;entryX=0.174;entryY=0.002;entryDx=0;entryDy=0;entryPerimeter=0;" edge="1" target="t_dz_ACjwcq5RYALcEdA-86" source="t_dz_ACjwcq5RYALcEdA-70">
          <mxGeometry as="geometry" relative="1">
            <mxPoint as="targetPoint" y="250" x="1506" />
            <Array as="points">
              <mxPoint y="220" x="1616" />
              <mxPoint y="220" x="1531" />
            </Array>
          </mxGeometry>
        </mxCell>
        <mxCell id="t_dz_ACjwcq5RYALcEdA-70" value="Eleme&lt;br&gt;&amp;nbsp;Delivery" parent="VnCNZadoxZpTZtr3mc3R-1" vertex="1" style="rounded=1;whiteSpace=wrap;html=1;fillColor=#dae8fc;strokeColor=#6C8EBF;opacity=50;">
          <mxGeometry as="geometry" height="60" width="120" y="120" x="1556" />
        </mxCell>
        <mxCell id="t_dz_ACjwcq5RYALcEdA-71" value="&lt;span style=&quot;font-weight: normal&quot;&gt;Store retail&amp;nbsp;&lt;br&gt;&lt;/span&gt;" parent="VnCNZadoxZpTZtr3mc3R-1" style="edgeStyle=orthogonalEdgeStyle;rounded=0;orthogonalLoop=1;jettySize=auto;html=1;exitX=0.5;exitY=1;exitDx=0;exitDy=0;fontStyle=1;strokeColor=#660000;" edge="1" target="t_dz_ACjwcq5RYALcEdA-89" source="t_dz_ACjwcq5RYALcEdA-72">
          <mxGeometry as="geometry" x="-0.1429" relative="1">
            <mxPoint as="offset" y="1" />
          </mxGeometry>
        </mxCell>
        <mxCell id="t_dz_ACjwcq5RYALcEdA-72" value="&lt;span style=&quot;font: 12px / 1.2 &amp;#34;helvetica&amp;#34; ; color: rgb(0 , 0 , 0) ; text-transform: none ; text-indent: 0px ; letter-spacing: normal ; text-decoration: none ; word-spacing: 0px ; display: inline ; white-space: normal ; float: none ; overflow-wrap: normal ; background-color: rgb(248 , 249 , 250)&quot;&gt;In &lt;/span&gt;Store&lt;br&gt;Sales&lt;br&gt;&amp;nbsp;" parent="VnCNZadoxZpTZtr3mc3R-1" vertex="1" style="rounded=1;whiteSpace=wrap;html=1;fillColor=#f5f5f5;align=center;verticalAlign=bottom;strokeColor=#666666;fontColor=#333333;">
          <mxGeometry as="geometry" height="60" width="120" y="120" x="1296" />
        </mxCell>
        <mxCell id="t_dz_ACjwcq5RYALcEdA-73" value="Mop" parent="VnCNZadoxZpTZtr3mc3R-1" style="edgeStyle=orthogonalEdgeStyle;rounded=0;orthogonalLoop=1;jettySize=auto;html=1;entryX=0.608;entryY=0.027;entryDx=0;entryDy=0;entryPerimeter=0;labelBackgroundColor=none;strokeColor=#666600;fontColor=#330000;" edge="1" target="t_dz_ACjwcq5RYALcEdA-86" source="t_dz_ACjwcq5RYALcEdA-74">
          <mxGeometry as="geometry" relative="1" />
        </mxCell>
        <mxCell id="t_dz_ACjwcq5RYALcEdA-74" value="SBUX App&amp;nbsp;&lt;br&gt;MOP" parent="VnCNZadoxZpTZtr3mc3R-1" vertex="1" style="rounded=1;whiteSpace=wrap;html=1;fillColor=#dae8fc;strokeColor=#6C8EBF;opacity=50;">
          <mxGeometry as="geometry" height="60" width="120" y="120" x="1684" />
        </mxCell>
        <mxCell id="t_dz_ACjwcq5RYALcEdA-75" value="" parent="VnCNZadoxZpTZtr3mc3R-1" style="edgeStyle=orthogonalEdgeStyle;rounded=0;orthogonalLoop=1;jettySize=auto;html=1;labelBackgroundColor=#FFFFFF;strokeColor=#994C00;fontColor=#330000;entryX=0.176;entryY=0.002;entryDx=0;entryDy=0;entryPerimeter=0;" edge="1">
          <mxGeometry as="geometry" relative="1">
            <mxPoint as="sourcePoint" y="180" x="1483" />
            <mxPoint as="targetPoint" y="250.05999999999994" x="1531.2399999999997" />
            <Array as="points">
              <mxPoint y="220" x="1483" />
              <mxPoint y="220" x="1531" />
            </Array>
          </mxGeometry>
        </mxCell>
        <mxCell id="t_dz_ACjwcq5RYALcEdA-76" value="SBUX App&lt;br&gt;Delivery" parent="VnCNZadoxZpTZtr3mc3R-1" vertex="1" style="rounded=1;whiteSpace=wrap;html=1;fillColor=#dae8fc;strokeColor=#6C8EBF;opacity=50;">
          <mxGeometry as="geometry" height="60" width="120" y="120" x="1424" />
        </mxCell>
        <mxCell id="t_dz_ACjwcq5RYALcEdA-77" value="Hema hidden kitchen" parent="VnCNZadoxZpTZtr3mc3R-1" style="edgeStyle=orthogonalEdgeStyle;rounded=0;orthogonalLoop=1;jettySize=auto;html=1;labelBackgroundColor=none;strokeColor=#A680B8;fontColor=#330000;entryX=0.872;entryY=-0.063;entryDx=0;entryDy=0;entryPerimeter=0;" edge="1" target="t_dz_ACjwcq5RYALcEdA-86" source="t_dz_ACjwcq5RYALcEdA-78">
          <mxGeometry as="geometry" relative="1">
            <Array as="points">
              <mxPoint y="215" x="1873" />
            </Array>
          </mxGeometry>
        </mxCell>
        <mxCell id="t_dz_ACjwcq5RYALcEdA-78" value="Hema" parent="VnCNZadoxZpTZtr3mc3R-1" vertex="1" style="rounded=1;whiteSpace=wrap;html=1;fillColor=#dae8fc;strokeColor=#6C8EBF;opacity=50;">
          <mxGeometry as="geometry" height="60" width="120" y="120" x="1816" />
        </mxCell>
        <mxCell id="t_dz_ACjwcq5RYALcEdA-79" value="iStore" parent="VnCNZadoxZpTZtr3mc3R-1" style="edgeStyle=orthogonalEdgeStyle;rounded=0;orthogonalLoop=1;jettySize=auto;html=1;labelBackgroundColor=none;strokeColor=#000066;fontColor=#330000;" edge="1" target="t_dz_ACjwcq5RYALcEdA-104" source="t_dz_ACjwcq5RYALcEdA-80">
          <mxGeometry as="geometry" relative="1">
            <Array as="points">
              <mxPoint y="200" x="2006" />
              <mxPoint y="200" x="2006" />
            </Array>
          </mxGeometry>
        </mxCell>
        <mxCell id="t_dz_ACjwcq5RYALcEdA-80" value="iStore Tmall" parent="VnCNZadoxZpTZtr3mc3R-1" vertex="1" style="rounded=1;whiteSpace=wrap;html=1;fillColor=#dae8fc;strokeColor=#6c8ebf;opacity=50;">
          <mxGeometry as="geometry" height="60" width="120" y="120" x="1948" />
        </mxCell>
        <mxCell id="t_dz_ACjwcq5RYALcEdA-81" value="SRkit" parent="VnCNZadoxZpTZtr3mc3R-1" style="edgeStyle=orthogonalEdgeStyle;rounded=0;orthogonalLoop=1;jettySize=auto;html=1;labelBackgroundColor=none;strokeColor=#4D9900;fontColor=#330000;" edge="1" target="t_dz_ACjwcq5RYALcEdA-102" source="t_dz_ACjwcq5RYALcEdA-82">
          <mxGeometry as="geometry" relative="1">
            <Array as="points">
              <mxPoint y="200" x="2136" />
              <mxPoint y="200" x="2136" />
            </Array>
          </mxGeometry>
        </mxCell>
        <mxCell id="t_dz_ACjwcq5RYALcEdA-82" value="SBUX App&lt;br&gt;SRkit" parent="VnCNZadoxZpTZtr3mc3R-1" vertex="1" style="rounded=1;whiteSpace=wrap;html=1;fillColor=#dae8fc;strokeColor=#6C8EBF;opacity=50;">
          <mxGeometry as="geometry" height="60" width="120" y="120" x="2079" />
        </mxCell>
        <mxCell id="t_dz_ACjwcq5RYALcEdA-83" value="&lt;b&gt;Conceptual of Architecture-Order Data Business Flow &lt;/b&gt;&lt;br&gt;&lt;b&gt;- &lt;/b&gt;&lt;font style=&quot;font-size: 20px&quot;&gt;Service type decoupling and data integration&lt;/font&gt;" parent="VnCNZadoxZpTZtr3mc3R-1" vertex="1" style="text;html=1;align=center;fontSize=25;">
          <mxGeometry as="geometry" height="40" width="850" y="30" x="1326" />
        </mxCell>
        <mxCell id="t_dz_ACjwcq5RYALcEdA-84" parent="VnCNZadoxZpTZtr3mc3R-1" style="edgeStyle=orthogonalEdgeStyle;rounded=0;orthogonalLoop=1;jettySize=auto;html=1;exitX=0;exitY=0.25;exitDx=0;exitDy=0;labelBackgroundColor=#990000;strokeColor=#994C00;fontColor=#990000;" edge="1" target="t_dz_ACjwcq5RYALcEdA-89" source="t_dz_ACjwcq5RYALcEdA-86">
          <mxGeometry as="geometry" relative="1">
            <Array as="points">
              <mxPoint y="257" x="1416" />
              <mxPoint y="257" x="1416" />
            </Array>
          </mxGeometry>
        </mxCell>
        <mxCell id="t_dz_ACjwcq5RYALcEdA-85" value="" parent="VnCNZadoxZpTZtr3mc3R-1" style="edgeStyle=orthogonalEdgeStyle;rounded=0;orthogonalLoop=1;jettySize=auto;html=1;labelBackgroundColor=#990000;strokeColor=#666600;fontColor=#990000;" edge="1" target="t_dz_ACjwcq5RYALcEdA-89" source="t_dz_ACjwcq5RYALcEdA-86">
          <mxGeometry as="geometry" relative="1" />
        </mxCell>
        <mxCell id="t_dz_ACjwcq5RYALcEdA-86" value="O2O-OMS" parent="VnCNZadoxZpTZtr3mc3R-1" vertex="1" style="rounded=1;whiteSpace=wrap;html=1;fillColor=#ffe6cc;strokeColor=#d79b00;opacity=50;">
          <mxGeometry as="geometry" height="30" width="490" y="250" x="1446" />
        </mxCell>
        <mxCell id="t_dz_ACjwcq5RYALcEdA-87" parent="VnCNZadoxZpTZtr3mc3R-1" style="edgeStyle=orthogonalEdgeStyle;rounded=0;orthogonalLoop=1;jettySize=auto;html=1;exitX=0.5;exitY=1;exitDx=0;exitDy=0;entryX=0.414;entryY=0.004;entryDx=0;entryDy=0;labelBackgroundColor=#990000;strokeColor=#660000;fontColor=#990000;entryPerimeter=0;" edge="1" target="t_dz_ACjwcq5RYALcEdA-96">
          <mxGeometry as="geometry" relative="1">
            <mxPoint as="sourcePoint" y="280" x="1346" />
            <mxPoint as="targetPoint" y="339.9999999999999" x="1346" />
          </mxGeometry>
        </mxCell>
        <mxCell id="t_dz_ACjwcq5RYALcEdA-88" value="" parent="VnCNZadoxZpTZtr3mc3R-1" style="edgeStyle=orthogonalEdgeStyle;rounded=0;orthogonalLoop=1;jettySize=auto;html=1;labelBackgroundColor=#990000;strokeColor=#994C00;fontColor=#990000;" edge="1" target="t_dz_ACjwcq5RYALcEdA-96" source="t_dz_ACjwcq5RYALcEdA-89">
          <mxGeometry as="geometry" relative="1" />
        </mxCell>
        <mxCell id="t_dz_ACjwcq5RYALcEdA-89" value="Symphony POS" parent="VnCNZadoxZpTZtr3mc3R-1" vertex="1" style="rounded=1;whiteSpace=wrap;html=1;fillColor=#f5f5f5;strokeColor=#666666;fontColor=#333333;">
          <mxGeometry as="geometry" height="30" width="120" y="250" x="1296" />
        </mxCell>
        <mxCell id="t_dz_ACjwcq5RYALcEdA-90" parent="VnCNZadoxZpTZtr3mc3R-1" style="edgeStyle=orthogonalEdgeStyle;rounded=0;orthogonalLoop=1;jettySize=auto;html=1;exitX=1;exitY=0.75;exitDx=0;exitDy=0;entryX=0;entryY=0.75;entryDx=0;entryDy=0;labelBackgroundColor=#990000;strokeColor=#660000;fontColor=#990000;" edge="1">
          <mxGeometry as="geometry" relative="1">
            <mxPoint as="sourcePoint" y="435.5" x="1416" />
            <mxPoint as="targetPoint" y="435.5" x="1446" />
          </mxGeometry>
        </mxCell>
        <mxCell id="t_dz_ACjwcq5RYALcEdA-91" parent="VnCNZadoxZpTZtr3mc3R-1" style="edgeStyle=orthogonalEdgeStyle;rounded=0;orthogonalLoop=1;jettySize=auto;html=1;entryX=0.5;entryY=0;entryDx=0;entryDy=0;labelBackgroundColor=none;strokeColor=#330000;fontSize=11;fontColor=none;exitX=0.5;exitY=1;exitDx=0;exitDy=0;" edge="1" target="t_dz_ACjwcq5RYALcEdA-105" source="t_dz_ACjwcq5RYALcEdA-96">
          <mxGeometry as="geometry" relative="1" />
        </mxCell>
        <mxCell id="t_dz_ACjwcq5RYALcEdA-92" parent="VnCNZadoxZpTZtr3mc3R-1" style="edgeStyle=orthogonalEdgeStyle;rounded=0;orthogonalLoop=1;jettySize=auto;html=1;exitX=0.5;exitY=1;exitDx=0;exitDy=0;entryX=0.5;entryY=0;entryDx=0;entryDy=0;labelBackgroundColor=none;strokeColor=#330000;fontSize=11;fontColor=none;" edge="1" target="t_dz_ACjwcq5RYALcEdA-106" source="t_dz_ACjwcq5RYALcEdA-96">
          <mxGeometry as="geometry" relative="1" />
        </mxCell>
        <mxCell id="t_dz_ACjwcq5RYALcEdA-93" parent="VnCNZadoxZpTZtr3mc3R-1" style="edgeStyle=orthogonalEdgeStyle;rounded=0;orthogonalLoop=1;jettySize=auto;html=1;exitX=0.5;exitY=1;exitDx=0;exitDy=0;entryX=0.5;entryY=0;entryDx=0;entryDy=0;labelBackgroundColor=none;strokeColor=#330000;fontSize=11;fontColor=none;" edge="1" target="t_dz_ACjwcq5RYALcEdA-108" source="t_dz_ACjwcq5RYALcEdA-96">
          <mxGeometry as="geometry" relative="1" />
        </mxCell>
        <mxCell id="t_dz_ACjwcq5RYALcEdA-94" parent="VnCNZadoxZpTZtr3mc3R-1" style="edgeStyle=orthogonalEdgeStyle;rounded=0;orthogonalLoop=1;jettySize=auto;html=1;exitX=0.5;exitY=1;exitDx=0;exitDy=0;entryX=0;entryY=0.5;entryDx=0;entryDy=0;labelBackgroundColor=none;strokeColor=#330000;fontSize=11;fontColor=none;" edge="1" target="t_dz_ACjwcq5RYALcEdA-110" source="t_dz_ACjwcq5RYALcEdA-96">
          <mxGeometry as="geometry" relative="1" />
        </mxCell>
        <mxCell id="t_dz_ACjwcq5RYALcEdA-95" parent="VnCNZadoxZpTZtr3mc3R-1" style="edgeStyle=orthogonalEdgeStyle;rounded=0;orthogonalLoop=1;jettySize=auto;html=1;exitX=0.5;exitY=1;exitDx=0;exitDy=0;entryX=0.5;entryY=0;entryDx=0;entryDy=0;labelBackgroundColor=none;strokeColor=#330000;fontSize=11;fontColor=none;" edge="1" target="t_dz_ACjwcq5RYALcEdA-100" source="t_dz_ACjwcq5RYALcEdA-96">
          <mxGeometry as="geometry" relative="1" />
        </mxCell>
        <mxCell id="t_dz_ACjwcq5RYALcEdA-96" value="ESB" parent="VnCNZadoxZpTZtr3mc3R-1" vertex="1" style="rounded=1;whiteSpace=wrap;html=1;fillColor=#ffe6cc;strokeColor=#d79b00;opacity=50;">
          <mxGeometry as="geometry" height="110" width="120" y="400" x="1296" />
        </mxCell>
        <mxCell id="t_dz_ACjwcq5RYALcEdA-97" value="" parent="VnCNZadoxZpTZtr3mc3R-1" style="edgeStyle=orthogonalEdgeStyle;rounded=0;orthogonalLoop=1;jettySize=auto;html=1;labelBackgroundColor=none;strokeColor=#A680B8;fontSize=11;fontColor=none;" edge="1">
          <mxGeometry as="geometry" relative="1">
            <mxPoint as="sourcePoint" y="481" x="1446" />
            <mxPoint as="targetPoint" y="481" x="1416" />
          </mxGeometry>
        </mxCell>
        <mxCell id="t_dz_ACjwcq5RYALcEdA-98" parent="VnCNZadoxZpTZtr3mc3R-1" style="edgeStyle=orthogonalEdgeStyle;rounded=0;orthogonalLoop=1;jettySize=auto;html=1;exitX=0;exitY=0.75;exitDx=0;exitDy=0;entryX=1;entryY=0.75;entryDx=0;entryDy=0;labelBackgroundColor=none;strokeColor=#4D9900;fontSize=11;fontColor=none;" edge="1">
          <mxGeometry as="geometry" relative="1">
            <mxPoint as="sourcePoint" y="489.5" x="1446" />
            <mxPoint as="targetPoint" y="489.5" x="1416" />
          </mxGeometry>
        </mxCell>
        <mxCell id="t_dz_ACjwcq5RYALcEdA-99" value="&lt;font style=&quot;font-size: 23px&quot;&gt;Order Center in Middle layer&lt;/font&gt;" parent="VnCNZadoxZpTZtr3mc3R-1" vertex="1" style="rounded=1;whiteSpace=wrap;html=1;fillColor=#d5e8d4;strokeColor=#82b366;opacity=50;">
          <mxGeometry as="geometry" height="110" width="750" y="400" x="1446" />
        </mxCell>
        <mxCell id="t_dz_ACjwcq5RYALcEdA-100" value="BOH" parent="VnCNZadoxZpTZtr3mc3R-1" vertex="1" style="rounded=1;whiteSpace=wrap;html=1;fillColor=#ffe6cc;strokeColor=#d79b00;opacity=50;">
          <mxGeometry as="geometry" height="30" width="130" y="560" x="1446" />
        </mxCell>
        <mxCell id="t_dz_ACjwcq5RYALcEdA-101" value="" parent="VnCNZadoxZpTZtr3mc3R-1" style="edgeStyle=orthogonalEdgeStyle;rounded=0;orthogonalLoop=1;jettySize=auto;html=1;labelBackgroundColor=#990000;strokeColor=#4D9900;fontColor=#990000;" edge="1" target="t_dz_ACjwcq5RYALcEdA-99" source="t_dz_ACjwcq5RYALcEdA-102">
          <mxGeometry as="geometry" relative="1">
            <Array as="points">
              <mxPoint y="370" x="2136" />
              <mxPoint y="370" x="2136" />
            </Array>
          </mxGeometry>
        </mxCell>
        <mxCell id="t_dz_ACjwcq5RYALcEdA-102" value="App Digital OMS" parent="VnCNZadoxZpTZtr3mc3R-1" vertex="1" style="rounded=1;whiteSpace=wrap;html=1;fillColor=#ffe6cc;strokeColor=#d79b00;opacity=50;">
          <mxGeometry as="geometry" height="30" width="120" y="250" x="2076" />
        </mxCell>
        <mxCell id="t_dz_ACjwcq5RYALcEdA-103" value="" parent="VnCNZadoxZpTZtr3mc3R-1" style="edgeStyle=orthogonalEdgeStyle;rounded=0;orthogonalLoop=1;jettySize=auto;html=1;labelBackgroundColor=#990000;strokeColor=#000066;fontColor=#990000;" edge="1" target="t_dz_ACjwcq5RYALcEdA-99" source="t_dz_ACjwcq5RYALcEdA-104">
          <mxGeometry as="geometry" relative="1">
            <Array as="points">
              <mxPoint y="330" x="2006" />
              <mxPoint y="330" x="2006" />
            </Array>
          </mxGeometry>
        </mxCell>
        <mxCell id="t_dz_ACjwcq5RYALcEdA-104" value="Taobao open platform" parent="VnCNZadoxZpTZtr3mc3R-1" vertex="1" style="rounded=1;whiteSpace=wrap;html=1;fillColor=#dae8fc;strokeColor=#6C8EBF;opacity=50;">
          <mxGeometry as="geometry" height="30" width="120" y="250" x="1946" />
        </mxCell>
        <mxCell id="t_dz_ACjwcq5RYALcEdA-105" value="HEX" parent="VnCNZadoxZpTZtr3mc3R-1" vertex="1" style="rounded=1;whiteSpace=wrap;html=1;fillColor=#ffe6cc;strokeColor=#d79b00;opacity=50;">
          <mxGeometry as="geometry" height="30" width="130" y="560" x="1596" />
        </mxCell>
        <mxCell id="t_dz_ACjwcq5RYALcEdA-106" value="Siebel" parent="VnCNZadoxZpTZtr3mc3R-1" vertex="1" style="rounded=1;whiteSpace=wrap;html=1;fillColor=#ffe6cc;strokeColor=#d79b00;opacity=50;">
          <mxGeometry as="geometry" height="30" width="130" y="560" x="1746" />
        </mxCell>
        <mxCell id="t_dz_ACjwcq5RYALcEdA-107" parent="VnCNZadoxZpTZtr3mc3R-1" style="edgeStyle=orthogonalEdgeStyle;rounded=0;orthogonalLoop=1;jettySize=auto;html=1;exitX=0.5;exitY=1;exitDx=0;exitDy=0;entryX=0.5;entryY=0;entryDx=0;entryDy=0;labelBackgroundColor=none;strokeColor=#330000;fontSize=11;fontColor=none;" edge="1" target="t_dz_ACjwcq5RYALcEdA-110" source="t_dz_ACjwcq5RYALcEdA-108">
          <mxGeometry as="geometry" relative="1" />
        </mxCell>
        <mxCell id="t_dz_ACjwcq5RYALcEdA-108" value="URP" parent="VnCNZadoxZpTZtr3mc3R-1" vertex="1" style="rounded=1;whiteSpace=wrap;html=1;fillColor=#ffe6cc;strokeColor=#d79b00;opacity=50;">
          <mxGeometry as="geometry" height="30" width="130" y="560" x="1899" />
        </mxCell>
        <mxCell id="t_dz_ACjwcq5RYALcEdA-109" value="BI" parent="VnCNZadoxZpTZtr3mc3R-1" vertex="1" style="rounded=1;whiteSpace=wrap;html=1;fillColor=#ffe6cc;strokeColor=#d79b00;opacity=50;">
          <mxGeometry as="geometry" height="30" width="140" y="630" x="2066" />
        </mxCell>
        <mxCell id="t_dz_ACjwcq5RYALcEdA-110" value="SAT" parent="VnCNZadoxZpTZtr3mc3R-1" vertex="1" style="rounded=1;whiteSpace=wrap;html=1;fillColor=#ffe6cc;strokeColor=#d79b00;opacity=50;">
          <mxGeometry as="geometry" height="30" width="130" y="630" x="1899" />
        </mxCell>
        <mxCell id="t_dz_ACjwcq5RYALcEdA-111" parent="VnCNZadoxZpTZtr3mc3R-1" style="edgeStyle=orthogonalEdgeStyle;rounded=0;orthogonalLoop=1;jettySize=auto;html=1;labelBackgroundColor=#990000;strokeColor=#666600;fontColor=#990000;entryX=0.583;entryY=0.009;entryDx=0;entryDy=0;entryPerimeter=0;exitX=0.583;exitY=1.065;exitDx=0;exitDy=0;exitPerimeter=0;" edge="1">
          <mxGeometry as="geometry" relative="1">
            <mxPoint as="sourcePoint" y="280.9499999999998" x="1365.96" />
            <mxPoint as="targetPoint" y="399.99" x="1365.96" />
            <Array as="points" />
          </mxGeometry>
        </mxCell>
        <mxCell id="t_dz_ACjwcq5RYALcEdA-112" value="" parent="VnCNZadoxZpTZtr3mc3R-1" style="edgeStyle=orthogonalEdgeStyle;rounded=0;orthogonalLoop=1;jettySize=auto;html=1;labelBackgroundColor=#990000;strokeColor=#994C00;fontColor=#990000;exitX=0.997;exitY=0.684;exitDx=0;exitDy=0;exitPerimeter=0;entryX=-0.001;entryY=0.669;entryDx=0;entryDy=0;entryPerimeter=0;" edge="1">
          <mxGeometry as="geometry" relative="1">
            <mxPoint as="sourcePoint" y="428.2399999999998" x="1415.6399999999998" />
            <mxPoint as="targetPoint" y="426.5899999999999" x="1445.25" />
            <Array as="points">
              <mxPoint y="427" x="1416" />
              <mxPoint y="427" x="1426" />
            </Array>
          </mxGeometry>
        </mxCell>
        <mxCell id="t_dz_ACjwcq5RYALcEdA-113" parent="VnCNZadoxZpTZtr3mc3R-1" style="edgeStyle=orthogonalEdgeStyle;rounded=0;orthogonalLoop=1;jettySize=auto;html=1;labelBackgroundColor=#990000;strokeColor=#666600;fontColor=#990000;exitX=0.999;exitY=0.582;exitDx=0;exitDy=0;exitPerimeter=0;entryX=-0.001;entryY=0.582;entryDx=0;entryDy=0;entryPerimeter=0;" edge="1">
          <mxGeometry as="geometry" relative="1">
            <mxPoint as="sourcePoint" y="417.02" x="1415.88" />
            <mxPoint as="targetPoint" y="417.02" x="1445.25" />
            <Array as="points" />
          </mxGeometry>
        </mxCell>
        <mxCell id="t_dz_ACjwcq5RYALcEdA-114" value="&lt;span style=&quot;color: rgb(0 , 102 , 51)&quot;&gt;The delivery and mop orders to POS&lt;/span&gt;" parent="VnCNZadoxZpTZtr3mc3R-1" vertex="1" style="shape=note;size=15;align=left;spacingLeft=10;html=1;whiteSpace=wrap;strokeColor=#666600;fillColor=none;fontSize=11;fontColor=none;opacity=50;">
          <mxGeometry as="geometry" height="50" width="100" y="200" x="1186" />
        </mxCell>
        <mxCell id="t_dz_ACjwcq5RYALcEdA-115" value="" parent="VnCNZadoxZpTZtr3mc3R-1" style="edgeStyle=none;endArrow=none;exitX=1;exitY=1;dashed=1;html=1;labelBackgroundColor=none;strokeColor=#666600;fontSize=25;fontColor=none;exitDx=0;exitDy=0;exitPerimeter=0;entryX=0;entryY=0.5;entryDx=0;entryDy=0;" edge="1" target="t_dz_ACjwcq5RYALcEdA-86" source="t_dz_ACjwcq5RYALcEdA-114">
          <mxGeometry as="geometry" x="1" relative="1">
            <mxPoint as="targetPoint" y="270" x="1436" />
          </mxGeometry>
        </mxCell>
        <mxCell id="t_dz_ACjwcq5RYALcEdA-116" value="&lt;span style=&quot;color: rgb(0 , 102 , 51)&quot;&gt;Store retail, delivery and mop orders to ESB. ESB will deliver to enterprise back-end systems and import to order center for order capture.&lt;/span&gt;" parent="VnCNZadoxZpTZtr3mc3R-1" vertex="1" style="shape=note;size=15;align=left;spacingLeft=10;html=1;whiteSpace=wrap;strokeColor=#666600;fillColor=none;fontSize=11;fontColor=none;opacity=50;">
          <mxGeometry as="geometry" height="160" width="100" y="290" x="1186" />
        </mxCell>
        <mxCell id="t_dz_ACjwcq5RYALcEdA-117" value="&lt;span style=&quot;display: inline ; float: none ; background-color: rgb(248 , 249 , 250) ; color: rgb(51 , 0 , 0) ; font-family: &amp;#34;helvetica&amp;#34; ; font-size: 11px ; font-style: normal ; font-variant: normal ; font-weight: normal ; letter-spacing: normal ; line-height: 1.2 ; overflow-wrap: normal ; text-align: center ; text-decoration: none ; text-indent: 0px ; text-transform: none ; white-space: nowrap ; word-spacing: 0px&quot;&gt;Delivery&lt;/span&gt;" parent="VnCNZadoxZpTZtr3mc3R-1" vertex="1" style="text;html=1;strokeColor=none;fillColor=none;align=center;verticalAlign=middle;whiteSpace=wrap;rounded=0;fontSize=11;fontColor=none;opacity=50;">
          <mxGeometry as="geometry" height="20" width="40" y="200" x="1506" />
        </mxCell>
        <mxCell id="t_dz_ACjwcq5RYALcEdA-118" value="" parent="VnCNZadoxZpTZtr3mc3R-1" vertex="1" style="rounded=1;whiteSpace=wrap;html=1;fillColor=#fff2cc;strokeColor=#d6b656;opacity=50;">
          <mxGeometry as="geometry" height="20" width="30" y="690" x="1296" />
        </mxCell>
        <mxCell id="t_dz_ACjwcq5RYALcEdA-119" value="" parent="VnCNZadoxZpTZtr3mc3R-1" vertex="1" style="rounded=1;whiteSpace=wrap;html=1;fillColor=#dae8fc;strokeColor=#6c8ebf;opacity=50;">
          <mxGeometry as="geometry" height="20" width="30" y="720" x="1296" />
        </mxCell>
        <mxCell id="t_dz_ACjwcq5RYALcEdA-120" value="" parent="VnCNZadoxZpTZtr3mc3R-1" vertex="1" style="rounded=1;whiteSpace=wrap;html=1;fillColor=#d5e8d4;strokeColor=#82b366;opacity=50;">
          <mxGeometry as="geometry" height="20" width="30" y="750" x="1296" />
        </mxCell>
        <mxCell id="t_dz_ACjwcq5RYALcEdA-121" value="" parent="VnCNZadoxZpTZtr3mc3R-1" vertex="1" style="rounded=1;whiteSpace=wrap;html=1;fillColor=#f5f5f5;strokeColor=#666666;opacity=50;fontColor=#333333;">
          <mxGeometry as="geometry" height="20" width="30" y="780" x="1296" />
        </mxCell>
        <mxCell id="t_dz_ACjwcq5RYALcEdA-122" value="Existing system deployed in IDC" parent="VnCNZadoxZpTZtr3mc3R-1" vertex="1" style="text;html=1;strokeColor=none;fillColor=none;align=left;verticalAlign=middle;whiteSpace=wrap;rounded=0;fontSize=11;fontColor=none;opacity=50;">
          <mxGeometry as="geometry" height="20" width="180" y="690" x="1346" />
        </mxCell>
        <mxCell id="t_dz_ACjwcq5RYALcEdA-123" value="External system" parent="VnCNZadoxZpTZtr3mc3R-1" vertex="1" style="text;html=1;strokeColor=none;fillColor=none;align=left;verticalAlign=middle;whiteSpace=wrap;rounded=0;fontSize=11;fontColor=none;opacity=50;">
          <mxGeometry as="geometry" height="20" width="180" y="720" x="1346" />
        </mxCell>
        <mxCell id="t_dz_ACjwcq5RYALcEdA-124" value="Business center in middle layer deployed in Azure&amp;nbsp;" parent="VnCNZadoxZpTZtr3mc3R-1" vertex="1" style="text;html=1;strokeColor=none;fillColor=none;align=left;verticalAlign=middle;whiteSpace=wrap;rounded=0;fontSize=11;fontColor=none;opacity=50;">
          <mxGeometry as="geometry" height="28.89" width="280" y="750" x="1346" />
        </mxCell>
        <mxCell id="t_dz_ACjwcq5RYALcEdA-125" value="Store scenario or iStore system" parent="VnCNZadoxZpTZtr3mc3R-1" vertex="1" style="text;html=1;strokeColor=none;fillColor=none;align=left;verticalAlign=middle;whiteSpace=wrap;rounded=0;fontSize=11;fontColor=none;opacity=50;">
          <mxGeometry as="geometry" height="28.89" width="260" y="776" x="1346" />
        </mxCell>
        <mxCell id="t_dz_ACjwcq5RYALcEdA-126" value="" parent="VnCNZadoxZpTZtr3mc3R-1" style="edgeStyle=none;endArrow=none;exitX=1.007;exitY=0.232;dashed=1;html=1;labelBackgroundColor=none;strokeColor=#666600;fontSize=25;fontColor=none;exitDx=0;exitDy=0;exitPerimeter=0;" edge="1" source="t_dz_ACjwcq5RYALcEdA-116">
          <mxGeometry as="geometry" x="1" relative="1">
            <mxPoint as="targetPoint" y="320" x="1346" />
            <mxPoint as="sourcePoint" y="299.9999999999999" x="1484" />
          </mxGeometry>
        </mxCell>
        <mxCell id="t_dz_ACjwcq5RYALcEdA-127" value="&lt;span style=&quot;color: rgb(0 , 102 , 51)&quot;&gt;Store retail, delivery, mop, hema and SRkit orders are delivered to enterprise back-end systems&lt;/span&gt;" parent="VnCNZadoxZpTZtr3mc3R-1" vertex="1" style="shape=note;size=15;align=left;spacingLeft=10;html=1;whiteSpace=wrap;strokeColor=#666600;fillColor=none;fontSize=11;fontColor=none;opacity=50;">
          <mxGeometry as="geometry" height="110" width="100" y="650" x="1190" />
        </mxCell>
        <mxCell id="t_dz_ACjwcq5RYALcEdA-128" value="" parent="VnCNZadoxZpTZtr3mc3R-1" style="edgeStyle=none;endArrow=none;exitX=0;exitY=0;dashed=1;html=1;labelBackgroundColor=none;strokeColor=#666600;fontSize=25;fontColor=none;exitDx=67.5;exitDy=0;exitPerimeter=0;" edge="1" source="t_dz_ACjwcq5RYALcEdA-127">
          <mxGeometry as="geometry" x="1" relative="1">
            <mxPoint as="targetPoint" y="530" x="1356" />
            <mxPoint as="sourcePoint" y="489.9999999999999" x="1544" />
          </mxGeometry>
        </mxCell>
        <mxCell id="t_dz_ACjwcq5RYALcEdA-129" value="&lt;b&gt;&lt;font color=&quot;#cc6600&quot;&gt;Store retail order to order center for capture, delivery and mop order need to be consolidated.&lt;/font&gt;&lt;/b&gt;" parent="VnCNZadoxZpTZtr3mc3R-1" vertex="1" style="shape=note;size=15;align=left;spacingLeft=10;html=1;whiteSpace=wrap;strokeColor=#666600;fillColor=none;fontSize=11;fontColor=none;opacity=50;">
          <mxGeometry as="geometry" height="130" width="100" y="460" x="1187" />
        </mxCell>
        <mxCell id="t_dz_ACjwcq5RYALcEdA-130" value="" parent="VnCNZadoxZpTZtr3mc3R-1" style="edgeStyle=none;endArrow=none;dashed=1;html=1;labelBackgroundColor=none;strokeColor=#666600;fontSize=25;fontColor=none;exitX=0;exitY=0;exitDx=100;exitDy=15;exitPerimeter=0;" edge="1" source="t_dz_ACjwcq5RYALcEdA-129">
          <mxGeometry as="geometry" x="1" relative="1">
            <mxPoint as="targetPoint" y="420" x="1416" />
            <mxPoint as="sourcePoint" y="390" x="1456" />
          </mxGeometry>
        </mxCell>
        <mxCell id="t_dz_ACjwcq5RYALcEdA-131" value="&lt;b&gt;&lt;font color=&quot;#cc6600&quot;&gt;Consolidated d&lt;/font&gt;&lt;/b&gt;&lt;b&gt;&lt;font color=&quot;#cc6600&quot;&gt;elivery/mop, hema and SRkit orders will be delivered to enterprise back-end systems.&amp;nbsp;&lt;/font&gt;&lt;/b&gt;" parent="VnCNZadoxZpTZtr3mc3R-1" vertex="1" style="shape=note;size=15;align=left;spacingLeft=10;html=1;whiteSpace=wrap;strokeColor=#000066;fillColor=none;fontSize=11;fontColor=none;opacity=50;">
          <mxGeometry as="geometry" height="50" width="210" y="470" x="1466" />
        </mxCell>
        <mxCell id="t_dz_ACjwcq5RYALcEdA-132" value="" parent="VnCNZadoxZpTZtr3mc3R-1" style="edgeStyle=none;endArrow=none;dashed=1;html=1;labelBackgroundColor=none;strokeColor=#000066;fontSize=25;fontColor=none;exitX=0;exitY=0.5;exitDx=0;exitDy=0;exitPerimeter=0;" edge="1" source="t_dz_ACjwcq5RYALcEdA-131">
          <mxGeometry as="geometry" x="1" relative="1">
            <mxPoint as="targetPoint" y="490" x="1436" />
            <mxPoint as="sourcePoint" y="360" x="2056" />
          </mxGeometry>
        </mxCell>
        <mxCell id="t_dz_ACjwcq5RYALcEdA-133" value="&lt;font color=&quot;#990000&quot;&gt;Distributed Order UUID Generator&amp;nbsp;&lt;br&gt;(DownStream System not Accept Order UUID)&lt;/font&gt;" parent="VnCNZadoxZpTZtr3mc3R-1" vertex="1" style="text;html=1;fontSize=11;fontColor=none;">
          <mxGeometry as="geometry" height="30" width="210" y="470" x="1956" />
        </mxCell>
        <mxCell id="t_dz_ACjwcq5RYALcEdA-134" value="Data Pipeline/StreamSets" parent="VnCNZadoxZpTZtr3mc3R-1" vertex="1" style="rounded=1;whiteSpace=wrap;html=1;fillColor=#e1d5e7;strokeColor=#9673a6;opacity=50;">
          <mxGeometry as="geometry" height="30" width="130" y="560" x="2066" />
        </mxCell>
        <mxCell id="t_dz_ACjwcq5RYALcEdA-135" value="" parent="VnCNZadoxZpTZtr3mc3R-1" vertex="1" style="rounded=1;whiteSpace=wrap;html=1;fillColor=#e1d5e7;strokeColor=#9673a6;opacity=50;">
          <mxGeometry as="geometry" height="20" width="30" y="780" x="1646" />
        </mxCell>
        <mxCell id="t_dz_ACjwcq5RYALcEdA-136" value="New data integration product deployed in IDC&amp;nbsp;" parent="VnCNZadoxZpTZtr3mc3R-1" vertex="1" style="text;html=1;strokeColor=none;fillColor=none;align=left;verticalAlign=middle;whiteSpace=wrap;rounded=0;fontSize=11;fontColor=none;opacity=50;">
          <mxGeometry as="geometry" height="20" width="260" y="778" x="1696" />
        </mxCell>
        <mxCell id="t_dz_ACjwcq5RYALcEdA-137" value="" parent="VnCNZadoxZpTZtr3mc3R-1" style="edgeStyle=orthogonalEdgeStyle;rounded=0;orthogonalLoop=1;jettySize=auto;html=1;labelBackgroundColor=#990000;strokeColor=#99004D;fontColor=#990000;exitX=0.5;exitY=1;exitDx=0;exitDy=0;" edge="1" source="t_dz_ACjwcq5RYALcEdA-134">
          <mxGeometry as="geometry" relative="1">
            <Array as="points">
              <mxPoint y="630" x="2131" />
            </Array>
            <mxPoint as="sourcePoint" y="587.98" x="2145.5000000000004" />
            <mxPoint as="targetPoint" y="630" x="2131" />
          </mxGeometry>
        </mxCell>
        <mxCell id="t_dz_ACjwcq5RYALcEdA-138" value="" parent="VnCNZadoxZpTZtr3mc3R-1" style="edgeStyle=orthogonalEdgeStyle;rounded=0;orthogonalLoop=1;jettySize=auto;html=1;labelBackgroundColor=#990000;strokeColor=#99004D;fontColor=#990000;exitX=0.913;exitY=0.999;exitDx=0;exitDy=0;exitPerimeter=0;entryX=0.5;entryY=0;entryDx=0;entryDy=0;" edge="1" target="t_dz_ACjwcq5RYALcEdA-134" source="t_dz_ACjwcq5RYALcEdA-99">
          <mxGeometry as="geometry" relative="1">
            <Array as="points">
              <mxPoint y="554" x="2131" />
              <mxPoint y="554" x="2131" />
            </Array>
            <mxPoint as="sourcePoint" y="514" x="2131" />
            <mxPoint as="targetPoint" y="554" x="2131" />
          </mxGeometry>
        </mxCell>
        <mxCell id="t_dz_ACjwcq5RYALcEdA-139" value="&lt;font size=&quot;1&quot; color=&quot;#0066cc&quot;&gt;&lt;b&gt;Store retail, delivery, mop, hema, iStore and SRkit orders with fixed structure from order center&lt;/b&gt;&lt;/font&gt;" parent="VnCNZadoxZpTZtr3mc3R-1" vertex="1" style="shape=note;size=15;align=left;spacingLeft=10;html=1;whiteSpace=wrap;strokeColor=#000066;fillColor=none;fontSize=11;fontColor=none;opacity=50;">
          <mxGeometry as="geometry" height="120" width="104" y="410" x="2216" />
        </mxCell>
        <mxCell id="t_dz_ACjwcq5RYALcEdA-140" value="" parent="VnCNZadoxZpTZtr3mc3R-1" style="edgeStyle=none;endArrow=none;dashed=1;html=1;labelBackgroundColor=none;strokeColor=#000066;fontSize=25;fontColor=none;exitX=0;exitY=0.5;exitDx=0;exitDy=0;exitPerimeter=0;" edge="1" source="t_dz_ACjwcq5RYALcEdA-139">
          <mxGeometry as="geometry" x="1" relative="1">
            <mxPoint as="targetPoint" y="540" x="2136" />
            <mxPoint as="sourcePoint" y="510" x="2236" />
          </mxGeometry>
        </mxCell>
        <mxCell id="t_dz_ACjwcq5RYALcEdA-141" value="&lt;b&gt;&lt;font color=&quot;#0066cc&quot;&gt;Export to HDFS or other data storage&lt;/font&gt;&lt;/b&gt;" parent="VnCNZadoxZpTZtr3mc3R-1" vertex="1" style="shape=note;size=15;align=left;spacingLeft=10;html=1;whiteSpace=wrap;strokeColor=#000066;fillColor=none;fontSize=11;fontColor=none;opacity=50;">
          <mxGeometry as="geometry" height="60" width="104" y="570" x="2216" />
        </mxCell>
        <mxCell id="t_dz_ACjwcq5RYALcEdA-142" value="" parent="VnCNZadoxZpTZtr3mc3R-1" style="edgeStyle=none;endArrow=none;dashed=1;html=1;labelBackgroundColor=none;strokeColor=#000066;fontSize=25;fontColor=none;exitX=0;exitY=0.5;exitDx=0;exitDy=0;exitPerimeter=0;" edge="1" source="t_dz_ACjwcq5RYALcEdA-141">
          <mxGeometry as="geometry" x="1" relative="1">
            <mxPoint as="targetPoint" y="620" x="2136" />
            <mxPoint as="sourcePoint" y="590" x="2236" />
          </mxGeometry>
        </mxCell>
        <mxCell id="t_dz_ACjwcq5RYALcEdA-143" value="" parent="VnCNZadoxZpTZtr3mc3R-1" style="edgeStyle=orthogonalEdgeStyle;rounded=0;orthogonalLoop=1;jettySize=auto;html=1;labelBackgroundColor=#990000;strokeColor=#CC6600;fontColor=#990000;exitX=0.867;exitY=1;exitDx=0;exitDy=0;exitPerimeter=0;" edge="1">
          <mxGeometry as="geometry" relative="1">
            <Array as="points">
              <mxPoint y="360" x="1873.2" />
              <mxPoint y="360" x="1873.2" />
            </Array>
            <mxPoint as="sourcePoint" y="280" x="1873.0299999999997" />
            <mxPoint as="targetPoint" y="400" x="1873" />
          </mxGeometry>
        </mxCell>
        <mxCell id="t_dz_ACjwcq5RYALcEdA-144" value="&lt;font color=&quot;#cc6600&quot;&gt;&lt;b&gt;Delivery, mop and hema rders captured by order center to enable the&amp;nbsp;&lt;/b&gt;&lt;span style=&quot;font-size: 11px&quot;&gt;&lt;b&gt;capabilities:&amp;nbsp;&lt;/b&gt;&lt;/span&gt;&lt;b&gt;consistency and &lt;/b&gt;&lt;span style=&quot;font-size: 11px&quot;&gt;&lt;b&gt;consolidation&lt;/b&gt;&lt;/span&gt;&lt;br&gt;&lt;b&gt;&amp;nbsp;&lt;/b&gt;&lt;/font&gt;" parent="VnCNZadoxZpTZtr3mc3R-1" vertex="1" style="shape=note;size=15;align=left;spacingLeft=10;html=1;whiteSpace=wrap;strokeColor=#000066;fillColor=none;fontSize=11;fontColor=none;opacity=50;verticalAlign=top;">
          <mxGeometry as="geometry" height="80" width="180" y="290" x="2140" />
        </mxCell>
        <mxCell id="t_dz_ACjwcq5RYALcEdA-145" value="" parent="VnCNZadoxZpTZtr3mc3R-1" style="edgeStyle=none;endArrow=none;dashed=1;html=1;labelBackgroundColor=none;strokeColor=#000066;fontSize=25;fontColor=none;exitX=0;exitY=0.5;exitDx=0;exitDy=0;exitPerimeter=0;" edge="1" source="t_dz_ACjwcq5RYALcEdA-144">
          <mxGeometry as="geometry" x="1" relative="1">
            <mxPoint as="targetPoint" y="400" x="1876" />
            <mxPoint as="sourcePoint" y="350" x="1846" />
          </mxGeometry>
        </mxCell>
        <mxCell id="t_dz_ACjwcq5RYALcEdA-146" value="" parent="VnCNZadoxZpTZtr3mc3R-1" style="edgeStyle=orthogonalEdgeStyle;rounded=0;orthogonalLoop=1;jettySize=auto;html=1;labelBackgroundColor=#990000;strokeColor=#666600;fontColor=#990000;entryX=1.003;entryY=0.582;entryDx=0;entryDy=0;entryPerimeter=0;" edge="1">
          <mxGeometry as="geometry" relative="1">
            <mxPoint as="sourcePoint" y="463" x="1446" />
            <mxPoint as="targetPoint" y="463.02" x="1416.3599999999996" />
            <Array as="points">
              <mxPoint y="463" x="1446" />
            </Array>
          </mxGeometry>
        </mxCell>
        <mxCell id="t_dz_ACjwcq5RYALcEdA-147" value="" parent="VnCNZadoxZpTZtr3mc3R-1" style="edgeStyle=orthogonalEdgeStyle;rounded=0;orthogonalLoop=1;jettySize=auto;html=1;labelBackgroundColor=#990000;strokeColor=#994C00;fontColor=#990000;entryX=1.003;entryY=0.582;entryDx=0;entryDy=0;entryPerimeter=0;" edge="1">
          <mxGeometry as="geometry" relative="1">
            <mxPoint as="sourcePoint" y="472" x="1446" />
            <mxPoint as="targetPoint" y="472.02" x="1416.3599999999996" />
            <Array as="points">
              <mxPoint y="472" x="1446" />
            </Array>
          </mxGeometry>
        </mxCell>
        <mxCell id="t_dz_ACjwcq5RYALcEdA-148" value="" parent="VnCNZadoxZpTZtr3mc3R-1" style="edgeStyle=orthogonalEdgeStyle;rounded=0;orthogonalLoop=1;jettySize=auto;html=1;labelBackgroundColor=none;strokeColor=#000066;fontSize=11;fontColor=none;" edge="1">
          <mxGeometry as="geometry" relative="1">
            <mxPoint as="sourcePoint" y="471" x="200" />
            <mxPoint as="targetPoint" y="471" x="170" />
          </mxGeometry>
        </mxCell>
        <mxCell id="t_dz_ACjwcq5RYALcEdA-149" value="" parent="VnCNZadoxZpTZtr3mc3R-1" style="edgeStyle=orthogonalEdgeStyle;rounded=0;orthogonalLoop=1;jettySize=auto;html=1;labelBackgroundColor=#990000;strokeColor=#000066;fontColor=#990000;entryX=1.003;entryY=0.582;entryDx=0;entryDy=0;entryPerimeter=0;" edge="1">
          <mxGeometry as="geometry" relative="1">
            <mxPoint as="sourcePoint" y="455" x="1446" />
            <mxPoint as="targetPoint" y="455.02" x="1416.3599999999996" />
            <Array as="points">
              <mxPoint y="455" x="1446" />
            </Array>
          </mxGeometry>
        </mxCell>
        <mxCell id="t_dz_ACjwcq5RYALcEdA-150" value="&lt;font color=&quot;#006633&quot;&gt;iStore orders will be&amp;nbsp;delivered&amp;nbsp;to&amp;nbsp;Siebel only&amp;nbsp;&lt;/font&gt;&lt;span style=&quot;color: rgb(0 , 102 , 51)&quot;&gt;by ESB&amp;nbsp;&lt;/span&gt;&lt;font color=&quot;#006633&quot;&gt;for star&amp;nbsp;accumulation&lt;/font&gt;" parent="VnCNZadoxZpTZtr3mc3R-1" vertex="1" style="shape=note;size=15;align=left;spacingLeft=10;html=1;whiteSpace=wrap;strokeColor=#000066;fillColor=none;fontSize=11;fontColor=none;opacity=50;">
          <mxGeometry as="geometry" height="60" width="160" y="400" x="1490" />
        </mxCell>
        <mxCell id="t_dz_ACjwcq5RYALcEdA-151" value="" parent="VnCNZadoxZpTZtr3mc3R-1" style="edgeStyle=none;endArrow=none;dashed=1;html=1;labelBackgroundColor=none;strokeColor=#000066;fontSize=25;fontColor=none;exitX=0;exitY=0.5;exitDx=0;exitDy=0;exitPerimeter=0;entryX=0;entryY=0.5;entryDx=0;entryDy=0;" edge="1" target="t_dz_ACjwcq5RYALcEdA-99" source="t_dz_ACjwcq5RYALcEdA-150">
          <mxGeometry as="geometry" x="1" relative="1">
            <mxPoint as="targetPoint" y="470" x="1459.9999999999997" />
            <mxPoint as="sourcePoint" y="350" x="2074" />
          </mxGeometry>
        </mxCell>
        <mxCell id="t_dz_ACjwcq5RYALcEdA-152" value="" parent="VnCNZadoxZpTZtr3mc3R-1" vertex="1" style="rounded=1;whiteSpace=wrap;html=1;fillColor=#CC6600;strokeColor=#9673a6;opacity=50;">
          <mxGeometry as="geometry" height="20" width="30" y="750" x="1646" />
        </mxCell>
        <mxCell id="t_dz_ACjwcq5RYALcEdA-153" value="" parent="VnCNZadoxZpTZtr3mc3R-1" vertex="1" style="rounded=1;whiteSpace=wrap;html=1;fillColor=#000066;strokeColor=#9673a6;opacity=50;">
          <mxGeometry as="geometry" height="20" width="30" y="720" x="1646" />
        </mxCell>
        <mxCell id="t_dz_ACjwcq5RYALcEdA-154" value="Font with the color indicates service type decoupling" parent="VnCNZadoxZpTZtr3mc3R-1" vertex="1" style="text;html=1;strokeColor=none;fillColor=none;align=left;verticalAlign=middle;whiteSpace=wrap;rounded=0;fontSize=11;fontColor=none;opacity=50;">
          <mxGeometry as="geometry" height="20" width="294" y="750" x="1696" />
        </mxCell>
        <mxCell id="t_dz_ACjwcq5RYALcEdA-155" value="Font with the color indicates data integration" parent="VnCNZadoxZpTZtr3mc3R-1" vertex="1" style="text;html=1;strokeColor=none;fillColor=none;align=left;verticalAlign=middle;whiteSpace=wrap;rounded=0;fontSize=11;fontColor=none;opacity=50;">
          <mxGeometry as="geometry" height="20" width="260" y="720" x="1697" />
        </mxCell>
        <mxCell id="ZyoXYBK32tXdx7PjOStH-2" value="Hema - OMS" parent="VnCNZadoxZpTZtr3mc3R-1" vertex="1" style="rounded=1;whiteSpace=wrap;html=1;fillColor=#ffe6cc;strokeColor=#d79b00;opacity=50;">
          <mxGeometry as="geometry" height="30" width="120" y="250" x="573" />
        </mxCell>
        <mxCell id="ZyoXYBK32tXdx7PjOStH-11" value="MQ Topic - BOH" parent="VnCNZadoxZpTZtr3mc3R-1" vertex="1" style="rounded=1;whiteSpace=wrap;html=1;fillColor=#ffe6cc;strokeColor=#d79b00;opacity=50;fontSize=10;flipH=1;">
          <mxGeometry as="geometry" height="30" width="50" y="480" x="9" />
        </mxCell>
        <mxCell id="ZyoXYBK32tXdx7PjOStH-12" value="MQ Topic - HEX" parent="VnCNZadoxZpTZtr3mc3R-1" vertex="1" style="rounded=1;whiteSpace=wrap;html=1;fillColor=#ffe6cc;strokeColor=#d79b00;opacity=50;fontSize=10;flipH=1;">
          <mxGeometry as="geometry" height="30" width="50" y="480" x="62" />
        </mxCell>
        <mxCell id="ZyoXYBK32tXdx7PjOStH-13" value="MQ Topic - Mini Order" parent="VnCNZadoxZpTZtr3mc3R-1" vertex="1" style="rounded=1;whiteSpace=wrap;html=1;fillColor=#ffe6cc;strokeColor=#d79b00;opacity=50;fontSize=10;flipH=1;">
          <mxGeometry as="geometry" height="30" width="50" y="480" x="116" />
        </mxCell>
        <mxCell id="ZyoXYBK32tXdx7PjOStH-15" parent="VnCNZadoxZpTZtr3mc3R-1" style="edgeStyle=orthogonalEdgeStyle;rounded=0;orthogonalLoop=1;jettySize=auto;html=1;exitX=0.5;exitY=1;exitDx=0;exitDy=0;entryX=0;entryY=0.5;entryDx=0;entryDy=0;labelBackgroundColor=none;strokeColor=#330000;fontSize=11;fontColor=none;" edge="1" target="ZyoXYBK32tXdx7PjOStH-16" source="ZyoXYBK32tXdx7PjOStH-11">
          <mxGeometry as="geometry" relative="1">
            <mxPoint as="sourcePoint" y="565" x="36" />
            <Array as="points">
              <mxPoint y="530" x="34" />
              <mxPoint y="530" x="-11" />
              <mxPoint y="605" x="-11" />
            </Array>
          </mxGeometry>
        </mxCell>
        <mxCell id="ZyoXYBK32tXdx7PjOStH-16" value="BI" parent="VnCNZadoxZpTZtr3mc3R-1" vertex="1" style="rounded=1;whiteSpace=wrap;html=1;fillColor=#ffe6cc;strokeColor=#d79b00;opacity=50;">
          <mxGeometry as="geometry" height="30" width="51" y="590" x="9" />
        </mxCell>
        <mxCell id="ZyoXYBK32tXdx7PjOStH-19" parent="VnCNZadoxZpTZtr3mc3R-1" style="edgeStyle=orthogonalEdgeStyle;rounded=0;orthogonalLoop=1;jettySize=auto;html=1;exitX=0.5;exitY=1;exitDx=0;exitDy=0;entryX=0;entryY=0.5;entryDx=0;entryDy=0;labelBackgroundColor=none;strokeColor=#330000;fontSize=11;fontColor=none;" edge="1" target="ZyoXYBK32tXdx7PjOStH-20" source="ZyoXYBK32tXdx7PjOStH-11">
          <mxGeometry as="geometry" relative="1">
            <mxPoint as="sourcePoint" y="550" x="34" />
            <Array as="points">
              <mxPoint y="530" x="34" />
              <mxPoint y="530" x="-11" />
              <mxPoint y="645" x="-11" />
            </Array>
          </mxGeometry>
        </mxCell>
        <mxCell id="ZyoXYBK32tXdx7PjOStH-20" value="LSPS" parent="VnCNZadoxZpTZtr3mc3R-1" vertex="1" style="rounded=1;whiteSpace=wrap;html=1;fillColor=#ffe6cc;strokeColor=#d79b00;opacity=50;">
          <mxGeometry as="geometry" height="30" width="51" y="630" x="9" />
        </mxCell>
        <mxCell id="ZyoXYBK32tXdx7PjOStH-28" value="HEX" parent="VnCNZadoxZpTZtr3mc3R-1" vertex="1" style="rounded=1;whiteSpace=wrap;html=1;fillColor=#ffe6cc;strokeColor=#d79b00;opacity=50;">
          <mxGeometry as="geometry" height="30" width="51" y="550" x="86" />
        </mxCell>
        <mxCell id="ZyoXYBK32tXdx7PjOStH-29" parent="VnCNZadoxZpTZtr3mc3R-1" style="edgeStyle=orthogonalEdgeStyle;rounded=0;orthogonalLoop=1;jettySize=auto;html=1;exitX=0.5;exitY=1;exitDx=0;exitDy=0;entryX=0;entryY=0.5;entryDx=0;entryDy=0;labelBackgroundColor=none;strokeColor=#330000;fontSize=11;fontColor=none;" edge="1" target="ZyoXYBK32tXdx7PjOStH-30" source="ZyoXYBK32tXdx7PjOStH-12">
          <mxGeometry as="geometry" relative="1">
            <mxPoint as="sourcePoint" y="510" x="86" />
            <Array as="points">
              <mxPoint y="510" x="86" />
              <mxPoint y="530" x="86" />
              <mxPoint y="530" x="63" />
              <mxPoint y="605" x="63" />
            </Array>
          </mxGeometry>
        </mxCell>
        <mxCell id="ZyoXYBK32tXdx7PjOStH-30" value="BI" parent="VnCNZadoxZpTZtr3mc3R-1" vertex="1" style="rounded=1;whiteSpace=wrap;html=1;fillColor=#ffe6cc;strokeColor=#d79b00;opacity=50;">
          <mxGeometry as="geometry" height="30" width="51" y="590" x="86" />
        </mxCell>
        <mxCell id="ZyoXYBK32tXdx7PjOStH-31" parent="VnCNZadoxZpTZtr3mc3R-1" style="edgeStyle=orthogonalEdgeStyle;rounded=0;orthogonalLoop=1;jettySize=auto;html=1;exitX=0.5;exitY=1;exitDx=0;exitDy=0;entryX=0;entryY=0.5;entryDx=0;entryDy=0;labelBackgroundColor=none;strokeColor=#330000;fontSize=11;fontColor=none;" edge="1" target="ZyoXYBK32tXdx7PjOStH-32" source="ZyoXYBK32tXdx7PjOStH-12">
          <mxGeometry as="geometry" relative="1">
            <mxPoint as="sourcePoint" y="510" x="86" />
            <Array as="points">
              <mxPoint y="510" x="86" />
              <mxPoint y="530" x="86" />
              <mxPoint y="530" x="63" />
              <mxPoint y="645" x="63" />
            </Array>
          </mxGeometry>
        </mxCell>
        <mxCell id="ZyoXYBK32tXdx7PjOStH-32" value="LSPS" parent="VnCNZadoxZpTZtr3mc3R-1" vertex="1" style="rounded=1;whiteSpace=wrap;html=1;fillColor=#ffe6cc;strokeColor=#d79b00;opacity=50;">
          <mxGeometry as="geometry" height="30" width="51" y="630" x="86" />
        </mxCell>
        <mxCell id="ZyoXYBK32tXdx7PjOStH-33" parent="VnCNZadoxZpTZtr3mc3R-1" style="edgeStyle=orthogonalEdgeStyle;rounded=0;orthogonalLoop=1;jettySize=auto;html=1;exitX=0.5;exitY=1;exitDx=0;exitDy=0;labelBackgroundColor=none;strokeColor=#330000;fontSize=11;fontColor=none;entryX=0.011;entryY=0.55;entryDx=0;entryDy=0;entryPerimeter=0;" edge="1" target="ZyoXYBK32tXdx7PjOStH-28" source="ZyoXYBK32tXdx7PjOStH-12">
          <mxGeometry as="geometry" relative="1">
            <mxPoint as="sourcePoint" y="520" x="97" />
            <Array as="points">
              <mxPoint y="530" x="87" />
              <mxPoint y="530" x="63" />
              <mxPoint y="567" x="63" />
              <mxPoint y="567" x="83" />
            </Array>
            <mxPoint as="targetPoint" y="580" x="83" />
          </mxGeometry>
        </mxCell>
        <mxCell id="ZyoXYBK32tXdx7PjOStH-34" value="CRM" parent="VnCNZadoxZpTZtr3mc3R-1" vertex="1" style="rounded=1;whiteSpace=wrap;html=1;fillColor=#ffe6cc;strokeColor=#d79b00;opacity=50;">
          <mxGeometry as="geometry" height="30" width="51" y="550" x="165.5" />
        </mxCell>
        <mxCell id="ZyoXYBK32tXdx7PjOStH-35" value="SAT" parent="VnCNZadoxZpTZtr3mc3R-1" vertex="1" style="rounded=1;whiteSpace=wrap;html=1;fillColor=#ffe6cc;strokeColor=#d79b00;opacity=50;">
          <mxGeometry as="geometry" height="30" width="51" y="590" x="165.5" />
        </mxCell>
        <mxCell id="ZyoXYBK32tXdx7PjOStH-36" parent="VnCNZadoxZpTZtr3mc3R-1" style="edgeStyle=orthogonalEdgeStyle;rounded=0;orthogonalLoop=1;jettySize=auto;html=1;exitX=0.5;exitY=1;exitDx=0;exitDy=0;labelBackgroundColor=none;strokeColor=#330000;fontSize=11;fontColor=none;entryX=0;entryY=0.5;entryDx=0;entryDy=0;" edge="1" target="ZyoXYBK32tXdx7PjOStH-35" source="ZyoXYBK32tXdx7PjOStH-13">
          <mxGeometry as="geometry" relative="1">
            <mxPoint as="sourcePoint" y="520" x="151" />
            <mxPoint as="targetPoint" y="575" x="175.50000000000023" />
          </mxGeometry>
        </mxCell>
        <mxCell id="ZyoXYBK32tXdx7PjOStH-37" value="MOP" parent="VnCNZadoxZpTZtr3mc3R-1" vertex="1" style="rounded=1;whiteSpace=wrap;html=1;fillColor=#ffe6cc;strokeColor=#d79b00;opacity=50;">
          <mxGeometry as="geometry" height="30" width="51" y="630" x="165.5" />
        </mxCell>
        <mxCell id="ZyoXYBK32tXdx7PjOStH-38" parent="VnCNZadoxZpTZtr3mc3R-1" style="edgeStyle=orthogonalEdgeStyle;rounded=0;orthogonalLoop=1;jettySize=auto;html=1;exitX=0.5;exitY=1;exitDx=0;exitDy=0;labelBackgroundColor=none;strokeColor=#330000;fontSize=11;fontColor=none;entryX=0;entryY=0.5;entryDx=0;entryDy=0;" edge="1" target="ZyoXYBK32tXdx7PjOStH-37" source="ZyoXYBK32tXdx7PjOStH-13">
          <mxGeometry as="geometry" relative="1">
            <mxPoint as="sourcePoint" y="520" x="151" />
            <mxPoint as="targetPoint" y="615" x="175.50000000000023" />
          </mxGeometry>
        </mxCell>
        <mxCell id="ZyoXYBK32tXdx7PjOStH-39" value="PDS" parent="VnCNZadoxZpTZtr3mc3R-1" vertex="1" style="rounded=1;whiteSpace=wrap;html=1;fillColor=#ffe6cc;strokeColor=#d79b00;opacity=50;">
          <mxGeometry as="geometry" height="30" width="51" y="670" x="165.5" />
        </mxCell>
        <mxCell id="ZyoXYBK32tXdx7PjOStH-40" parent="VnCNZadoxZpTZtr3mc3R-1" style="edgeStyle=orthogonalEdgeStyle;rounded=0;orthogonalLoop=1;jettySize=auto;html=1;exitX=0.5;exitY=1;exitDx=0;exitDy=0;labelBackgroundColor=none;strokeColor=#330000;fontSize=11;fontColor=none;entryX=0;entryY=0.5;entryDx=0;entryDy=0;" edge="1" target="ZyoXYBK32tXdx7PjOStH-39" source="ZyoXYBK32tXdx7PjOStH-13">
          <mxGeometry as="geometry" relative="1">
            <mxPoint as="sourcePoint" y="520" x="151" />
            <mxPoint as="targetPoint" y="655" x="175.50000000000023" />
          </mxGeometry>
        </mxCell>
        <mxCell id="ZyoXYBK32tXdx7PjOStH-41" value="MOD" parent="VnCNZadoxZpTZtr3mc3R-1" vertex="1" style="rounded=1;whiteSpace=wrap;html=1;fillColor=#ffe6cc;strokeColor=#d79b00;opacity=50;">
          <mxGeometry as="geometry" height="30" width="51" y="710" x="165.5" />
        </mxCell>
        <mxCell id="ZyoXYBK32tXdx7PjOStH-42" parent="VnCNZadoxZpTZtr3mc3R-1" style="edgeStyle=orthogonalEdgeStyle;rounded=0;orthogonalLoop=1;jettySize=auto;html=1;exitX=0.5;exitY=1;exitDx=0;exitDy=0;labelBackgroundColor=none;strokeColor=#330000;fontSize=11;fontColor=none;entryX=0;entryY=0.5;entryDx=0;entryDy=0;" edge="1" target="ZyoXYBK32tXdx7PjOStH-41" source="ZyoXYBK32tXdx7PjOStH-13">
          <mxGeometry as="geometry" relative="1">
            <mxPoint as="sourcePoint" y="520" x="151" />
            <mxPoint as="targetPoint" y="695" x="175.50000000000023" />
          </mxGeometry>
        </mxCell>
        <mxCell id="ZyoXYBK32tXdx7PjOStH-43" value="URP" parent="VnCNZadoxZpTZtr3mc3R-1" vertex="1" style="rounded=1;whiteSpace=wrap;html=1;fillColor=#ffe6cc;strokeColor=#d79b00;opacity=50;">
          <mxGeometry as="geometry" height="30" width="51" y="750" x="165.5" />
        </mxCell>
        <mxCell id="ZyoXYBK32tXdx7PjOStH-44" parent="VnCNZadoxZpTZtr3mc3R-1" style="edgeStyle=orthogonalEdgeStyle;rounded=0;orthogonalLoop=1;jettySize=auto;html=1;exitX=0.5;exitY=1;exitDx=0;exitDy=0;labelBackgroundColor=none;strokeColor=#330000;fontSize=11;fontColor=none;entryX=0;entryY=0.5;entryDx=0;entryDy=0;" edge="1" target="ZyoXYBK32tXdx7PjOStH-43" source="ZyoXYBK32tXdx7PjOStH-13">
          <mxGeometry as="geometry" relative="1">
            <mxPoint as="sourcePoint" y="520" x="151" />
            <mxPoint as="targetPoint" y="735" x="175.50000000000023" />
          </mxGeometry>
        </mxCell>
        <mxCell id="ZyoXYBK32tXdx7PjOStH-45" value="&lt;font style=&quot;font-size: 10px;&quot;&gt;Online Reservation&lt;/font&gt;" parent="VnCNZadoxZpTZtr3mc3R-1" vertex="1" style="rounded=1;whiteSpace=wrap;html=1;fillColor=#ffe6cc;strokeColor=#d79b00;opacity=50;fontSize=10;">
          <mxGeometry as="geometry" height="30" width="51" y="790" x="165.5" />
        </mxCell>
        <mxCell id="dMl6W19RhUMxWA3gAQAf-0" parent="VnCNZadoxZpTZtr3mc3R-1" style="edgeStyle=orthogonalEdgeStyle;rounded=0;orthogonalLoop=1;jettySize=auto;html=1;exitX=0.5;exitY=1;exitDx=0;exitDy=0;labelBackgroundColor=none;strokeColor=#330000;fontSize=11;fontColor=none;entryX=0;entryY=0.5;entryDx=0;entryDy=0;" edge="1" target="ZyoXYBK32tXdx7PjOStH-45" source="ZyoXYBK32tXdx7PjOStH-13">
          <mxGeometry as="geometry" relative="1">
            <mxPoint as="sourcePoint" y="520" x="151" />
            <mxPoint as="targetPoint" y="775" x="175.5" />
          </mxGeometry>
        </mxCell>
        <mxCell id="xYllv8rpuoElAiDCNA6X-3" parent="VnCNZadoxZpTZtr3mc3R-1" style="edgeStyle=orthogonalEdgeStyle;rounded=0;orthogonalLoop=1;jettySize=auto;html=1;exitX=0.5;exitY=1;exitDx=0;exitDy=0;entryX=0.5;entryY=0;entryDx=0;entryDy=0;fillColor=#dae8fc;strokeColor=#6c8ebf;" edge="1" target="t_dz_ACjwcq5RYALcEdA-35" source="xYllv8rpuoElAiDCNA6X-1">
          <mxGeometry as="geometry" relative="1">
            <Array as="points">
              <mxPoint y="230" x="1030" />
              <mxPoint y="230" x="891" />
            </Array>
          </mxGeometry>
        </mxCell>
        <mxCell id="xYllv8rpuoElAiDCNA6X-4" value="APP SVC" parent="xYllv8rpuoElAiDCNA6X-3" vertex="1" style="text;html=1;align=center;verticalAlign=middle;resizable=0;points=[];labelBackgroundColor=#ffffff;" connectable="0">
          <mxGeometry as="geometry" y="-18" x="-0.5311" relative="1">
            <mxPoint as="offset" />
          </mxGeometry>
        </mxCell>
        <mxCell id="xYllv8rpuoElAiDCNA6X-1" value="SBUX App&lt;br&gt;SVC" parent="VnCNZadoxZpTZtr3mc3R-1" vertex="1" style="rounded=1;whiteSpace=wrap;html=1;fillColor=#dae8fc;strokeColor=#6C8EBF;opacity=50;">
          <mxGeometry as="geometry" height="60" width="120" y="120" x="970" />
        </mxCell>
        <mxCell id="xYllv8rpuoElAiDCNA6X-6" value="" parent="VnCNZadoxZpTZtr3mc3R-1" style="edgeStyle=orthogonalEdgeStyle;rounded=0;orthogonalLoop=1;jettySize=auto;html=1;labelBackgroundColor=#990000;strokeColor=#4D9900;fontColor=#990000;startArrow=classic;startFill=1;" edge="1">
          <mxGeometry as="geometry" relative="1">
            <Array as="points">
              <mxPoint y="600" x="500" />
              <mxPoint y="600" x="500" />
            </Array>
            <mxPoint as="sourcePoint" y="510" x="500.00000000000045" />
            <mxPoint as="targetPoint" y="600" x="500" />
          </mxGeometry>
        </mxCell>
        <mxCell id="xYllv8rpuoElAiDCNA6X-7" parent="VnCNZadoxZpTZtr3mc3R-1" style="edgeStyle=none;rounded=0;orthogonalLoop=1;jettySize=auto;html=1;exitX=0.75;exitY=1;exitDx=0;exitDy=0;fillColor=#dae8fc;strokeColor=#6c8ebf;startArrow=classic;startFill=1;" edge="1">
          <mxGeometry as="geometry" relative="1">
            <mxPoint as="sourcePoint" y="510" x="530" />
            <mxPoint as="targetPoint" y="600" x="530" />
          </mxGeometry>
        </mxCell>
        <mxCell id="xYllv8rpuoElAiDCNA6X-8" value="" parent="VnCNZadoxZpTZtr3mc3R-1" style="edgeStyle=orthogonalEdgeStyle;rounded=0;orthogonalLoop=1;jettySize=auto;html=1;labelBackgroundColor=#990000;strokeColor=#4D9900;fontColor=#990000;startArrow=classic;startFill=1;" edge="1">
          <mxGeometry as="geometry" relative="1">
            <Array as="points">
              <mxPoint y="600" x="711" />
              <mxPoint y="600" x="711" />
            </Array>
            <mxPoint as="sourcePoint" y="510" x="711.0000000000004" />
            <mxPoint as="targetPoint" y="600" x="711" />
          </mxGeometry>
        </mxCell>
        <mxCell id="xYllv8rpuoElAiDCNA6X-9" parent="VnCNZadoxZpTZtr3mc3R-1" style="edgeStyle=none;rounded=0;orthogonalLoop=1;jettySize=auto;html=1;exitX=0.75;exitY=1;exitDx=0;exitDy=0;fillColor=#dae8fc;strokeColor=#6c8ebf;startArrow=classic;startFill=1;" edge="1">
          <mxGeometry as="geometry" relative="1">
            <mxPoint as="sourcePoint" y="510" x="741" />
            <mxPoint as="targetPoint" y="600" x="741" />
          </mxGeometry>
        </mxCell>
        <mxCell id="xYllv8rpuoElAiDCNA6X-10" value="UPP" parent="VnCNZadoxZpTZtr3mc3R-1" vertex="1" style="rounded=1;whiteSpace=wrap;html=1;fillColor=#ffe6cc;strokeColor=#d79b00;opacity=50;">
          <mxGeometry as="geometry" height="30" width="120" y="600" x="453" />
        </mxCell>
        <mxCell id="xYllv8rpuoElAiDCNA6X-11" value="Libra API" parent="VnCNZadoxZpTZtr3mc3R-1" vertex="1" style="rounded=1;whiteSpace=wrap;html=1;fillColor=#ffe6cc;strokeColor=#d79b00;opacity=50;">
          <mxGeometry as="geometry" height="30" width="120" y="600" x="670" />
        </mxCell>
        <mxCell id="xYllv8rpuoElAiDCNA6X-12" value="APP SRKit &amp;amp; APP SVC order, order center will enquire SVC card through UPP" parent="VnCNZadoxZpTZtr3mc3R-1" vertex="1" style="shape=note;size=15;align=left;spacingLeft=10;html=1;whiteSpace=wrap;strokeColor=#666600;fillColor=none;fontSize=11;fontColor=none;opacity=50;">
          <mxGeometry as="geometry" height="80" width="150" y="590" x="287.5" />
        </mxCell>
        <mxCell id="xYllv8rpuoElAiDCNA6X-13" value="" parent="VnCNZadoxZpTZtr3mc3R-1" style="edgeStyle=none;endArrow=none;exitX=0;exitY=0;dashed=1;html=1;labelBackgroundColor=none;strokeColor=#666600;fontSize=25;fontColor=none;exitDx=67.5;exitDy=0;exitPerimeter=0;" edge="1" source="xYllv8rpuoElAiDCNA6X-12">
          <mxGeometry as="geometry" x="1" relative="1">
            <mxPoint as="targetPoint" y="550" x="500" />
            <mxPoint as="sourcePoint" y="529.9999999999999" x="813.5" />
          </mxGeometry>
        </mxCell>
        <mxCell id="xYllv8rpuoElAiDCNA6X-14" value="Order center will require coupons through Libra API and bind coupons and SVC card with account for APP SRKit order; only bind new SVC card with account for APP SVC orders " parent="VnCNZadoxZpTZtr3mc3R-1" vertex="1" style="shape=note;size=15;align=left;spacingLeft=10;html=1;whiteSpace=wrap;strokeColor=#666600;fillColor=none;fontSize=11;fontColor=none;opacity=50;">
          <mxGeometry as="geometry" height="110" width="150" y="620" x="823" />
        </mxCell>
        <mxCell id="xYllv8rpuoElAiDCNA6X-15" value="" parent="VnCNZadoxZpTZtr3mc3R-1" style="edgeStyle=none;endArrow=none;exitX=0;exitY=0;dashed=1;html=1;labelBackgroundColor=none;strokeColor=#666600;fontSize=25;fontColor=none;exitDx=67.5;exitDy=0;exitPerimeter=0;" edge="1" source="xYllv8rpuoElAiDCNA6X-14">
          <mxGeometry as="geometry" x="1" relative="1">
            <mxPoint as="targetPoint" y="550" x="740" />
            <mxPoint as="sourcePoint" y="559.9999999999999" x="1349" />
          </mxGeometry>
        </mxCell>
      </root>
    </mxGraphModel>
  </diagram>
</mxfile>
